<svg xmlns="http://www.w3.org/2000/svg" width="98" height="27" viewBox="0 0 98 27" fill="none">
<g clip-path="url(#clip0_906_1543)">
<path d="M37.2444 0.558L28.8281 22.5567H33.3487L35.0785 17.9604H44.0091L45.7462 22.5567H50.2335L41.8693 0.558H37.2444ZM36.6304 13.923L39.5704 6.183L42.4978 13.923H36.6304ZM55.637 16.884L51.9867 7.1028H47.6738L53.5529 22.5558H57.828L63.6028 7.1028H59.2899L55.637 16.884ZM69.027 7.1028H64.9227V22.5558H69.027V7.1028ZM66.9726 5.9895C67.766 5.9895 68.527 5.67398 69.0881 5.11236C69.6491 4.55073 69.9643 3.78901 69.9643 2.99475C69.9643 2.20049 69.6491 1.43877 69.0881 0.877142C68.527 0.315517 67.766 0 66.9726 0C66.1792 0 65.4182 0.315517 64.8572 0.877142C64.2961 1.43877 63.9809 2.20049 63.9809 2.99475C63.9809 3.78901 64.2961 4.55073 64.8572 5.11236C65.4182 5.67398 66.1792 5.9895 66.9726 5.9895ZM77.161 2.979H73.0684V7.0758H70.6678V10.8H73.0684V17.3673C73.0684 21.0915 75.1183 22.6935 78.0061 22.6935C78.9804 22.7062 79.9467 22.5171 80.8445 22.1382V18.3096C80.3545 18.4896 79.8376 18.5832 79.3161 18.5886C78.0619 18.5886 77.1583 18.1008 77.1583 16.4286V10.8009H80.8445V7.1136H77.161V2.9799V2.979ZM89.473 6.822C88.4225 6.82153 87.3821 7.0282 86.4113 7.43021C85.4405 7.83222 84.5583 8.42171 83.8151 9.165C83.0719 9.9083 82.4822 10.7909 82.0798 11.7623C81.6773 12.7337 81.4699 13.775 81.4694 14.8266C81.4689 15.8783 81.6754 16.9197 82.077 17.8915C82.4786 18.8633 83.0675 19.7463 83.81 20.4903C84.5526 21.2343 85.4342 21.8245 86.4046 22.2274C87.3751 22.6303 88.4153 22.8379 89.4659 22.8384C91.5728 22.817 93.5863 21.9644 95.0689 20.4658C96.5516 18.9671 97.3838 16.9434 97.3848 14.8342C97.3857 12.725 96.5553 10.7006 95.074 9.20059C93.5927 7.7006 91.58 6.84529 89.473 6.822ZM89.473 18.7416C88.7024 18.7423 87.9488 18.5142 87.3077 18.0861C86.6666 17.6581 86.1667 17.0493 85.8713 16.3367C85.5759 15.6242 85.4982 14.84 85.6481 14.0833C85.7981 13.3266 86.1688 12.6314 86.7135 12.0857C87.2582 11.5399 87.9523 11.1682 88.7081 11.0174C89.4639 10.8666 90.2474 10.9437 90.9594 11.2387C91.6715 11.5338 92.2801 12.0336 92.7084 12.675C93.1366 13.3163 93.3652 14.0705 93.3652 14.8419C93.3635 15.8736 92.9525 16.8624 92.2226 17.5909C91.4927 18.3193 90.5037 18.7277 89.473 18.7263V18.7416Z" fill="black"/>
<path d="M9.52656 7.69496C11.1776 7.69496 12.516 6.35517 12.516 4.70246C12.516 3.04975 11.1776 1.70996 9.52656 1.70996C7.87553 1.70996 6.53711 3.04975 6.53711 4.70246C6.53711 6.35517 7.87553 7.69496 9.52656 7.69496Z" fill="#965EEB"/>
<path d="M20.001 13.023C23.5935 13.023 26.5058 10.1077 26.5058 6.5115C26.5058 2.9153 23.5935 0 20.001 0C16.4084 0 13.4961 2.9153 13.4961 6.5115C13.4961 10.1077 16.4084 13.023 20.001 13.023Z" fill="#00AAFF"/>
<path d="M8.00183 24.75C12.4211 24.75 16.0037 21.1638 16.0037 16.74C16.0037 12.3162 12.4211 8.72998 8.00183 8.72998C3.58254 8.72998 0 12.3162 0 16.74C0 21.1638 3.58254 24.75 8.00183 24.75Z" fill="#04E061"/>
<path d="M21.8697 23.7419C24.5386 23.7419 26.7022 21.5761 26.7022 18.9044C26.7022 16.2327 24.5386 14.0669 21.8697 14.0669C19.2007 14.0669 17.0371 16.2327 17.0371 18.9044C17.0371 21.5761 19.2007 23.7419 21.8697 23.7419Z" fill="#FF4053"/>
</g>
<defs>
<clipPath id="clip0_906_1543">
<rect width="98" height="27" fill="white"/>
</clipPath>
</defs>
</svg>