<svg width="181" height="181" viewBox="0 0 181 181" fill="none" xmlns="http://www.w3.org/2000/svg">
<g clip-path="url(#clip0_346_2005)">
<path d="M181 0H0V181H181V0Z" fill="#0255A1"/>
<path d="M117.942 81.5171C118.077 81.5489 118.133 81.5454 118.151 81.5701C120.47 84.7518 123.708 85.3386 127.342 84.8508C130.804 84.3831 134.295 84.1657 137.789 84.2003C139.478 84.2003 140.97 84.9957 142.526 85.5366C143.007 85.7027 143.445 86.0138 143.883 85.4341C145.965 82.6766 148.984 81.8494 152.198 81.3121C154.786 80.8772 157.409 80.605 159.936 79.8308C162.542 79.0425 164.939 77.9749 166.066 75.168C167.834 77.9961 167.664 82.4398 164.773 85.5861C161.881 88.7324 158.374 90.6944 154.591 92.363C153.739 92.7377 153.411 93.1124 153.513 94.1305C154.832 107.653 149.306 118.247 139.227 126.749C130.892 133.781 121.138 138.118 110.769 141.215C100.051 144.418 89.0707 145.224 77.9703 144.712C68.5597 144.277 59.3541 142.689 50.4809 139.409C41.1728 135.966 32.5506 131.37 25.4025 124.353C19.6437 118.696 15.4829 112.107 13.9663 104.061C13.4006 101.059 14.2632 98.2243 15.5041 95.5481C18.6857 88.6935 24.3031 84.7482 31.3486 82.6201C37.2311 80.8525 43.2268 80.7288 49.2789 81.5595C60.0294 83.0054 69.8359 86.986 78.999 92.6458C83.9338 95.6487 88.1175 99.7392 91.2306 104.605C95.2501 110.968 100.846 114.33 108.09 115.32C116.659 116.494 124.79 115.433 131.86 109.943C135.887 106.818 138.135 102.562 139.249 97.6586C139.298 97.4071 139.323 97.1514 139.323 96.895C139.312 96.6956 139.287 96.4972 139.249 96.3011C137.004 96.1326 134.773 95.8232 132.567 95.3749C128.622 94.53 124.755 93.5013 121.41 91.0726C118.214 88.7324 116.96 85.4128 117.942 81.5171ZM38.0866 116.515C38.8217 116.556 39.5575 116.448 40.2503 116.199C40.9432 115.95 41.579 115.565 42.1203 115.066C43.3434 113.903 43.3434 112.294 42.1697 111.096C40.183 109.07 35.711 109.063 33.7349 111.096C32.5364 112.322 32.5471 113.857 33.7914 115.052C34.9297 116.148 36.3438 116.526 38.0866 116.529V116.515Z" fill="#FDED00"/>
<path d="M55.3332 71.3042V78.219C51.2048 77.2405 46.9767 76.7446 42.7339 76.7413C34.9247 76.7908 27.4938 78.3286 20.8831 82.7899C18.8645 84.151 16.9944 85.664 15.5804 87.824C15.2551 87.177 15.6617 86.8341 15.7889 86.4453C15.9459 86.0058 16.1265 85.575 16.3298 85.1549C19.2463 78.5937 23.8349 73.3405 29.3533 68.8932C36.9999 62.7244 45.7565 58.6766 55.1211 55.8662C55.2386 55.8536 55.3571 55.8536 55.4746 55.8662V61.031C60.2718 61.031 63.312 58.4044 63.9979 54.5546C64.1004 53.9713 64.2347 53.5966 64.8604 53.5153L74.5927 52.2144C74.7628 52.2176 74.9321 52.2377 75.0982 52.2745C73.8571 56.104 71.358 59.4016 68.0067 61.632C64.7084 63.8733 60.9364 64.8596 57.0477 65.6621C68.2118 67.7443 74.9215 73.8637 75.883 85.7559C74.271 85.0171 72.8711 84.3913 71.4889 83.7338C69.7434 82.8793 67.9464 82.1343 66.1083 81.5031C65.3836 81.2663 65.0478 80.9057 65.0124 80.0643C64.7261 75.0868 60.6076 71.3113 55.3332 71.3042Z" fill="#FDED00"/>
<path d="M114.217 111.531C114.217 103.584 114.195 95.7852 114.217 87.9866C114.24 82.1442 114.305 76.3029 114.411 70.4628C114.432 69.3422 114.202 69.0099 112.997 69.1442C109.48 69.4957 106.013 70.2367 102.66 71.3537V53.54C120.728 57.5524 137.1 64.1985 148.295 80.0997C147.546 80.4532 146.903 80.7254 146.295 81.0577C145.687 81.39 145.075 81.8142 144.276 82.3162C138.541 75.5812 130.596 71.1084 121.863 69.6992V82.7228C119.837 81.4395 118.738 79.5411 117.2 78.0422C115.005 83.5005 115.298 88.6724 120.704 92.5364C121.089 92.7655 121.4 93.0998 121.602 93.5C121.804 93.9001 121.887 94.3495 121.842 94.7953C121.771 99.3557 121.785 103.92 121.771 108.483C121.771 109.038 121.824 109.544 121.121 109.823C118.915 110.65 116.659 111.358 114.217 111.531Z" fill="#FDED00"/>
<path d="M99.2903 107.444C98.5595 106.91 97.9297 106.251 97.4308 105.496C95.9425 103.53 94.4755 101.547 92.9589 99.6028C92.597 99.1356 92.4185 98.5522 92.4569 97.9625C92.5394 91.5262 92.6089 85.0898 92.6655 78.6535C92.6655 78.1974 92.6655 77.7414 92.6655 76.9425C88.1475 80.4776 84.6972 84.4936 82.1519 89.4145C80.9005 88.665 79.7268 87.9474 78.5319 87.258C78.3819 87.1821 78.2585 87.0623 78.1783 86.9145C78.0981 86.7667 78.0648 86.598 78.0829 86.4308C78.1501 75.09 77.9981 63.7493 78.3056 52.4085C78.3352 52.263 78.3827 52.1216 78.4471 51.9878H84.9129V74.4997C89.452 67.7829 91.5625 60.253 92.7892 52.2671C94.9103 52.5145 96.9642 52.7372 99.0111 52.9953C99.7923 53.0943 99.5519 53.7483 99.5519 54.2114C99.5201 61.0343 99.4706 67.8536 99.4353 74.6764C99.3834 85.1216 99.3351 95.5668 99.2903 106.012C99.2903 106.408 99.2903 106.829 99.2903 107.444Z" fill="#FDED00"/>
<path d="M113.779 47.5794L112.309 47.1835L114.43 39.2223C115.183 38.936 115.752 39.3814 116.367 39.4627C117.109 39.5617 116.957 40.2192 116.872 40.6894C116.646 41.9479 116.763 43.2064 116.625 44.776C117.488 43.8216 117.785 42.9024 118.216 42.0823C119.276 40.0778 119.241 40.0637 121.5 40.9934L119.336 49.0607L118.007 48.7071C118.089 46.7239 119.146 44.9599 119.018 42.9448C118.237 44.4543 117.47 45.9709 116.664 47.4663C116.491 47.7915 116.434 48.3642 115.791 48.1344C115.264 47.9471 115.437 47.5158 115.437 47.1623C115.483 45.8437 115.437 44.5251 115.635 43.2135C115.702 42.7822 115.883 42.2519 115.204 41.9409L113.779 47.5794Z" fill="#FDED00"/>
<path d="M144.235 60.0128L142.941 59.1891L145.575 54.8303C144.186 55.4207 143.415 56.3858 142.432 57.0327C142.043 57.2872 141.697 57.6054 141.319 57.8811C140.743 58.3018 140.382 57.7751 139.986 57.5276C139.59 57.2802 139.802 56.9903 139.986 56.6686C141.262 54.4874 142.514 52.2885 143.765 50.1179C144.359 50.0967 144.638 50.5351 145.179 50.7684L142.683 54.8833C142.994 55.1272 143.256 54.9222 143.521 54.7136C144.384 54.0278 145.289 53.4056 146.095 52.642C146.943 51.8254 147.643 51.8714 148.435 52.7622L144.235 60.0128Z" fill="#FDED00"/>
<path d="M149.82 64.2763L148.643 63.3359L150.792 60.5078C149.41 59.0725 149.024 59.0938 147.801 60.6634C146.741 62.0138 146.741 62.0138 145.461 60.7447C146.875 60.1013 147.091 58.0474 148.996 57.9908C148.928 57.6084 148.946 57.2157 149.05 56.8413C149.153 56.4669 149.339 56.1204 149.594 55.8273C150.318 55.0283 151.089 54.7667 152.068 55.3606C153.124 56.0167 154.112 56.7771 155.016 57.6302L149.82 64.2763ZM151.587 59.4331C152.107 58.7438 152.648 58.2418 152.945 57.5277C152.16 56.9515 151.531 55.9475 150.601 57.1742C149.671 58.4009 150.82 58.7685 151.602 59.4331H151.587Z" fill="#FDED00"/>
<path d="M94.8288 44.8506C93.6445 45.0945 93.192 44.8506 93.3865 43.7193C93.4622 42.9178 93.4705 42.1113 93.4112 41.3084C91.5199 40.8629 91.1699 41.1387 91.1275 43.0759C91.0922 44.794 91.0568 44.8223 89.4023 44.5536C89.7559 41.0185 89.7559 41.0185 90.6184 40.2337C89.5579 39.463 89.6639 38.3494 89.9856 37.3419C90.3392 36.2495 91.3997 36.2495 92.3471 36.3026C93.2946 36.3556 94.2172 36.2177 95.2389 36.55L94.8288 44.8506ZM93.4501 39.9261C93.5349 39.0565 93.7082 38.36 93.5243 37.5434C92.8527 37.6777 92.1103 37.1899 91.6154 37.8969C91.4683 38.1085 91.3831 38.3568 91.3693 38.6141C91.3556 38.8714 91.4139 39.1274 91.5376 39.3534C91.9371 40.1453 92.7006 39.7882 93.4501 39.9261Z" fill="#FDED00"/>
<path d="M59.2994 38.8692C59.766 38.8328 60.2316 38.9518 60.6235 39.2075C61.0155 39.4633 61.3119 39.8415 61.4664 40.2833C62.0778 41.8579 62.4772 43.5067 62.6543 45.1865C62.8063 46.3956 62.0568 47.1981 60.6781 47.5657C59.1332 47.9793 58.1717 47.7142 57.6414 46.5865C56.8837 44.9305 56.4573 43.1423 56.3864 41.3226C56.3087 39.8166 57.4929 38.8869 59.2994 38.8692ZM61.0139 44.7447C60.7629 43.7442 60.4625 42.369 60.0595 41.0292C59.8968 40.4919 59.4691 40.0394 58.7974 40.2126C58.6487 40.2423 58.5078 40.3026 58.3836 40.3896C58.2594 40.4766 58.1546 40.5885 58.0759 40.7181C57.9971 40.8476 57.9461 40.9922 57.9261 41.1425C57.9061 41.2928 57.9175 41.4456 57.9596 41.5913C58.2247 42.924 58.5323 44.2533 58.8893 45.5648C59.059 46.1941 59.5115 46.5865 60.2397 46.3991C60.9079 46.233 61.0599 45.7274 61.0139 44.7447Z" fill="#FDED00"/>
<path d="M111.885 41.0434C111.752 42.4395 111.473 43.8176 111.05 45.1548C110.598 46.5688 109.636 47.039 108.017 46.7244C106.536 46.4345 105.645 45.4623 105.818 44.0872C105.998 42.6564 106.274 41.2392 106.642 39.845C107.056 38.286 108.056 37.6567 109.435 37.8794C111.291 38.1799 111.969 38.9895 111.885 41.0434ZM107.395 43.9564C107.395 44.6634 107.469 45.2927 108.279 45.4623C109.088 45.632 109.47 45.1088 109.619 44.4265C109.89 43.1822 110.125 41.9307 110.326 40.6722C110.439 39.9652 110.195 39.3536 109.431 39.2051C108.668 39.0566 108.325 39.6258 108.173 40.2162C107.869 41.4499 107.65 42.7085 107.395 43.9564Z" fill="#FDED00"/>
<path d="M52.5029 49.4708L51.0888 49.9551L48.5859 41.8702C50.1273 41.3753 51.5944 40.8945 53.0685 40.4349C53.1565 40.3945 53.2527 40.3749 53.3496 40.3777C53.4464 40.3805 53.5413 40.4057 53.6268 40.4512C53.7124 40.4967 53.7863 40.5613 53.8427 40.64C53.8992 40.7188 53.9367 40.8095 53.9523 40.9051C54.677 43.3797 55.4088 45.8543 56.1618 48.3961L54.7265 48.785L52.6054 41.8808L50.4136 42.5348L52.5029 49.4708Z" fill="#FDED00"/>
<path d="M43.4808 52.6033C43.1112 52.9654 42.6159 53.1706 42.0985 53.176L40.4865 49.7292L38.5316 50.6766C38.8179 51.9705 39.5285 53.031 39.9668 54.2683L38.6093 54.8693L35.2227 47.3253C35.5571 46.9367 36.0131 46.6726 36.5165 46.5758L37.9518 49.5595C38.6588 49.2449 39.3871 49.0858 39.9562 48.4989L38.6659 45.5683L40.0269 44.9072L43.4808 52.6033Z" fill="#FDED00"/>
<path d="M125.907 51.143L124.493 50.6905L126.784 43.9384C126.24 43.3692 125.462 43.4364 124.726 42.9521L122.27 49.8916L120.855 49.4391L123.616 41.4072L128.686 43.1501L125.907 51.143Z" fill="#FDED00"/>
<path d="M136.456 51.3516L134.738 54.7277C134.176 54.7277 133.833 54.4095 133.324 54.1904L136.98 46.7312C137.538 46.6357 137.814 47.12 138.284 47.1589C138.284 47.9261 137.867 48.4528 137.556 48.9689C136.969 49.9482 137.008 50.6092 138.231 50.9133C138.471 50.9734 138.627 51.2668 139.09 51.083L140.472 48.3185C141.003 48.4811 141.444 48.5907 141.787 49.0715L138.157 56.4953C137.667 56.3771 137.219 56.1263 136.863 55.7706L138.433 52.4016L136.456 51.3516Z" fill="#FDED00"/>
<path d="M81.7043 44.6846H80.2478C79.9508 43.4897 80.3326 42.2099 79.8625 40.9903C79.2155 40.7641 78.5651 40.9903 77.8085 41.0964V44.8684C77.3357 45.019 76.8305 45.0362 76.3485 44.9179L75.9102 36.6774C76.4358 36.4888 77.0107 36.4888 77.5363 36.6774C77.5363 37.2466 77.5363 37.8299 77.5363 38.4167C77.5646 39.9722 77.6176 40.0182 79.1307 39.7919C79.3393 39.7601 79.5478 39.7035 79.7988 39.6505C80.0675 38.6147 79.6857 37.5612 79.767 36.5113C80.2584 36.1825 80.7427 36.2992 81.2801 36.3875L81.7043 44.6846Z" fill="#FDED00"/>
<path d="M105.429 37.5612C105.362 37.7026 105.347 37.7946 105.294 37.844C103.085 39.7566 102.919 42.0014 104.174 44.5007C104.375 44.9002 104.598 45.3386 104.407 45.8724C101.872 45.9749 102.83 43.3978 101.734 42.4115C100.723 43.1185 101.109 44.3452 100.73 45.3881L99.3164 45.2113L100.377 36.9002C101.582 36.7552 102.145 37.0027 101.72 38.2718C101.567 38.9031 101.595 39.5648 101.802 40.1808C102.269 39.6074 102.697 39.0027 103.081 38.3708C103.58 37.3633 104.305 37.0698 105.429 37.5612Z" fill="#FDED00"/>
<path d="M88.6669 44.4544C88.0942 44.8079 87.67 44.5993 87.1892 44.6983C87.0343 44.3022 86.9159 43.8928 86.8357 43.4751C86.7615 42.7115 86.4822 42.4146 85.6302 42.4146C84.7783 42.4146 84.5237 42.814 84.5202 43.4433C84.5202 44.7407 83.845 44.9139 82.7031 44.6099C83.2688 42.0151 83.845 39.4415 84.3788 36.8573C84.5308 36.122 85.0575 36.221 85.5454 36.1998C86.0332 36.1786 86.5741 35.9523 86.7332 36.5886C87.4049 39.2117 88.0235 41.8596 88.6669 44.4544ZM85.4005 38.6355L85.008 41.1525C85.1991 41.2392 85.4075 41.2807 85.6171 41.274C85.8267 41.2672 86.032 41.2124 86.2171 41.1136C86.2948 40.2122 85.8105 39.4486 85.3969 38.6355H85.4005Z" fill="#FDED00"/>
<path d="M132.401 53.7342C131.888 53.6564 131.402 53.4523 130.987 53.1403C131.008 52.4411 131.147 51.7504 131.397 51.097L129.739 50.3122C128.855 50.8213 128.632 52.9282 126.953 51.2561L132.132 44.5181C134.101 45.2852 134.076 45.2781 133.684 47.1906C133.224 49.333 132.836 51.4823 132.401 53.7342ZM131.588 49.7183L132.433 46.5366C131.668 47.3076 131.016 48.1837 130.499 49.1385C130.757 49.5274 131.093 49.591 131.588 49.736V49.7183Z" fill="#FDED00"/>
<path d="M30.2734 49.7642C32.0092 48.6011 32.041 48.587 33.2925 50.0434C34.7702 51.7368 36.216 53.4584 37.7432 55.2472L36.467 55.9896C35.76 55.7138 35.6327 54.8512 34.8939 54.4553C34.3283 54.5119 33.8828 54.9891 33.3349 55.1942C33.8015 57.4708 33.8015 57.4708 32.4299 58.0223L30.2734 49.7642ZM32.2284 50.9944L31.9738 51.1323L32.9177 53.8755C33.1415 53.8721 33.3607 53.8119 33.5549 53.7006C33.749 53.5893 33.9117 53.4306 34.0278 53.2392L32.2284 50.9944Z" fill="#FDED00"/>
<path d="M48.4845 47.523C49.5451 49.7042 48.9547 51.0829 46.8548 51.5425C46.4226 51.6742 45.9584 51.6558 45.538 51.4902C45.1175 51.3246 44.7655 51.0216 44.5393 50.6304C43.598 49.0715 42.9308 47.3629 42.5667 45.5787C42.2803 44.2742 43.4505 43.0581 45.0766 42.7682C46.1796 42.5738 47.0704 43.3515 47.3639 44.8327L46.2821 45.2499C45.7907 44.9671 45.7907 44.2919 45.2216 44.1398C44.5145 43.956 43.8641 44.8469 44.1398 45.6918C44.5251 46.8513 44.9494 48.0002 45.4337 49.1209C45.72 49.782 46.1407 50.5137 47.0422 50.1602C47.8941 49.8279 47.4416 49.0997 47.3745 48.5093C47.3745 48.3856 47.325 48.2618 47.2861 48.0709L48.4845 47.523Z" fill="#FDED00"/>
<path d="M65.5544 42.8248L66.0882 46.1938L64.6211 46.5473L63.2812 38.2539C64.4196 37.7837 65.6145 37.7448 66.7704 37.6246C67.8628 37.5115 68.5663 38.3316 68.8102 39.7775C69.0082 40.9441 68.4885 41.987 67.4527 42.3511C66.8624 42.5632 66.2366 42.6622 65.5544 42.8248ZM65.4165 41.4532C66.1235 41.4355 66.7775 41.4885 67.0992 40.7709C67.2231 40.5204 67.2688 40.2385 67.2303 39.9617C67.1919 39.685 67.071 39.4262 66.8836 39.219C66.3144 38.6215 65.671 38.9998 65.0029 39.219L65.4165 41.4532Z" fill="#FDED00"/>
<path d="M27.5756 57.0223L29.3786 59.8857C29.1877 60.3736 28.6362 60.4125 28.2261 60.8685L23.5703 53.7346C24.4188 53.1795 25.2354 52.5998 26.0944 52.0942C27.4272 51.3094 28.318 51.5498 29.2089 52.8755C30.0467 54.1199 29.9159 55.2193 28.7776 56.1208C28.417 56.4107 28.0423 56.6758 27.5756 57.0223ZM26.8686 55.9228C28.2827 55.0249 28.4594 54.484 27.763 53.6356C26.9252 52.6104 26.3136 53.4305 25.5571 53.9184L26.8686 55.9228Z" fill="#FDED00"/>
<path d="M73.4132 45.2078L71.9638 45.4906C71.7093 43.6311 71.4229 41.8388 71.2285 40.0394C71.0447 38.3249 71.0871 38.3213 69.3124 38.339C69.0367 38.0208 69.065 37.6709 69.2311 37.236L74.0389 36.6704C74.343 36.9037 74.3041 37.2891 74.3465 37.6709C73.8233 37.9713 73.1551 37.7875 72.5789 38.2824L73.4132 45.2078Z" fill="#FDED00"/>
<path d="M20.0831 57.6726L18.7115 58.7013C18.2873 58.5599 18.1671 58.2064 17.9727 57.8175L21.8967 54.7349C22.09 54.784 22.2628 54.8934 22.3899 55.0472C22.517 55.201 22.5919 55.3912 22.6037 55.5904L21.4124 56.6969C21.9957 57.7574 22.8264 58.6165 23.5335 59.525C24.2405 60.4335 24.9723 61.3986 25.7429 62.4026L24.6258 63.396L20.0831 57.6726Z" fill="#FDED00"/>
<path d="M37.9747 114.186C37.2677 114.065 36.4051 113.977 36.3945 113.051C36.3945 112.209 37.1546 111.99 37.8581 111.966C38.5616 111.941 39.4348 112.118 39.5019 113.001C39.5726 113.956 38.6995 114.048 37.9747 114.186Z" fill="#FDED00"/>
<path d="M117.942 81.5171C118.077 81.5489 118.133 81.5454 118.151 81.5701C120.47 84.7518 123.708 85.3386 127.342 84.8508C130.804 84.3831 134.295 84.1657 137.789 84.2003C139.478 84.2003 140.97 84.9957 142.526 85.5366C143.007 85.7027 143.445 86.0138 143.883 85.4341C145.965 82.6766 148.984 81.8494 152.198 81.3121C154.786 80.8772 157.409 80.605 159.936 79.8308C162.542 79.0425 164.939 77.9749 166.066 75.168C167.834 77.9961 167.664 82.4398 164.773 85.5861C161.881 88.7324 158.374 90.6944 154.591 92.363C153.739 92.7377 153.411 93.1124 153.513 94.1305C154.832 107.653 149.306 118.247 139.227 126.749C130.892 133.781 121.138 138.118 110.769 141.215C100.051 144.418 89.0707 145.224 77.9703 144.712C68.5597 144.277 59.3541 142.689 50.4809 139.409C41.1728 135.966 32.5506 131.37 25.4025 124.353C19.6437 118.696 15.4829 112.107 13.9663 104.061C13.4006 101.059 14.2632 98.2243 15.5041 95.5481C18.6857 88.6935 24.3031 84.7482 31.3486 82.6201C37.2311 80.8525 43.2268 80.7288 49.2789 81.5595C60.0294 83.0054 69.8359 86.986 78.999 92.6458C83.9338 95.6487 88.1175 99.7392 91.2306 104.605C95.2501 110.968 100.846 114.33 108.09 115.32C116.659 116.494 124.79 115.433 131.86 109.943C135.887 106.818 138.135 102.562 139.249 97.6586C139.298 97.4071 139.323 97.1514 139.323 96.895C139.312 96.6956 139.287 96.4972 139.249 96.3011C137.004 96.1326 134.773 95.8232 132.567 95.3749C128.622 94.53 124.755 93.5013 121.41 91.0726C118.214 88.7324 116.96 85.4128 117.942 81.5171ZM38.0866 116.515C38.8217 116.556 39.5575 116.448 40.2503 116.199C40.9432 115.95 41.579 115.565 42.1203 115.066C43.3434 113.903 43.3434 112.294 42.1697 111.096C40.183 109.07 35.711 109.063 33.7349 111.096C32.5364 112.322 32.5471 113.857 33.7914 115.052C34.9297 116.148 36.3438 116.526 38.0866 116.529V116.515Z" fill="#FDFD02"/>
<path d="M55.3332 71.3042V78.219C51.2048 77.2405 46.9767 76.7446 42.7339 76.7413C34.9247 76.7908 27.4938 78.3286 20.8831 82.7899C18.8645 84.151 16.9944 85.664 15.5804 87.824C15.2551 87.177 15.6617 86.8341 15.7889 86.4453C15.9459 86.0058 16.1265 85.575 16.3298 85.1549C19.2463 78.5937 23.8349 73.3405 29.3533 68.8932C36.9999 62.7244 45.7565 58.6766 55.1211 55.8662C55.2386 55.8536 55.3571 55.8536 55.4746 55.8662V61.031C60.2718 61.031 63.312 58.4044 63.9979 54.5546C64.1004 53.9713 64.2347 53.5966 64.8604 53.5153L74.5927 52.2144C74.7628 52.2176 74.9321 52.2377 75.0982 52.2745C73.8571 56.104 71.358 59.4016 68.0067 61.632C64.7084 63.8733 60.9364 64.8596 57.0477 65.6621C68.2118 67.7443 74.9215 73.8637 75.883 85.7559C74.271 85.0171 72.8711 84.3913 71.4889 83.7338C69.7434 82.8793 67.9464 82.1343 66.1083 81.5031C65.3836 81.2663 65.0478 80.9057 65.0124 80.0643C64.7261 75.0868 60.6076 71.3113 55.3332 71.3042Z" fill="#FDFD02"/>
<path d="M114.217 111.531C114.217 103.584 114.195 95.7852 114.217 87.9866C114.24 82.1442 114.305 76.3029 114.411 70.4628C114.432 69.3422 114.202 69.0099 112.997 69.1442C109.48 69.4957 106.013 70.2367 102.66 71.3537V53.54C120.728 57.5524 137.1 64.1985 148.295 80.0997C147.546 80.4532 146.903 80.7254 146.295 81.0577C145.687 81.39 145.075 81.8142 144.276 82.3162C138.541 75.5812 130.596 71.1084 121.863 69.6992V82.7228C119.837 81.4395 118.738 79.5411 117.2 78.0422C115.005 83.5005 115.298 88.6724 120.704 92.5364C121.089 92.7655 121.4 93.0998 121.602 93.5C121.804 93.9001 121.887 94.3495 121.842 94.7953C121.771 99.3557 121.785 103.92 121.771 108.483C121.771 109.038 121.824 109.544 121.121 109.823C118.915 110.65 116.659 111.358 114.217 111.531Z" fill="#FDFD02"/>
<path d="M99.2903 107.444C98.5595 106.91 97.9297 106.251 97.4308 105.496C95.9425 103.53 94.4755 101.547 92.9589 99.6028C92.597 99.1356 92.4185 98.5522 92.4569 97.9625C92.5394 91.5262 92.6089 85.0898 92.6655 78.6535C92.6655 78.1974 92.6655 77.7414 92.6655 76.9425C88.1475 80.4776 84.6972 84.4936 82.1519 89.4145C80.9005 88.665 79.7268 87.9474 78.5319 87.258C78.3819 87.1821 78.2585 87.0623 78.1783 86.9145C78.0981 86.7667 78.0648 86.598 78.0829 86.4308C78.1501 75.09 77.9981 63.7493 78.3056 52.4085C78.3352 52.263 78.3827 52.1216 78.4471 51.9878H84.9129V74.4997C89.452 67.7829 91.5625 60.253 92.7892 52.2671C94.9103 52.5145 96.9642 52.7372 99.0111 52.9953C99.7923 53.0943 99.5519 53.7483 99.5519 54.2114C99.5201 61.0343 99.4706 67.8536 99.4353 74.6764C99.3834 85.1216 99.3351 95.5668 99.2903 106.012C99.2903 106.408 99.2903 106.829 99.2903 107.444Z" fill="#FDFD02"/>
<path d="M113.779 47.5794L112.309 47.1835L114.43 39.2223C115.183 38.936 115.752 39.3814 116.367 39.4627C117.109 39.5617 116.957 40.2192 116.872 40.6894C116.646 41.9479 116.763 43.2064 116.625 44.776C117.488 43.8216 117.785 42.9024 118.216 42.0823C119.276 40.0778 119.241 40.0637 121.5 40.9934L119.336 49.0607L118.007 48.7071C118.089 46.7239 119.146 44.9599 119.018 42.9448C118.237 44.4543 117.47 45.9709 116.664 47.4663C116.491 47.7915 116.434 48.3642 115.791 48.1344C115.264 47.9471 115.437 47.5158 115.437 47.1623C115.483 45.8437 115.437 44.5251 115.635 43.2135C115.702 42.7822 115.883 42.2519 115.204 41.9409L113.779 47.5794Z" fill="#FDFD02"/>
<path d="M144.235 60.0128L142.941 59.1891L145.575 54.8303C144.186 55.4207 143.415 56.3858 142.432 57.0327C142.043 57.2872 141.697 57.6054 141.319 57.8811C140.743 58.3018 140.382 57.7751 139.986 57.5276C139.59 57.2802 139.802 56.9903 139.986 56.6686C141.262 54.4874 142.514 52.2885 143.765 50.1179C144.359 50.0967 144.638 50.5351 145.179 50.7684L142.683 54.8833C142.994 55.1272 143.256 54.9222 143.521 54.7136C144.384 54.0278 145.289 53.4056 146.095 52.642C146.943 51.8254 147.643 51.8714 148.435 52.7622L144.235 60.0128Z" fill="#FDFD02"/>
<path d="M149.82 64.2763L148.643 63.3359L150.792 60.5078C149.41 59.0725 149.024 59.0938 147.801 60.6634C146.741 62.0138 146.741 62.0138 145.461 60.7447C146.875 60.1013 147.091 58.0474 148.996 57.9908C148.928 57.6084 148.946 57.2157 149.05 56.8413C149.153 56.4669 149.339 56.1204 149.594 55.8273C150.318 55.0283 151.089 54.7667 152.068 55.3606C153.124 56.0167 154.112 56.7771 155.016 57.6302L149.82 64.2763ZM151.587 59.4331C152.107 58.7438 152.648 58.2418 152.945 57.5277C152.16 56.9515 151.531 55.9475 150.601 57.1742C149.671 58.4009 150.82 58.7685 151.602 59.4331H151.587Z" fill="#FDFD02"/>
<path d="M94.8288 44.8506C93.6445 45.0945 93.192 44.8506 93.3865 43.7193C93.4622 42.9178 93.4705 42.1113 93.4112 41.3084C91.5199 40.8629 91.1699 41.1387 91.1275 43.0759C91.0922 44.794 91.0568 44.8223 89.4023 44.5536C89.7559 41.0185 89.7559 41.0185 90.6184 40.2337C89.5579 39.463 89.6639 38.3494 89.9856 37.3419C90.3392 36.2495 91.3997 36.2495 92.3471 36.3026C93.2946 36.3556 94.2172 36.2177 95.2389 36.55L94.8288 44.8506ZM93.4501 39.9261C93.5349 39.0565 93.7082 38.36 93.5243 37.5434C92.8527 37.6777 92.1103 37.1899 91.6154 37.8969C91.4683 38.1085 91.3831 38.3568 91.3693 38.6141C91.3556 38.8714 91.4139 39.1274 91.5376 39.3534C91.9371 40.1453 92.7006 39.7882 93.4501 39.9261Z" fill="#FDFD02"/>
<path d="M59.2994 38.8692C59.766 38.8328 60.2316 38.9518 60.6235 39.2075C61.0155 39.4633 61.3119 39.8415 61.4664 40.2833C62.0778 41.8579 62.4772 43.5067 62.6543 45.1865C62.8063 46.3956 62.0568 47.1981 60.6781 47.5657C59.1332 47.9793 58.1717 47.7142 57.6414 46.5865C56.8837 44.9305 56.4573 43.1423 56.3864 41.3226C56.3087 39.8166 57.4929 38.8869 59.2994 38.8692ZM61.0139 44.7447C60.7629 43.7442 60.4625 42.369 60.0595 41.0292C59.8968 40.4919 59.4691 40.0394 58.7974 40.2126C58.6487 40.2423 58.5078 40.3026 58.3836 40.3896C58.2594 40.4766 58.1546 40.5885 58.0759 40.7181C57.9971 40.8476 57.9461 40.9922 57.9261 41.1425C57.9061 41.2928 57.9175 41.4456 57.9596 41.5913C58.2247 42.924 58.5323 44.2533 58.8893 45.5648C59.059 46.1941 59.5115 46.5865 60.2397 46.3991C60.9079 46.233 61.0599 45.7274 61.0139 44.7447Z" fill="#FDFD02"/>
<path d="M111.885 41.0434C111.752 42.4395 111.473 43.8176 111.05 45.1548C110.598 46.5688 109.636 47.039 108.017 46.7244C106.536 46.4345 105.645 45.4623 105.818 44.0872C105.998 42.6564 106.274 41.2392 106.642 39.845C107.056 38.286 108.056 37.6567 109.435 37.8794C111.291 38.1799 111.969 38.9895 111.885 41.0434ZM107.395 43.9564C107.395 44.6634 107.469 45.2927 108.279 45.4623C109.088 45.632 109.47 45.1088 109.619 44.4265C109.89 43.1822 110.125 41.9307 110.326 40.6722C110.439 39.9652 110.195 39.3536 109.431 39.2051C108.668 39.0566 108.325 39.6258 108.173 40.2162C107.869 41.4499 107.65 42.7085 107.395 43.9564Z" fill="#FDFD02"/>
<path d="M52.5029 49.4708L51.0888 49.9551L48.5859 41.8702C50.1273 41.3753 51.5944 40.8945 53.0685 40.4349C53.1565 40.3945 53.2527 40.3749 53.3496 40.3777C53.4464 40.3805 53.5413 40.4057 53.6268 40.4512C53.7124 40.4967 53.7863 40.5613 53.8427 40.64C53.8992 40.7188 53.9367 40.8095 53.9523 40.9051C54.677 43.3797 55.4088 45.8543 56.1618 48.3961L54.7265 48.785L52.6054 41.8808L50.4136 42.5348L52.5029 49.4708Z" fill="#FDFD02"/>
<path d="M43.4808 52.6033C43.1112 52.9654 42.6159 53.1706 42.0985 53.176L40.4865 49.7292L38.5316 50.6766C38.8179 51.9705 39.5285 53.031 39.9668 54.2683L38.6093 54.8693L35.2227 47.3253C35.5571 46.9367 36.0131 46.6726 36.5165 46.5758L37.9518 49.5595C38.6588 49.2449 39.3871 49.0858 39.9562 48.4989L38.6659 45.5683L40.0269 44.9072L43.4808 52.6033Z" fill="#FDFD02"/>
<path d="M125.907 51.143L124.493 50.6905L126.784 43.9384C126.24 43.3692 125.462 43.4364 124.726 42.9521L122.27 49.8916L120.855 49.4391L123.616 41.4072L128.686 43.1501L125.907 51.143Z" fill="#FDFD02"/>
<path d="M136.456 51.3516L134.738 54.7277C134.176 54.7277 133.833 54.4095 133.324 54.1904L136.98 46.7312C137.538 46.6357 137.814 47.12 138.284 47.1589C138.284 47.9261 137.867 48.4528 137.556 48.9689C136.969 49.9482 137.008 50.6092 138.231 50.9133C138.471 50.9734 138.627 51.2668 139.09 51.083L140.472 48.3185C141.003 48.4811 141.444 48.5907 141.787 49.0715L138.157 56.4953C137.667 56.3771 137.219 56.1263 136.863 55.7706L138.433 52.4016L136.456 51.3516Z" fill="#FDFD02"/>
<path d="M81.7043 44.6846H80.2478C79.9508 43.4897 80.3326 42.2099 79.8625 40.9903C79.2155 40.7641 78.5651 40.9903 77.8085 41.0964V44.8684C77.3357 45.019 76.8305 45.0362 76.3485 44.9179L75.9102 36.6774C76.4358 36.4888 77.0107 36.4888 77.5363 36.6774C77.5363 37.2466 77.5363 37.8299 77.5363 38.4167C77.5646 39.9722 77.6176 40.0182 79.1307 39.7919C79.3393 39.7601 79.5478 39.7035 79.7988 39.6505C80.0675 38.6147 79.6857 37.5612 79.767 36.5113C80.2584 36.1825 80.7427 36.2992 81.2801 36.3875L81.7043 44.6846Z" fill="#FDFD02"/>
<path d="M105.429 37.5612C105.362 37.7026 105.347 37.7946 105.294 37.844C103.085 39.7566 102.919 42.0014 104.174 44.5007C104.375 44.9002 104.598 45.3386 104.407 45.8724C101.872 45.9749 102.83 43.3978 101.734 42.4115C100.723 43.1185 101.109 44.3452 100.73 45.3881L99.3164 45.2113L100.377 36.9002C101.582 36.7552 102.145 37.0027 101.72 38.2718C101.567 38.9031 101.595 39.5648 101.802 40.1808C102.269 39.6074 102.697 39.0027 103.081 38.3708C103.58 37.3633 104.305 37.0698 105.429 37.5612Z" fill="#FDFD02"/>
<path d="M88.6669 44.4544C88.0942 44.8079 87.67 44.5993 87.1892 44.6983C87.0343 44.3022 86.9159 43.8928 86.8357 43.4751C86.7615 42.7115 86.4822 42.4146 85.6302 42.4146C84.7783 42.4146 84.5237 42.814 84.5202 43.4433C84.5202 44.7407 83.845 44.9139 82.7031 44.6099C83.2688 42.0151 83.845 39.4415 84.3788 36.8573C84.5308 36.122 85.0575 36.221 85.5454 36.1998C86.0332 36.1786 86.5741 35.9523 86.7332 36.5886C87.4049 39.2117 88.0235 41.8596 88.6669 44.4544ZM85.4005 38.6355L85.008 41.1525C85.1991 41.2392 85.4075 41.2807 85.6171 41.274C85.8267 41.2672 86.032 41.2124 86.2171 41.1136C86.2948 40.2122 85.8105 39.4486 85.3969 38.6355H85.4005Z" fill="#FDFD02"/>
<path d="M132.401 53.7342C131.888 53.6564 131.402 53.4523 130.987 53.1403C131.008 52.4411 131.147 51.7504 131.397 51.097L129.739 50.3122C128.855 50.8213 128.632 52.9282 126.953 51.2561L132.132 44.5181C134.101 45.2852 134.076 45.2781 133.684 47.1906C133.224 49.333 132.836 51.4823 132.401 53.7342ZM131.588 49.7183L132.433 46.5366C131.668 47.3076 131.016 48.1837 130.499 49.1385C130.757 49.5274 131.093 49.591 131.588 49.736V49.7183Z" fill="#FDFD02"/>
<path d="M30.2734 49.7642C32.0092 48.6011 32.041 48.587 33.2925 50.0434C34.7702 51.7368 36.216 53.4584 37.7432 55.2472L36.467 55.9896C35.76 55.7138 35.6327 54.8512 34.8939 54.4553C34.3283 54.5119 33.8828 54.9891 33.3349 55.1942C33.8015 57.4708 33.8015 57.4708 32.4299 58.0223L30.2734 49.7642ZM32.2284 50.9944L31.9738 51.1323L32.9177 53.8755C33.1415 53.8721 33.3607 53.8119 33.5549 53.7006C33.749 53.5893 33.9117 53.4306 34.0278 53.2392L32.2284 50.9944Z" fill="#FDFD02"/>
<path d="M48.4845 47.523C49.5451 49.7042 48.9547 51.0829 46.8548 51.5425C46.4226 51.6742 45.9584 51.6558 45.538 51.4902C45.1175 51.3246 44.7655 51.0216 44.5393 50.6304C43.598 49.0715 42.9308 47.3629 42.5667 45.5787C42.2803 44.2742 43.4505 43.0581 45.0766 42.7682C46.1796 42.5738 47.0704 43.3515 47.3639 44.8327L46.2821 45.2499C45.7907 44.9671 45.7907 44.2919 45.2216 44.1398C44.5145 43.956 43.8641 44.8469 44.1398 45.6918C44.5251 46.8513 44.9494 48.0002 45.4337 49.1209C45.72 49.782 46.1407 50.5137 47.0422 50.1602C47.8941 49.8279 47.4416 49.0997 47.3745 48.5093C47.3745 48.3856 47.325 48.2618 47.2861 48.0709L48.4845 47.523Z" fill="#FDFD02"/>
<path d="M65.5544 42.8248L66.0882 46.1938L64.6211 46.5473L63.2812 38.2539C64.4196 37.7837 65.6145 37.7448 66.7704 37.6246C67.8628 37.5115 68.5663 38.3316 68.8102 39.7775C69.0082 40.9441 68.4885 41.987 67.4527 42.3511C66.8624 42.5632 66.2366 42.6622 65.5544 42.8248ZM65.4165 41.4532C66.1235 41.4355 66.7775 41.4885 67.0992 40.7709C67.2231 40.5204 67.2688 40.2385 67.2303 39.9617C67.1919 39.685 67.071 39.4262 66.8836 39.219C66.3144 38.6215 65.671 38.9998 65.0029 39.219L65.4165 41.4532Z" fill="#FDFD02"/>
<path d="M27.5756 57.0223L29.3786 59.8857C29.1877 60.3736 28.6362 60.4125 28.2261 60.8685L23.5703 53.7346C24.4188 53.1795 25.2354 52.5998 26.0944 52.0942C27.4272 51.3094 28.318 51.5498 29.2089 52.8755C30.0467 54.1199 29.9159 55.2193 28.7776 56.1208C28.417 56.4107 28.0423 56.6758 27.5756 57.0223ZM26.8686 55.9228C28.2827 55.0249 28.4594 54.484 27.763 53.6356C26.9252 52.6104 26.3136 53.4305 25.5571 53.9184L26.8686 55.9228Z" fill="#FDFD02"/>
<path d="M73.4132 45.2078L71.9638 45.4906C71.7093 43.6311 71.4229 41.8388 71.2285 40.0394C71.0447 38.3249 71.0871 38.3213 69.3124 38.339C69.0367 38.0208 69.065 37.6709 69.2311 37.236L74.0389 36.6704C74.343 36.9037 74.3041 37.2891 74.3465 37.6709C73.8233 37.9713 73.1551 37.7875 72.5789 38.2824L73.4132 45.2078Z" fill="#FDFD02"/>
<path d="M20.0831 57.6726L18.7115 58.7013C18.2873 58.5599 18.1671 58.2064 17.9727 57.8175L21.8967 54.7349C22.09 54.784 22.2628 54.8934 22.3899 55.0472C22.517 55.201 22.5919 55.3912 22.6037 55.5904L21.4124 56.6969C21.9957 57.7574 22.8264 58.6165 23.5335 59.525C24.2405 60.4335 24.9723 61.3986 25.7429 62.4026L24.6258 63.396L20.0831 57.6726Z" fill="#FDFD02"/>
<path d="M37.9747 114.186C37.2677 114.065 36.4051 113.977 36.3945 113.051C36.3945 112.209 37.1546 111.99 37.8581 111.966C38.5616 111.941 39.4348 112.118 39.5019 113.001C39.5726 113.956 38.6995 114.048 37.9747 114.186Z" fill="#FDFD02"/>
</g>
<defs>
<clipPath id="clip0_346_2005">
<rect width="181" height="181" fill="white"/>
</clipPath>
</defs>
</svg>
