<svg width="163" height="34" viewBox="0 0 163 34" fill="none" xmlns="http://www.w3.org/2000/svg">
<g clip-path="url(#clip0_914_1569)">
<path d="M17.9586 33.8701C27.3116 33.8701 34.8938 26.288 34.8938 16.9351C34.8938 7.58209 27.3116 0 17.9586 0C8.60557 0 1.02344 7.58209 1.02344 16.9351C1.02344 26.288 8.60557 33.8701 17.9586 33.8701Z" fill="#CE2457"/>
<path fill-rule="evenodd" clip-rule="evenodd" d="M17.1275 6.74966C11.8771 7.17902 7.75 11.5762 7.75 16.9372C7.75 22.5827 12.3266 27.1592 17.972 27.1592C23.6174 27.1592 28.194 22.5827 28.194 16.9372C28.194 11.5755 24.066 7.17804 18.8147 6.74951L18.5393 13.4636C20.2131 13.7349 21.4911 15.1868 21.4911 16.9372C21.4911 18.8808 19.9155 20.4564 17.972 20.4564C16.0284 20.4564 14.4528 18.8808 14.4528 16.9372C14.4528 15.1874 15.7299 13.7359 17.4029 13.4639L17.1275 6.74966Z" fill="white"/>
<path d="M17.9603 6.0336C19.1788 6.0336 20.1667 5.04577 20.1667 3.82722C20.1667 2.60868 19.1788 1.62085 17.9603 1.62085C16.7417 1.62085 15.7539 2.60868 15.7539 3.82722C15.7539 5.04577 16.7417 6.0336 17.9603 6.0336Z" fill="white"/>
<path d="M57.9598 16.9315C57.9598 19.2639 57.1066 21.1479 55.495 22.6731C53.8833 24.1982 51.8925 24.9158 49.5224 24.9158C47.1524 24.9158 45.2563 24.1982 43.5499 22.6731C42.033 21.1479 41.1797 19.2639 41.1797 16.9315C41.1797 14.5989 42.033 12.7149 43.6446 11.1898C45.2563 9.66473 47.2471 8.94702 49.5224 8.94702C51.7977 8.94702 53.8833 9.66473 55.495 11.1898C57.1066 12.7149 57.9598 14.5989 57.9598 16.9315ZM54.8314 16.9315C54.8314 15.5858 54.3573 14.4195 53.3145 13.5223C52.3665 12.6252 51.0393 12.1766 49.5224 12.1766C48.0056 12.1766 46.7731 12.6252 45.7302 13.5223C44.6875 14.4195 44.2134 15.5858 44.2134 16.9315C44.2134 18.2772 44.6875 19.4434 45.7302 20.3405C46.6783 21.2376 48.0056 21.6862 49.5224 21.6862C51.0393 21.6862 52.3665 21.2376 53.3145 20.3405C54.3573 19.4434 54.8314 18.2772 54.8314 16.9315Z" fill="#CE2457"/>
<path d="M67.97 24.2H64.4624V12.4475H59.0586V9.6665H73.279V12.4475H67.97V24.2Z" fill="#CE2457"/>
<path d="M81.1337 24.5621C78.6689 24.5621 76.678 24.2033 75.0664 23.4856V20.6148C76.8677 21.4222 78.7636 21.7811 80.6597 21.7811C82.0818 21.7811 83.1246 21.6017 83.9779 21.2428C84.7362 20.8839 85.2103 20.3456 85.2103 19.7177C85.2103 18.4617 84.0727 17.9234 81.7026 17.9234H78.7637V15.3217H81.7026C83.6935 15.3217 84.6415 14.7835 84.6415 13.707C84.6415 12.5407 83.3142 12.0024 80.7546 12.0024C79.0481 12.0024 77.3416 12.3613 75.5404 13.079V10.2979C77.1521 9.66988 79.1429 9.31104 81.5129 9.31104C83.409 9.31104 85.0207 9.66988 86.3479 10.3876C87.5804 11.1053 88.244 12.0921 88.244 13.1687C88.244 14.7835 87.3908 15.8601 85.7791 16.3983C87.7699 17.0262 88.8128 18.1925 88.8128 19.9868C88.8128 21.3325 88.1492 22.4987 86.7272 23.3062C85.3051 24.2033 83.409 24.5621 81.1337 24.5621Z" fill="#CE2457"/>
<path d="M107.941 16.9315C107.941 19.2639 107.088 21.1479 105.476 22.6731C103.865 24.1982 101.874 24.9158 99.5038 24.9158C97.1337 24.9158 95.2377 24.1982 93.5312 22.6731C91.9196 21.1479 91.0664 19.2639 91.0664 16.9315C91.0664 14.5989 91.9196 12.7149 93.5312 11.1898C95.2377 9.66473 97.2285 8.94702 99.5986 8.94702C101.969 8.94702 103.96 9.66473 105.571 11.1898C107.088 12.7149 107.941 14.5989 107.941 16.9315ZM104.908 16.9315C104.908 15.5858 104.434 14.4195 103.391 13.5223C102.443 12.6252 101.115 12.1766 99.5986 12.1766C98.0818 12.1766 96.8493 12.6252 95.8065 13.5223C94.7636 14.4195 94.2897 15.5858 94.2897 16.9315C94.2897 18.2772 94.7636 19.4434 95.8065 20.3405C96.7546 21.2376 98.0818 21.6862 99.5986 21.6862C101.115 21.6862 102.443 21.2376 103.391 20.3405C104.339 19.4434 104.908 18.2772 104.908 16.9315Z" fill="#CE2457"/>
<path d="M120.266 24.2H111.07V9.6665H119.792C121.309 9.6665 122.541 10.0254 123.489 10.6534C124.437 11.2814 124.816 12.2681 124.816 13.3447C124.816 14.0624 124.627 14.6904 124.247 15.2287C123.868 15.7669 123.394 16.2155 122.73 16.4847C124.816 17.0229 125.859 18.2789 125.859 20.2526C125.859 21.5085 125.385 22.4953 124.342 23.2131C123.394 23.841 122.066 24.2 120.266 24.2ZM114.578 12.2681V15.4978H118.939C119.697 15.4978 120.266 15.3184 120.739 15.0493C121.119 14.7801 121.403 14.3316 121.403 13.883C121.403 12.8065 120.645 12.2681 119.033 12.2681H114.578ZM114.578 18.0098V21.5983H119.602C120.456 21.5983 121.024 21.4188 121.498 21.1497C121.972 20.7908 122.162 20.432 122.162 19.804C122.162 19.2657 121.972 18.8171 121.498 18.4583C121.024 18.0995 120.36 18.0098 119.602 18.0098H114.578Z" fill="#CE2457"/>
<path d="M132.4 24.1917H129.082V9.6582H132.59V19.5266L141.217 9.6582H144.535V24.1917H141.028V14.3233L132.4 24.1917Z" fill="#CE2457"/>
<path d="M151.691 24.1917H148.184V9.6582H151.691V24.1917Z" fill="#CE2457"/>
<path d="M155.389 16.6571L162.416 24.1033H157.879L151.207 16.8365L157.435 9.74927H161.794L155.389 16.6571Z" fill="#CE2457"/>
</g>
<defs>
<clipPath id="clip0_914_1569">
<rect width="163" height="33.8701" fill="white"/>
</clipPath>
</defs>
</svg>
