<svg width="242" height="75" viewBox="0 0 242 75" fill="none" xmlns="http://www.w3.org/2000/svg">
<path d="M225.752 1.4707H210.563C205.971 1.4707 202.439 2.8836 200.32 7.4755L171.355 73.5283H191.842C191.842 73.5283 195.375 64.6977 196.081 62.5784C198.2 62.5784 218.334 62.5784 221.16 62.5784C221.866 65.0509 223.633 73.1751 223.633 73.1751H242L225.752 1.4707ZM201.733 47.743C203.499 43.5043 209.504 27.6092 209.504 27.6092C209.504 27.9625 211.27 23.3706 211.976 20.898L213.389 27.256C213.389 27.256 217.275 44.564 217.981 48.0962H201.733V47.743Z" fill="#3362AB"/>
<path d="M172.772 49.8634C172.772 64.6988 159.349 74.589 138.509 74.589C129.679 74.589 121.201 72.8229 116.609 70.7036L119.435 54.4553L121.908 55.515C128.266 58.3408 132.504 59.4004 140.275 59.4004C145.927 59.4004 151.932 57.2811 151.932 52.336C151.932 49.157 149.459 47.0376 141.688 43.5054C134.271 39.9731 124.38 34.3216 124.38 24.0781C124.38 9.94914 138.156 0.412109 157.583 0.412109C165.001 0.412109 171.359 1.825 175.244 3.59112L172.419 19.133L171.006 17.7201C167.474 16.3072 162.882 14.8943 156.17 14.8943C148.753 15.2475 145.22 18.4265 145.22 21.2523C145.22 24.4313 149.459 26.9039 156.17 30.0829C167.474 35.3812 172.772 41.386 172.772 49.8634Z" fill="#3362AB"/>
<path d="M0.402344 2.17852L0.755567 0.765625H31.1328C35.3715 0.765625 38.5505 2.17852 39.6101 6.77042L46.3214 38.5605C39.6101 21.6058 24.0683 7.83009 0.402344 2.17852Z" fill="#F9B50B"/>
<path d="M89.0638 1.47236L58.3334 73.1767H37.4932L19.832 13.1287C32.5481 21.2529 43.1448 33.9689 47.0302 42.7995L49.1496 50.2172L68.2236 1.11914H89.0638V1.47236Z" fill="#3362AB"/>
<path d="M97.1792 1.11914H116.607L104.244 73.1767H84.8164L97.1792 1.11914Z" fill="#3362AB"/>
</svg>
