<svg xmlns="http://www.w3.org/2000/svg" width="92" height="33" viewBox="0 0 92 33" fill="none">
<path fill-rule="evenodd" clip-rule="evenodd" d="M28.9015 27.9705C30.7069 28.4865 28.3843 22.0755 28.3843 22.0755C29.4186 18.9955 30.4428 8.48049 29.8002 5.27549C29.1575 2.06949 26.7476 2.18049 22.3193 1.30349C17.8117 0.403485 6.47501 -0.111515 4.01486 0.0204849C1.56978 0.147485 -0.227629 1.81049 0.0234059 5.15049C0.28147 8.48049 4.20364 20.8905 6.14866 23.9705C8.08665 27.0505 10.9515 26.5125 12.6605 26.3065C15.0042 26.0185 23.8265 23.9705 23.8265 23.9705C23.0373 22.9605 27.097 27.4545 28.9015 27.9705ZM17.0687 8.59049L18.6392 5.26649H23.3385L18.2014 15.0085V20.7485H12.8091V15.0085L9.93728 9.56249L7.66491 5.26649H12.3643L15.5012 11.8915L17.0687 8.59049Z" fill="#ED484A"/>
<path d="M38.2598 15.2036L39.7012 20.8813L43.1201 15.2036H46.2666L40.7207 23.5093L39.9473 28.0005H37.1084L37.9434 23.2368L35.3242 15.2124L38.2598 15.2036Z" fill="#ED484A"/>
<path d="M53.8252 25.7856L53.4385 28.0005H46.8115L47.1982 25.7856H53.8252ZM49.9932 15.2036L47.7695 28.0005H44.9834L47.1982 15.2036H49.9932ZM53.9043 20.354L53.5352 22.4985H47.7607L48.1387 20.354H53.9043ZM55.6621 15.2036L55.2754 17.4272H48.6396L49.0352 15.2036H55.6621Z" fill="#ED484A"/>
<path d="M63.291 25.7856L62.9043 28.0005H56.6201L57.0068 25.7856H63.291ZM59.8018 15.2036L57.5781 28.0005H54.792L57.0068 15.2036H59.8018Z" fill="#ED484A"/>
<path d="M72.748 25.7856L72.3613 28.0005H66.0771L66.4639 25.7856H72.748ZM69.2588 15.2036L67.0352 28.0005H64.249L66.4639 15.2036H69.2588Z" fill="#ED484A"/>
<path d="M78.3535 20.1802L81.1787 20.1855C81.6549 20.1927 82.09 20.2804 82.4839 20.4487C82.8813 20.6134 83.1911 20.8641 83.4131 21.2007C83.6351 21.5373 83.7282 21.9688 83.6924 22.4951C83.6602 22.9212 83.5599 23.2829 83.3916 23.5801C83.2269 23.8737 83.0049 24.1243 82.7256 24.332C82.4463 24.5361 82.1204 24.7152 81.748 24.8691L81.1411 25.1753H78.5684L78.7993 23.8164L80.561 23.8271C80.8081 23.8236 81.0319 23.7752 81.2324 23.6821C81.4329 23.589 81.5977 23.4565 81.7266 23.2847C81.8555 23.1092 81.936 22.8944 81.9683 22.6401C82.0005 22.4289 81.9897 22.2427 81.936 22.0815C81.8859 21.9204 81.791 21.7933 81.6514 21.7002C81.5153 21.6071 81.3398 21.5552 81.125 21.5444L79.8252 21.5391L78.7026 28.0005H77L78.3535 20.1802ZM81.2378 28.0005L80.1367 24.5254L81.8608 24.52L83.0586 27.9146L83.0532 28.0005H81.2378Z" fill="#ED484A"/>
<path d="M89.4072 20.1802H91.1099L90.2344 25.3096C90.1484 25.9004 89.9551 26.4071 89.6543 26.8296C89.3535 27.2521 88.9668 27.5744 88.4941 27.7964C88.0251 28.0148 87.4951 28.1204 86.9043 28.1133C86.3493 28.1025 85.8659 27.9844 85.4541 27.7588C85.0459 27.5296 84.7397 27.2074 84.5356 26.792C84.3351 26.3766 84.2671 25.8843 84.3315 25.3149L85.207 20.1802H86.915L86.0449 25.3203C86.0163 25.5745 86.0216 25.8091 86.061 26.0239C86.104 26.2388 86.2007 26.4124 86.3511 26.5449C86.5015 26.6774 86.7199 26.7472 87.0063 26.7544C87.3107 26.7651 87.5685 26.7096 87.7798 26.5879C87.991 26.4661 88.1576 26.2943 88.2793 26.0723C88.4046 25.8503 88.4888 25.5978 88.5317 25.3149L89.4072 20.1802Z" fill="#ED484A"/>
</svg>