<svg width="16" height="48" viewBox="0 0 16 48" fill="none" xmlns="http://www.w3.org/2000/svg">
<path d="M14.1891 37.5172L10.2219 36.9406L8.44844 33.3453C8.4 33.2469 8.32031 33.1672 8.22187 33.1188C7.975 32.9969 7.675 33.0984 7.55156 33.3453L5.77812 36.9406L1.81094 37.5172C1.70156 37.5328 1.60156 37.5844 1.525 37.6625C1.43244 37.7576 1.38143 37.8856 1.38319 38.0183C1.38495 38.1511 1.43933 38.2777 1.53437 38.3703L4.40469 41.1688L3.72656 45.1203C3.71066 45.2122 3.72083 45.3068 3.75592 45.3932C3.79102 45.4796 3.84963 45.5545 3.92511 45.6093C4.00059 45.6642 4.08992 45.6967 4.18297 45.7034C4.27602 45.71 4.36907 45.6904 4.45156 45.6469L8 43.7813L11.5484 45.6469C11.6453 45.6984 11.7578 45.7156 11.8656 45.6969C12.1375 45.65 12.3203 45.3922 12.2734 45.1203L11.5953 41.1688L14.4656 38.3703C14.5437 38.2938 14.5953 38.1938 14.6109 38.0844C14.6531 37.8109 14.4625 37.5578 14.1891 37.5172V37.5172Z" fill="#FD772B"/>
<path d="M14.1891 5.51719L10.2219 4.94063L8.44844 1.34531C8.4 1.24687 8.32031 1.16719 8.22187 1.11875C7.975 0.996875 7.675 1.09844 7.55156 1.34531L5.77812 4.94063L1.81094 5.51719C1.70156 5.53281 1.60156 5.58437 1.525 5.6625C1.43244 5.75764 1.38143 5.88563 1.38319 6.01835C1.38495 6.15107 1.43933 6.27766 1.53437 6.37031L4.40469 9.16875L3.72656 13.1203C3.71066 13.2122 3.72083 13.3068 3.75592 13.3932C3.79102 13.4796 3.84963 13.5545 3.92511 13.6093C4.00059 13.6642 4.08992 13.6967 4.18297 13.7034C4.27602 13.71 4.36907 13.6904 4.45156 13.6469L8 11.7812L11.5484 13.6469C11.6453 13.6984 11.7578 13.7156 11.8656 13.6969C12.1375 13.65 12.3203 13.3922 12.2734 13.1203L11.5953 9.16875L14.4656 6.37031C14.5437 6.29375 14.5953 6.19375 14.6109 6.08437C14.6531 5.81094 14.4625 5.55781 14.1891 5.51719V5.51719Z" fill="#E6E9EC"/>
<path d="M14.1891 21.5172L10.2219 20.9406L8.44844 17.3453C8.4 17.2469 8.32031 17.1672 8.22187 17.1187C7.975 16.9969 7.675 17.0984 7.55156 17.3453L5.77812 20.9406L1.81094 21.5172C1.70156 21.5328 1.60156 21.5844 1.525 21.6625C1.43244 21.7576 1.38143 21.8856 1.38319 22.0183C1.38495 22.1511 1.43933 22.2777 1.53437 22.3703L4.40469 25.1687L3.72656 29.1203C3.71066 29.2122 3.72083 29.3068 3.75592 29.3932C3.79102 29.4796 3.84963 29.5545 3.92511 29.6093C4.00059 29.6642 4.08992 29.6967 4.18297 29.7034C4.27602 29.71 4.36907 29.6904 4.45156 29.6469L8 27.7812L11.5484 29.6469C11.6453 29.6984 11.7578 29.7156 11.8656 29.6969C12.1375 29.65 12.3203 29.3922 12.2734 29.1203L11.5953 25.1687L14.4656 22.3703C14.5437 22.2938 14.5953 22.1937 14.6109 22.0844C14.6531 21.8109 14.4625 21.5578 14.1891 21.5172V21.5172Z" fill="#FDB12B"/>
</svg>
