<svg xmlns="http://www.w3.org/2000/svg" style="display: none;">

	<symbol id="phone" viewBox="0 0 18 20" fill="none">
		<path d="M16.1702 16.6025C16.0128 18.8944 11.686 19.8428 9.01127 18.1041C5.78584 15.8122 2.24573 10.5172 1.77372 6.48672C1.53771 3.7997 3.97645 0.638506 5.86451 1.03366C6.49386 1.19171 8.38192 5.85448 7.20188 6.64478C6.17919 7.35605 5.78584 7.27702 6.17919 8.46247C6.6512 10.0431 8.30325 12.572 9.56196 13.5994C10.5847 14.3897 10.6633 13.9946 11.7647 13.2043C13.1021 12.414 16.2488 16.2864 16.1702 16.6025Z" stroke="#85B73F" stroke-width="2" stroke-miterlimit="10" stroke-linecap="round" stroke-linejoin="round"/>
	</symbol>
	<symbol id="phone-arrow" viewBox="0 0 23 22">
		<path d="M16.1702 17.6025C16.0128 19.8944 11.686 20.8428 9.01127 19.1041C5.78584 16.8122 2.24573 11.5172 1.77372 7.48672C1.53771 4.7997 3.97645 1.63851 5.86451 2.03366C6.49386 2.19171 8.38192 6.85448 7.20188 7.64478C6.17919 8.35605 5.78584 8.27702 6.17919 9.46247C6.6512 11.0431 8.30325 13.572 9.56196 14.5994C10.5847 15.3897 10.6633 14.9946 11.7647 14.2043C13.1021 13.414 16.2488 17.2864 16.1702 17.6025Z" stroke="#85B73F" stroke-width="2" stroke-miterlimit="10" stroke-linecap="round" stroke-linejoin="round"/>
		<path d="M17.7059 12L14 9L17.7059 6M23 9L14.2647 9" stroke="#85B73F" stroke-width="2" stroke-linejoin="round"/>
	</symbol>
	<symbol id="location" viewBox="0 0 23 26">
		<path d="M4.77817 17.7782C1.03469 14.0347 1.03469 7.96531 4.77817 4.22183V4.22183C8.52166 0.478343 14.591 0.478343 18.3345 4.22183V4.22183C22.078 7.96531 22.078 14.0347 18.3345 17.7782L11.5563 24.5563L4.77817 17.7782Z" stroke="#85B73F" stroke-width="2"/>
		<path d="M8.77817 13.7782C7.24383 12.2438 7.24383 9.75617 8.77817 8.22183V8.22183C10.3125 6.68748 12.8002 6.68748 14.3345 8.22183V8.22183C15.8689 9.75617 15.8689 12.2438 14.3345 13.7782V13.7782C12.8002 15.3125 10.3125 15.3125 8.77817 13.7782V13.7782Z" stroke="#85B73F" stroke-width="2"/>
	</symbol>
	<symbol id="work" fill="none" viewBox="0 0 22 22">
		<path d="M11 6.11133V12.2224H14.6667" stroke="#85B73F" stroke-width="2"/>
		<rect x="1" y="1" width="20" height="20" rx="2" stroke="#85B73F" stroke-width="2" stroke-linecap="round" stroke-linejoin="round"/>
	</symbol>
	<symbol id="mail" viewBox="0 0 22 22">
		<rect x="1" y="3" width="20" height="16" rx="3" stroke="#85B73F" stroke-width="2" stroke-linecap="round" stroke-linejoin="round"/>
		<path d="M4 8L11 13L18 8" stroke="#85B73F" stroke-width="2" stroke-linecap="round" stroke-linejoin="round"/>
	</symbol>

	<symbol id="vk" viewBox="0 0 512 512">
		<path fill="#4c75a3" d="M256 0C114.615 0 0 114.615 0 256s114.615 256 256 256 256-114.615 256-256S397.385 0 256 0zm150.232 349.541-44.16.606s-9.499 1.886-21.962-6.737c-16.539-11.352-32.101-40.825-44.227-37.053s-11.924 30.316-11.924 30.316a14.63 14.63 0 0 1-2.728 8.691 16.844 16.844 0 0 1-9.027 3.941h-19.571s-43.789 2.594-82.021-37.356c-42.038-43.385-79.057-130.055-79.057-130.055s-2.18-5.027.202-8.421c2.059-2.934 7.137-3.249 9.701-3.368 11.053-.517 44.261-.303 44.261-.303 2.778-.069 4.645.077 8.084 1.583 2.956 1.461 5.198 3.637 6.636 7.141a316.737 316.737 0 0 0 17.752 37.053c19.739 34.122 28.935 41.566 35.638 37.928 9.735-5.322 6.737-48.202 6.737-48.202s0-15.596-4.918-22.501a22.195 22.195 0 0 0-14.585-7.646c-2.661-.371 1.718-6.535 7.377-9.297 8.488-4.177 23.512-4.177 41.229-4.177 7.797-.294 15.597.5 23.175 2.358 16.303 3.941 10.779 19.099 10.779 55.545 0 11.655-2.122 28.093 6.299 33.684 3.638 2.324 12.463.337 34.627-37.255a288.68 288.68 0 0 0 18.358-38.737 14.09 14.09 0 0 1 4.379-5.356 11.388 11.388 0 0 1 6.434-1.112l49.718-.337s14.922-1.785 17.347 4.985c2.425 6.771-5.592 23.579-25.903 50.526-33.347 44.463-37.053 40.421-9.364 65.987 26.442 24.556 31.933 36.514 32.842 37.996 10.979 18.125-12.128 19.573-12.128 19.573z"/>
	</symbol>
	<symbol id="youtube" viewBox="0 0 64 64">
		<path d="M48 33.208c0 2.59-.32 5.18-.32 5.18s-.312 2.204-1.272 3.176c-1.216 1.274-2.58 1.28-3.206 1.354-4.478.324-11.202.334-11.202.334s-8.32-.076-10.88-.32c-.712-.134-2.312-.094-3.528-1.368-.96-.972-1.272-3.176-1.272-3.176s-.32-2.59-.32-5.18V30.78c0-2.59.32-5.178.32-5.178s.312-2.206 1.272-3.178c1.216-1.274 2.58-1.28 3.206-1.354 4.478-.324 11.196-.324 11.196-.324h.012s6.718 0 11.196.324c.626.074 1.99.08 3.206 1.354.96.972 1.272 3.178 1.272 3.178S48 28.19 48 30.78zM32 0C14.326 0 0 14.326 0 32c0 17.672 14.326 32 32 32s32-14.328 32-32C64 14.326 49.674 0 32 0z" fill="#ea412c"/>
		<path d="m28.696 36.15 8.646-4.48-8.648-4.512z" fill="#ea412c"/>
	</symbol>
	<symbol id="yadzen" fill="currentColor" viewBox="0 0 50 50">
		<path fill="#000" d="M46.894 23.986c.004 0 .007 0 .011 0 .279 0 .545-.117.734-.322.192-.208.287-.487.262-.769C46.897 11.852 38.154 3.106 27.11 2.1c-.28-.022-.562.069-.77.262-.208.192-.324.463-.321.746C26.193 17.784 28.129 23.781 46.894 23.986zM46.894 26.014c-18.765.205-20.7 6.202-20.874 20.878-.003.283.113.554.321.746.186.171.429.266.679.266.03 0 .061-.001.091-.004 11.044-1.006 19.787-9.751 20.79-20.795.025-.282-.069-.561-.262-.769C47.446 26.128 47.177 26.025 46.894 26.014zM22.823 2.105C11.814 3.14 3.099 11.884 2.1 22.897c-.025.282.069.561.262.769.189.205.456.321.734.321.004 0 .008 0 .012 0 18.703-.215 20.634-6.209 20.81-20.875.003-.283-.114-.555-.322-.747C23.386 2.173 23.105 2.079 22.823 2.105zM3.107 26.013c-.311-.035-.555.113-.746.321-.192.208-.287.487-.262.769.999 11.013 9.715 19.757 20.724 20.792.031.003.063.004.094.004.25 0 .492-.094.678-.265.208-.192.325-.464.322-.747C23.741 32.222 21.811 26.228 3.107 26.013z"/>
	</symbol>

	<symbol id="chevron-left" fill="currentColor" viewBox="0 0 16 16">
		<path fill-rule="evenodd" d="M11.354 1.646a.5.5 0 0 1 0 .708L5.707 8l5.647 5.646a.5.5 0 0 1-.708.708l-6-6a.5.5 0 0 1 0-.708l6-6a.5.5 0 0 1 .708 0z"/>
	</symbol>

	<symbol id="chevron-right" fill="currentColor" viewBox="0 0 16 16">
		<path fill-rule="evenodd" d="M4.646 1.646a.5.5 0 0 1 .708 0l6 6a.5.5 0 0 1 0 .708l-6 6a.5.5 0 0 1-.708-.708L10.293 8 4.646 2.354a.5.5 0 0 1 0-.708z"/>
	</symbol>
	<symbol id="arrow-doble" fill="none" viewBox="0 0 22 23">
		<path d="M2 21.5C4.64052 17.5392 8.03922 14.1405 12 11.5C8.03922 8.85948 4.64052 5.46078 2 1.5" stroke="#85B73F" stroke-width="3"/>
		<path d="M9 21.5C11.6405 17.5392 15.0392 14.1405 19 11.5C15.0392 8.85948 11.6405 5.46078 9 1.5" stroke="#85B73F" stroke-width="3"/>
	</symbol>
	<symbol id="help" viewBox="0 0 15 15" fill="none">
		<circle cx="7.5" cy="7.5" r="6.5" stroke="#85B73F" stroke-width="2"/>
		<path d="M5.5 6V5.5C5.5 4.39543 6.39543 3.5 7.5 3.5V3.5C8.60457 3.5 9.5 4.39543 9.5 5.5V5.62132C9.5 6.18393 9.2765 6.7235 8.87868 7.12132L8.5 7.5C7.85971 8.14029 7.5 9.00871 7.5 9.91421V10M7.5 11V12" stroke="#85B73F" stroke-width="2"/>
	</symbol>


	<symbol id="trash" fill="currentColor" viewBox="0 0 16 16">
		<path d="M5.5 5.5A.5.5 0 0 1 6 6v6a.5.5 0 0 1-1 0V6a.5.5 0 0 1 .5-.5Zm2.5 0a.5.5 0 0 1 .5.5v6a.5.5 0 0 1-1 0V6a.5.5 0 0 1 .5-.5Zm3 .5a.5.5 0 0 0-1 0v6a.5.5 0 0 0 1 0V6Z"/>
		<path d="M14.5 3a1 1 0 0 1-1 1H13v9a2 2 0 0 1-2 2H5a2 2 0 0 1-2-2V4h-.5a1 1 0 0 1-1-1V2a1 1 0 0 1 1-1H6a1 1 0 0 1 1-1h2a1 1 0 0 1 1 1h3.5a1 1 0 0 1 1 1v1ZM4.118 4 4 4.059V13a1 1 0 0 0 1 1h6a1 1 0 0 0 1-1V4.059L11.882 4H4.118ZM2.5 3h11V2h-11v1Z"/>
	</symbol>
	<symbol id="star" fill="currentColor" viewBox="0 0 16 16">
		<path d="M3.612 15.443c-.386.198-.824-.149-.746-.592l.83-4.73L.173 6.765c-.329-.314-.158-.888.283-.95l4.898-.696L7.538.792c.197-.39.73-.39.927 0l2.184 4.327 4.898.696c.441.062.612.636.282.95l-3.522 3.356.83 4.73c.078.443-.36.79-.746.592L8 13.187l-4.389 2.256z"/>
	</symbol>
	

	<symbol id="x-lg" fill="currentColor" viewBox="0 0 16 16">
  		<path d="M2.146 2.854a.5.5 0 1 1 .708-.708L8 7.293l5.146-5.147a.5.5 0 0 1 .708.708L8.707 8l5.147 5.146a.5.5 0 0 1-.708.708L8 8.707l-5.146 5.147a.5.5 0 0 1-.708-.708L7.293 8 2.146 2.854Z"/>
	</symbol>

	<symbol id="success" fill="currentColor" viewBox="0 0 512 512">
		<path d="M500.12 177.14 424 131.47V16a8 8 0 0 0-8-8H96a8 8 0 0 0-8 8v115.47l-76.12 45.67A8 8 0 0 0 8 184v312a8 8 0 0 0 7.99 8h480.02a8 8 0 0 0 7.99-8V184a8 8 0 0 0-3.88-6.86ZM424 150.13 487.12 188 424 225.87ZM104 24h304v211.47l-152 91.2-152-91.2ZM88 150.13v75.74L24.88 188Zm-64 56 144.36 86.61L24 473.19ZM32.65 488 182.2 301.05l69.68 41.81a8.015 8.015 0 0 0 8.24 0l69.68-41.81L479.35 488ZM488 473.19 343.64 292.74 488 206.13Z"/>
		<path d="M136 56h72a8 8 0 0 0 0-16h-72a8 8 0 0 0 0 16ZM232 56h8a8 8 0 0 0 0-16h-8a8 8 0 0 0 0 16ZM136 88h104a8 8 0 0 0 0-16H136a8 8 0 0 0 0 16ZM408 464h-88a8 8 0 0 0 0 16h88a8 8 0 0 0 0-16ZM440 464h-8a8 8 0 0 0 0 16h8a8 8 0 0 0 0-16Z"/>
	</symbol>
	<symbol id="plus" viewBox="0 0 93.562 93.562">
		<path d="m87.952 41.17-36.386.11V5.61A5.598 5.598 0 0 0 45.956 0a5.598 5.598 0 0 0-5.61 5.61l.11 35.561H5.61A5.598 5.598 0 0 0 0 46.781a5.597 5.597 0 0 0 5.61 5.609h34.791v35.562a5.599 5.599 0 0 0 5.61 5.61 5.599 5.599 0 0 0 5.61-5.61V52.391h36.331a5.599 5.599 0 0 0 5.61-5.61 5.616 5.616 0 0 0-5.61-5.611z"/>
	</symbol>
	<symbol id="search" viewBox="0 0 512 512">
		<path d="M289.8 200.2h-49.3v-49.3c0-11.3-9.1-20.4-20.4-20.4-11.3 0-20.4 9.1-20.4 20.4v49.3h-49.3c-11.3 0-20.4 9.1-20.4 20.4 0 11.3 9.1 20.4 20.4 20.4h49.3v49.3c0 11.3 9.1 20.4 20.4 20.4 11.3 0 20.4-9.1 20.4-20.4V241h49.3c11.3 0 20.4-9.1 20.4-20.4 0-11.3-9.2-20.4-20.4-20.4z"/>
		<path d="M220.2 388.7C127.3 388.7 52 313.5 52 220.6S127.3 52.5 220.2 52.5s168.1 75.3 168.1 168.1S313 388.7 220.2 388.7zm274.8 78L381.7 353.4c29.7-36.1 47.6-82.4 47.6-132.8 0-115.5-93.6-209.2-209.2-209.2S11 105.1 11 220.6s93.6 209.2 209.2 209.2c50.4 0 96.6-17.8 132.7-47.5l113.3 113.3c5.2 5.3 21.1 7.9 28.9 0 7.9-8 7.9-20.9-.1-28.9z"/>
	</symbol>
	<symbol id="garanty" viewBox="0 0 80 81">
		<path fill-rule="evenodd" clip-rule="evenodd" d="M66.2269 2.35876V8.33354C66.2269 10.5427 68.0178 12.3335 70.2269 12.3335L76.2056 12.3335V14.3335L70.2269 14.3335C66.9132 14.3335 64.2269 11.6472 64.2269 8.33354V2.35876H66.2269ZM56.8314 19.0002H11.625V17.0002H56.8314V19.0002ZM67.1643 33.593H11.625V31.593H67.1643V33.593ZM43.9153 48.3335H11.625V46.3335H43.9153V48.3335Z"/>
        <path fill-rule="evenodd" clip-rule="evenodd" d="M52.6016 62H54.6016V77.7092L58.768 75.6086L62.9345 77.7092V62H64.9345V80.9574L58.768 77.8484L52.6016 80.9574V62Z"/>
        <path fill-rule="evenodd" clip-rule="evenodd" d="M0.292969 6.33337C0.292969 3.01967 2.97926 0.333374 6.29297 0.333374H64.306C65.9976 0.333374 67.6105 1.04738 68.7477 2.29959L75.6482 9.89783C76.651 11.002 77.2065 12.4401 77.2065 13.9316V60.3334C77.2065 63.6471 74.5202 66.3334 71.2065 66.3334H69.7484V64.3334H71.2065C73.4156 64.3334 75.2065 62.5425 75.2065 60.3334V13.9316C75.2065 12.9373 74.8361 11.9785 74.1676 11.2424L67.2672 3.64419C66.509 2.80938 65.4337 2.33337 64.306 2.33337H6.29297C4.08383 2.33337 2.29297 4.12424 2.29297 6.33337V60.3334C2.29297 62.5425 4.08383 64.3334 6.29297 64.3334H47.791V66.3334H6.29297C2.97926 66.3334 0.292969 63.6471 0.292969 60.3334V6.33337Z"/>
        <path fill-rule="evenodd" clip-rule="evenodd" d="M58.7691 45C54.0011 45 50.082 48.9992 50.082 54C50.082 59.0008 54.0011 63 58.7691 63C63.5371 63 67.4562 59.0008 67.4562 54C67.4562 48.9992 63.5371 45 58.7691 45ZM48.082 54C48.082 47.9551 52.8371 43 58.7691 43C64.7012 43 69.4562 47.9551 69.4562 54C69.4562 60.0449 64.7012 65 58.7691 65C52.8371 65 48.082 60.0449 48.082 54Z"/>
        <path fill-rule="evenodd" clip-rule="evenodd" d="M72.4059 44.6958L59.4173 58.1039L54.8242 53.3624L56.2607 51.9709L59.4173 55.2294L70.9694 43.3042L72.4059 44.6958Z"/>
    </symbol>
	<symbol id="delivery" viewBox="0 0 80 80">
		<path d="M45 8H3C1.346 8 0 9.346 0 11V55C0 56.654 1.346 58 3 58H45C46.654 58 48 56.654 48 55V11C48 9.346 46.654 8 45 8ZM46 55C46 55.55 45.55 56 45 56H3C2.45 56 2 55.55 2 55V11C2 10.45 2.45 10 3 10H45C45.55 10 46 10.45 46 11V55Z"/>
        <path d="M72.45 19.622C71.932 18.622 70.91 18 69.784 18H57C55.346 18 54 19.346 54 21V37C54 38.654 55.346 40 57 40H70C70.552 40 71 39.552 71 39C71 38.448 70.552 38 70 38H57C56.45 38 56 37.55 56 37V21C56 20.45 56.45 20 57 20H69.784C70.16 20 70.5 20.208 70.672 20.542L77.89 34.462C77.96 34.598 78 34.756 78 34.916V55C78 55.55 77.55 56 77 56H54C53.448 56 53 56.448 53 57C53 57.552 53.448 58 54 58H77C78.654 58 80 56.654 80 55V34.916C80 34.434 79.882 33.956 79.664 33.536L72.45 19.622Z"/>
        <path d="M40 36H10C9.448 36 9 36.448 9 37C9 37.552 9.448 38 10 38H40C40.552 38 41 37.552 41 37C41 36.448 40.552 36 40 36Z"/>
        <path d="M73 62C72.448 62 72 62.448 72 63C72 66.86 68.86 70 65 70C61.14 70 58 66.86 58 63C58 62.448 57.552 62 57 62C56.448 62 56 62.448 56 63C56 67.962 60.038 72 65 72C69.962 72 74 67.962 74 63C74 62.448 73.552 62 73 62Z"/>
        <path d="M23 62C22.448 62 22 62.448 22 63C22 66.86 18.86 70 15 70C11.14 70 8 66.86 8 63C8 62.448 7.552 62 7 62C6.448 62 6 62.448 6 63C6 67.962 10.038 72 15 72C19.962 72 24 67.962 24 63C24 62.448 23.552 62 23 62Z"/>
    </symbol>
	<symbol id="download" viewBox="0 0 24 24">
	    <path d="M18 15V18H6V15H4V18C4 19.1 4.9 20 6 20H18C19.1 20 20 19.1 20 18V15H18ZM17 11L15.59 9.59L13 12.17V4H11V12.17L8.41 9.59L7 11L12 16L17 11Z"/>
	</symbol>
	<symbol id="file-plus" viewBox="0 0 32 32">
       <path d="M25.3346 17.3307H17.3346V25.3307H14.668V17.3307H6.66797V14.6641H14.668V6.66406H17.3346V14.6641H25.3346V17.3307Z"/>
     </symbol>
	<symbol  id="callback-icon" viewBox="0 0 98 98">
       <path fill-rule="evenodd" clip-rule="evenodd" d="M21.2671 25L1.72301 36.2891L0.722656 34.5572L20.3828 23.2011C20.6109 23.0694 20.8696 23 21.133 23H75.8671C76.1264 23 76.3814 23.0672 76.607 23.1952L96.7897 34.6398L95.8032 36.3795L75.7352 25H21.2671Z" />
       <path d="M16 2C16 0.895432 16.8954 0 18 0H80C81.1046 0 82 0.895431 82 2V74C82 75.1046 81.1046 76 80 76H18C16.8954 76 16 75.1046 16 74V2Z" fill="white"/>
       <path fill-rule="evenodd" clip-rule="evenodd" d="M80 2H18L18 74H80V2ZM18 0C16.8954 0 16 0.895432 16 2V74C16 75.1046 16.8954 76 18 76H80C81.1046 76 82 75.1046 82 74V2C82 0.895431 81.1046 0 80 0H18Z" />
       <path fill-rule="evenodd" clip-rule="evenodd" d="M96 36.0001L93.0672 34.0001L3.71084 34L2 36.0001L2 96.0001H96V36.0001ZM2 34.0001C0.895431 34.0001 0 34.8955 0 36.0001V96.0001C0 97.1046 0.89543 98.0001 2 98.0001H96C97.1046 98.0001 98 97.1046 98 96.0001V36.0001C98 34.8955 97.1046 34.0001 96 34.0001H2Z"/>
       <path fill-rule="evenodd" clip-rule="evenodd" d="M80 2H18L18 74H80V2ZM18 0C16.8954 0 16 0.895432 16 2V74C16 75.1046 16.8954 76 18 76H80C81.1046 76 82 75.1046 82 74V2C82 0.895431 81.1046 0 80 0H18Z" />
       <path d="M96.0181 77.4556H48.9023L48.9026 65.2171L96.0181 36.5461V77.4556Z" fill="white"/>
       <path d="M2.13037 77.4556H49.2461L49.2459 65.2171L2.13037 36.5461V77.4556Z" fill="white"/>
       <path fill-rule="evenodd" clip-rule="evenodd" d="M65.0394 55.7594L97.2945 35.9929L96.2495 34.2876L63.0265 54.6473L63.0229 54.6495L48.9952 63.3264L1.97464 34.6618L0.933594 36.3695L48.2163 65.194C48.6988 65.4881 49.3056 65.4861 49.7862 65.1889L63.3227 56.8158L95.9978 97.5356L97.5577 96.2839L65.0394 55.7594Z" />
       <path fill-rule="evenodd" clip-rule="evenodd" d="M0.40625 96.0812L33.2199 55.3723L34.777 56.6274L1.96338 97.3363L0.40625 96.0812Z"/>
       <path fill-rule="evenodd" clip-rule="evenodd" d="M41 6.31274C41 6.76161 40.6361 7.12549 40.1873 7.12549H21.8127C21.3639 7.12549 21 6.76161 21 6.31274C21 5.86388 21.3639 5.5 21.8127 5.5H40.1873C40.6361 5.5 41 5.86388 41 6.31274Z"/>
       <path fill-rule="evenodd" clip-rule="evenodd" d="M46.5 6.31274C46.5 6.76161 46.1361 7.12549 45.6873 7.12549H43.8127C43.3639 7.12549 43 6.76161 43 6.31274C43 5.86388 43.3639 5.5 43.8127 5.5H45.6873C46.1361 5.5 46.5 5.86388 46.5 6.31274Z"/>
       <path fill-rule="evenodd" clip-rule="evenodd" d="M46.5 9.32019C46.5 9.77317 46.1328 10.1404 45.6798 10.1404H21.8202C21.3672 10.1404 21 9.77317 21 9.32019C21 8.86721 21.3672 8.5 21.8202 8.5H45.6798C46.1328 8.5 46.5 8.86721 46.5 9.32019Z"/>
       <path fill-rule="evenodd" clip-rule="evenodd" d="M85 93.8162C85 94.1938 84.6938 94.5 84.3162 94.5H65.6838C65.3062 94.5 65 94.1938 65 93.8162C65 93.4385 65.3062 93.1323 65.6838 93.1323H84.3162C84.6938 93.1323 85 93.4385 85 93.8162Z"/>
       <path fill-rule="evenodd" clip-rule="evenodd" d="M90.5 93.8162C90.5 94.1938 90.1938 94.5 89.8162 94.5H87.6838C87.3062 94.5 87 94.1938 87 93.8162C87 93.4385 87.3062 93.1323 87.6838 93.1323H89.8162C90.1938 93.1323 90.5 93.4385 90.5 93.8162Z"/>
   </symbol>
    <symbol id="btn-prev" fill="none" viewBox="0 0 21 23" >
    <path d="M14 1.06836C12.0974 3.92224 9.80119 6.48431 7.18471 8.68121M14 21.0684C11.3595 17.1076 7.96078 13.7089 4 11.0684L10 11.0684C13.9608 13.7089 17.3595 17.1076 20 21.0684M20 1.06836C18.0974 3.92225 15.8012 6.48431 13.1847 8.68121" stroke-width="2"/>
        </symbol>
	<symbol id="btn-next" fill="none" viewBox="0 0 21 23" >
        <path d="M7.5 1.06836C9.40259 3.92224 11.6988 6.48431 14.3153 8.68121M7.5 21.0684C10.1405 17.1076 13.5392 13.7089 17.5 11.0684L11.5 11.0684C7.53922 13.7089 4.14052 17.1076 1.5 21.0684M1.5 1.06836C3.40259 3.92225 5.69881 6.48431 8.31529 8.68121" stroke-width="2"/>
	</symbol>
</svg>