<svg width="253" height="253" viewBox="0 0 253 253" fill="none" xmlns="http://www.w3.org/2000/svg">
<circle opacity="0.6" cx="126.5" cy="126.5" r="126.5" fill="#333333"/>
<path d="M97.4786 147.128C96.6252 147.128 95.8359 146.989 95.1106 146.712C94.3959 146.424 93.7719 146.024 93.2386 145.512C92.7159 144.989 92.3052 144.381 92.0066 143.688C91.7079 142.995 91.5586 142.232 91.5586 141.4C91.5586 140.568 91.7079 139.805 92.0066 139.112C92.3052 138.419 92.7212 137.816 93.2546 137.304C93.7879 136.781 94.4119 136.381 95.1266 136.104C95.8519 135.816 96.6412 135.672 97.4946 135.672C98.3586 135.672 99.1532 135.821 99.8786 136.12C100.615 136.408 101.239 136.84 101.751 137.416L100.711 138.424C100.284 137.976 99.8039 137.645 99.2706 137.432C98.7372 137.208 98.1666 137.096 97.5586 137.096C96.9292 137.096 96.3426 137.203 95.7986 137.416C95.2652 137.629 94.8012 137.928 94.4066 138.312C94.0119 138.696 93.7026 139.155 93.4786 139.688C93.2652 140.211 93.1586 140.781 93.1586 141.4C93.1586 142.019 93.2652 142.595 93.4786 143.128C93.7026 143.651 94.0119 144.104 94.4066 144.488C94.8012 144.872 95.2652 145.171 95.7986 145.384C96.3426 145.597 96.9292 145.704 97.5586 145.704C98.1666 145.704 98.7372 145.597 99.2706 145.384C99.8039 145.16 100.284 144.819 100.711 144.36L101.751 145.368C101.239 145.944 100.615 146.381 99.8786 146.68C99.1532 146.979 98.3532 147.128 97.4786 147.128ZM103.955 147V135.8H105.267L110.291 144.264H109.587L114.547 135.8H115.859L115.875 147H114.339L114.323 138.216H114.691L110.275 145.64H109.539L105.091 138.216H105.491V147H103.955ZM124.401 147.128C123.548 147.128 122.753 146.984 122.017 146.696C121.292 146.408 120.663 146.008 120.129 145.496C119.596 144.973 119.18 144.365 118.881 143.672C118.583 142.979 118.433 142.221 118.433 141.4C118.433 140.579 118.583 139.821 118.881 139.128C119.18 138.435 119.596 137.832 120.129 137.32C120.663 136.797 121.292 136.392 122.017 136.104C122.743 135.816 123.537 135.672 124.401 135.672C125.255 135.672 126.039 135.816 126.753 136.104C127.479 136.381 128.108 136.781 128.641 137.304C129.185 137.816 129.601 138.419 129.889 139.112C130.188 139.805 130.337 140.568 130.337 141.4C130.337 142.232 130.188 142.995 129.889 143.688C129.601 144.381 129.185 144.989 128.641 145.512C128.108 146.024 127.479 146.424 126.753 146.712C126.039 146.989 125.255 147.128 124.401 147.128ZM124.401 145.704C125.02 145.704 125.591 145.597 126.113 145.384C126.647 145.171 127.105 144.872 127.489 144.488C127.884 144.093 128.188 143.635 128.401 143.112C128.625 142.589 128.737 142.019 128.737 141.4C128.737 140.781 128.625 140.211 128.401 139.688C128.188 139.165 127.884 138.712 127.489 138.328C127.105 137.933 126.647 137.629 126.113 137.416C125.591 137.203 125.02 137.096 124.401 137.096C123.772 137.096 123.191 137.203 122.657 137.416C122.135 137.629 121.676 137.933 121.281 138.328C120.887 138.712 120.577 139.165 120.353 139.688C120.14 140.211 120.033 140.781 120.033 141.4C120.033 142.019 120.14 142.589 120.353 143.112C120.577 143.635 120.887 144.093 121.281 144.488C121.676 144.872 122.135 145.171 122.657 145.384C123.191 145.597 123.772 145.704 124.401 145.704ZM135.055 147V136.776L135.455 137.192H131.231V135.8H140.463V137.192H136.239L136.623 136.776V147H135.055ZM142.408 147V135.8H146.776C147.757 135.8 148.595 135.955 149.288 136.264C149.981 136.573 150.515 137.021 150.888 137.608C151.261 138.195 151.448 138.893 151.448 139.704C151.448 140.515 151.261 141.213 150.888 141.8C150.515 142.376 149.981 142.824 149.288 143.144C148.595 143.453 147.757 143.608 146.776 143.608H143.288L144.008 142.856V147H142.408ZM144.008 143.016L143.288 142.216H146.728C147.752 142.216 148.525 141.997 149.048 141.56C149.581 141.123 149.848 140.504 149.848 139.704C149.848 138.904 149.581 138.285 149.048 137.848C148.525 137.411 147.752 137.192 146.728 137.192H143.288L144.008 136.392V143.016ZM155.13 140.632H160.89V141.992H155.13V140.632ZM155.274 145.608H161.802V147H153.674V135.8H161.578V137.192H155.274V145.608ZM166.602 147V136.776L167.002 137.192H162.778V135.8H172.01V137.192H167.786L168.17 136.776V147H166.602ZM178.867 139.704C180.19 139.704 181.208 140.003 181.923 140.6C182.638 141.187 182.995 142.067 182.995 143.24C182.995 144.477 182.606 145.416 181.827 146.056C181.059 146.685 179.976 147 178.579 147H173.955V135.8H175.539V139.704H178.867ZM178.515 145.736C179.443 145.736 180.152 145.528 180.643 145.112C181.144 144.696 181.395 144.083 181.395 143.272C181.395 142.483 181.15 141.901 180.659 141.528C180.168 141.155 179.454 140.968 178.515 140.968H175.539V145.736H178.515ZM92.4706 167V155.8H97.2866C98.5026 155.8 99.4572 156.045 100.151 156.536C100.844 157.027 101.191 157.741 101.191 158.68C101.191 159.597 100.86 160.301 100.199 160.792C99.5372 161.272 98.6679 161.512 97.5906 161.512L97.8786 161.032C99.1266 161.032 100.081 161.283 100.743 161.784C101.415 162.275 101.751 162.995 101.751 163.944C101.751 164.904 101.399 165.656 100.695 166.2C100.001 166.733 98.9666 167 97.5906 167H92.4706ZM94.0546 165.736H97.5586C98.4119 165.736 99.0519 165.581 99.4786 165.272C99.9159 164.952 100.135 164.467 100.135 163.816C100.135 163.165 99.9159 162.691 99.4786 162.392C99.0519 162.093 98.4119 161.944 97.5586 161.944H94.0546V165.736ZM94.0546 160.728H97.1746C97.9532 160.728 98.5452 160.573 98.9506 160.264C99.3666 159.955 99.5746 159.501 99.5746 158.904C99.5746 158.296 99.3666 157.837 98.9506 157.528C98.5452 157.219 97.9532 157.064 97.1746 157.064H94.0546V160.728ZM104.424 167V155.8H106.008V164.44L112.632 155.8H114.104V167H112.536V158.376L105.896 167H104.424ZM124.895 166.248V157.192H119.983L119.903 159.544C119.871 160.333 119.818 161.091 119.743 161.816C119.679 162.541 119.583 163.197 119.455 163.784C119.327 164.36 119.146 164.835 118.911 165.208C118.687 165.581 118.399 165.811 118.047 165.896L116.319 165.608C116.735 165.64 117.076 165.501 117.343 165.192C117.62 164.872 117.834 164.429 117.983 163.864C118.143 163.288 118.26 162.621 118.335 161.864C118.41 161.096 118.463 160.275 118.495 159.4L118.607 155.8H126.479V166.248H124.895ZM115.919 169.448L115.935 165.608H128.127V169.448H126.639V167H117.423L117.407 169.448H115.919ZM131.77 160.632H137.53V161.992H131.77V160.632ZM131.914 165.608H138.442V167H130.314V155.8H138.218V157.192H131.914V165.608ZM145.979 167.128C145.126 167.128 144.331 166.984 143.595 166.696C142.87 166.408 142.241 166.008 141.707 165.496C141.174 164.973 140.758 164.365 140.459 163.672C140.161 162.979 140.011 162.221 140.011 161.4C140.011 160.579 140.161 159.821 140.459 159.128C140.758 158.435 141.174 157.832 141.707 157.32C142.241 156.797 142.87 156.392 143.595 156.104C144.321 155.816 145.115 155.672 145.979 155.672C146.833 155.672 147.617 155.816 148.331 156.104C149.057 156.381 149.686 156.781 150.219 157.304C150.763 157.816 151.179 158.419 151.467 159.112C151.766 159.805 151.915 160.568 151.915 161.4C151.915 162.232 151.766 162.995 151.467 163.688C151.179 164.381 150.763 164.989 150.219 165.512C149.686 166.024 149.057 166.424 148.331 166.712C147.617 166.989 146.833 167.128 145.979 167.128ZM145.979 165.704C146.598 165.704 147.169 165.597 147.691 165.384C148.225 165.171 148.683 164.872 149.067 164.488C149.462 164.093 149.766 163.635 149.979 163.112C150.203 162.589 150.315 162.019 150.315 161.4C150.315 160.781 150.203 160.211 149.979 159.688C149.766 159.165 149.462 158.712 149.067 158.328C148.683 157.933 148.225 157.629 147.691 157.416C147.169 157.203 146.598 157.096 145.979 157.096C145.35 157.096 144.769 157.203 144.235 157.416C143.713 157.629 143.254 157.933 142.859 158.328C142.465 158.712 142.155 159.165 141.931 159.688C141.718 160.211 141.611 160.781 141.611 161.4C141.611 162.019 141.718 162.589 141.931 163.112C142.155 163.635 142.465 164.093 142.859 164.488C143.254 164.872 143.713 165.171 144.235 165.384C144.769 165.597 145.35 165.704 145.979 165.704Z" fill="white"/>
<path d="M83 142.67C73.6667 148.059 69 150.753 65.5 148.732C62 146.712 62 141.323 62 130.546V96.8574C62 86.0802 62 80.6916 65.5 78.6709C69 76.6502 73.6667 79.3445 83 84.7331L112.175 101.577C121.508 106.966 126.175 109.66 126.175 113.702C126.175 117.743 121.508 120.437 112.175 125.826" stroke="#85B73F"/>
</svg>
