<svg width="123" height="123" viewBox="0 0 123 123" fill="none" xmlns="http://www.w3.org/2000/svg">
<circle opacity="0.6" cx="61.5" cy="61.5" r="61.5" fill="#333333"/>
<path d="M38.7256 69.8278C37.807 69.8278 36.975 69.6284 36.2296 69.2298C35.493 68.8224 34.9123 68.2634 34.4876 67.5528C34.0716 66.8421 33.8636 66.0404 33.8636 65.1478C33.8636 64.2551 34.076 63.4534 34.5006 62.7428C34.9253 62.0321 35.506 61.4774 36.2426 61.0788C36.988 60.6714 37.82 60.4678 38.7386 60.4678C39.484 60.4678 40.1643 60.5978 40.7796 60.8578C41.395 61.1178 41.915 61.4948 42.3396 61.9888L41.2476 63.0158C40.589 62.3051 39.7786 61.9498 38.8166 61.9498C38.1926 61.9498 37.6336 62.0884 37.1396 62.3658C36.6456 62.6344 36.26 63.0114 35.9826 63.4968C35.7053 63.9821 35.5666 64.5324 35.5666 65.1478C35.5666 65.7631 35.7053 66.3134 35.9826 66.7988C36.26 67.2841 36.6456 67.6654 37.1396 67.9428C37.6336 68.2114 38.1926 68.3458 38.8166 68.3458C39.7786 68.3458 40.589 67.9861 41.2476 67.2668L42.3396 68.3068C41.915 68.8008 41.3906 69.1778 40.7666 69.4378C40.1513 69.6978 39.471 69.8278 38.7256 69.8278ZM52.2678 69.6978L52.2548 63.6658L49.2648 68.6578H48.5108L45.5208 63.7438V69.6978H43.9218V60.5978H45.3128L48.9138 66.6168L52.4758 60.5978H53.8538L53.8798 69.6978H52.2678ZM60.6383 69.8278C59.711 69.8278 58.8747 69.6284 58.1293 69.2298C57.384 68.8224 56.799 68.2634 56.3743 67.5528C55.9497 66.8334 55.7373 66.0318 55.7373 65.1478C55.7373 64.2638 55.9497 63.4664 56.3743 62.7558C56.799 62.0364 57.384 61.4774 58.1293 61.0788C58.8747 60.6714 59.711 60.4678 60.6383 60.4678C61.5657 60.4678 62.402 60.6714 63.1473 61.0788C63.8927 61.4774 64.4777 62.0321 64.9023 62.7428C65.327 63.4534 65.5393 64.2551 65.5393 65.1478C65.5393 66.0404 65.327 66.8421 64.9023 67.5528C64.4777 68.2634 63.8927 68.8224 63.1473 69.2298C62.402 69.6284 61.5657 69.8278 60.6383 69.8278ZM60.6383 68.3458C61.245 68.3458 61.791 68.2114 62.2763 67.9428C62.7617 67.6654 63.143 67.2841 63.4203 66.7988C63.6977 66.3048 63.8363 65.7544 63.8363 65.1478C63.8363 64.5411 63.6977 63.9951 63.4203 63.5098C63.143 63.0158 62.7617 62.6344 62.2763 62.3658C61.791 62.0884 61.245 61.9498 60.6383 61.9498C60.0317 61.9498 59.4857 62.0884 59.0003 62.3658C58.515 62.6344 58.1337 63.0158 57.8563 63.5098C57.579 63.9951 57.4403 64.5411 57.4403 65.1478C57.4403 65.7544 57.579 66.3048 57.8563 66.7988C58.1337 67.2841 58.515 67.6654 59.0003 67.9428C59.4857 68.2114 60.0317 68.3458 60.6383 68.3458ZM73.8848 62.0278H70.8688V69.6978H69.1918V62.0278H66.1888V60.5978H73.8848V62.0278ZM79.0864 60.5978C79.875 60.5978 80.5597 60.7278 81.1404 60.9878C81.7297 61.2478 82.1804 61.6204 82.4924 62.1058C82.8044 62.5911 82.9604 63.1674 82.9604 63.8348C82.9604 64.4934 82.8044 65.0698 82.4924 65.5638C82.1804 66.0491 81.7297 66.4218 81.1404 66.6818C80.5597 66.9418 79.875 67.0718 79.0864 67.0718H77.0324V69.6978H75.3424V60.5978H79.0864ZM79.0084 65.6418C79.745 65.6418 80.304 65.4858 80.6854 65.1738C81.0667 64.8618 81.2574 64.4154 81.2574 63.8348C81.2574 63.2541 81.0667 62.8078 80.6854 62.4958C80.304 62.1838 79.745 62.0278 79.0084 62.0278H77.0324V65.6418H79.0084ZM91.3842 68.2808V69.6978H84.5592V60.5978H91.2022V62.0148H86.2492V64.3808H90.6432V65.7718H86.2492V68.2808H91.3842ZM99.8721 62.0278H96.8561V69.6978H95.1791V62.0278H92.1761V60.5978H99.8721V62.0278ZM105.529 63.6788C106.621 63.6788 107.457 63.9258 108.038 64.4198C108.627 64.9051 108.922 65.6288 108.922 66.5908C108.922 67.5961 108.601 68.3674 107.96 68.9048C107.318 69.4334 106.417 69.6978 105.256 69.6978H101.343V60.5978H103.007V63.6788H105.529ZM105.178 68.3978C105.836 68.3978 106.343 68.2461 106.699 67.9428C107.054 67.6394 107.232 67.1974 107.232 66.6168C107.232 65.5161 106.547 64.9658 105.178 64.9658H103.007V68.3978H105.178ZM40.5326 78.9658C41.1133 79.1218 41.5553 79.3904 41.8586 79.7718C42.162 80.1444 42.3136 80.6124 42.3136 81.1758C42.3136 81.9731 42.019 82.5928 41.4296 83.0348C40.8403 83.4768 39.9866 83.6978 38.8686 83.6978H34.5526V74.5978H38.6216C39.6443 74.5978 40.4416 74.8014 41.0136 75.2088C41.5856 75.6161 41.8716 76.1924 41.8716 76.9378C41.8716 77.4144 41.7546 77.8261 41.5206 78.1728C41.2953 78.5194 40.966 78.7838 40.5326 78.9658ZM36.2166 78.4848H38.4786C39.0246 78.4848 39.4406 78.3764 39.7266 78.1598C40.0126 77.9431 40.1556 77.6224 40.1556 77.1978C40.1556 76.7731 40.0126 76.4524 39.7266 76.2358C39.4406 76.0104 39.0246 75.8978 38.4786 75.8978H36.2166V78.4848ZM38.8166 82.3978C40.0126 82.3978 40.6106 81.9471 40.6106 81.0458C40.6106 80.1618 40.0126 79.7198 38.8166 79.7198H36.2166V82.3978H38.8166ZM44.2518 74.5978H45.9158V81.0588L50.8038 74.5978H52.3768V83.6978H50.7128V77.2498L45.8248 83.6978H44.2518V74.5978ZM63.8614 82.2678V85.6348H62.3014V83.6978H55.3204V85.6348H53.7474L53.7604 82.2678H54.1504C54.7224 82.2418 55.1211 81.8214 55.3464 81.0068C55.5804 80.1834 55.7234 79.0091 55.7754 77.4838L55.8794 74.5978H62.5484V82.2678H63.8614ZM57.2574 77.6398C57.2141 78.8184 57.1188 79.8021 56.9714 80.5908C56.8241 81.3708 56.5901 81.9298 56.2694 82.2678H60.8844V76.0278H57.3224L57.2574 77.6398ZM72.2777 82.2808V83.6978H65.4527V74.5978H72.0957V76.0148H67.1427V78.3808H71.5367V79.7718H67.1427V82.2808H72.2777ZM78.3737 83.8278C77.4464 83.8278 76.61 83.6284 75.8647 83.2298C75.1194 82.8224 74.5344 82.2634 74.1097 81.5528C73.685 80.8334 73.4727 80.0318 73.4727 79.1478C73.4727 78.2638 73.685 77.4664 74.1097 76.7558C74.5344 76.0364 75.1194 75.4774 75.8647 75.0788C76.61 74.6714 77.4464 74.4678 78.3737 74.4678C79.301 74.4678 80.1374 74.6714 80.8827 75.0788C81.628 75.4774 82.213 76.0321 82.6377 76.7428C83.0624 77.4534 83.2747 78.2551 83.2747 79.1478C83.2747 80.0404 83.0624 80.8421 82.6377 81.5528C82.213 82.2634 81.628 82.8224 80.8827 83.2298C80.1374 83.6284 79.301 83.8278 78.3737 83.8278ZM78.3737 82.3458C78.9804 82.3458 79.5264 82.2114 80.0117 81.9428C80.497 81.6654 80.8784 81.2841 81.1557 80.7988C81.433 80.3048 81.5717 79.7544 81.5717 79.1478C81.5717 78.5411 81.433 77.9951 81.1557 77.5098C80.8784 77.0158 80.497 76.6344 80.0117 76.3658C79.5264 76.0884 78.9804 75.9498 78.3737 75.9498C77.767 75.9498 77.221 76.0884 76.7357 76.3658C76.2504 76.6344 75.869 77.0158 75.5917 77.5098C75.3144 77.9951 75.1757 78.5411 75.1757 79.1478C75.1757 79.7544 75.3144 80.3048 75.5917 80.7988C75.869 81.2841 76.2504 81.6654 76.7357 81.9428C77.221 82.2114 77.767 82.3458 78.3737 82.3458Z" fill="white"/>
<path d="M29.9229 64.7485C25.8834 67.0807 23.8636 68.2468 22.3488 67.3722C20.834 66.4976 20.834 64.1654 20.834 59.501V44.9204C20.834 40.256 20.834 37.9237 22.3488 37.0492C23.8636 36.1746 25.8834 37.3407 29.9229 39.6729L42.55 46.9632C46.5896 49.2954 48.6093 50.4615 48.6093 52.2107C48.6093 53.9599 46.5896 55.126 42.55 57.4582" stroke="#85B73F" stroke-width="2"/>
</svg>
