<svg width="36" height="23" viewBox="0 0 36 23" fill="none" xmlns="http://www.w3.org/2000/svg">
<path d="M7.67035 21.4001C9.61439 21.4001 11.1904 19.8241 11.1904 17.8801C11.1904 15.9361 9.61439 14.3601 7.67035 14.3601C5.72631 14.3601 4.15039 15.9361 4.15039 17.8801C4.15039 19.8241 5.72631 21.4001 7.67035 21.4001Z" stroke="#85B73F" stroke-width="2" stroke-miterlimit="10" stroke-linecap="round" stroke-linejoin="round"/>
<path d="M27.5708 21.4001C29.5148 21.4001 31.0908 19.8241 31.0908 17.8801C31.0908 15.9361 29.5148 14.3601 27.5708 14.3601C25.6268 14.3601 24.0508 15.9361 24.0508 17.8801C24.0508 19.8241 25.6268 21.4001 27.5708 21.4001Z" stroke="#85B73F" stroke-width="2" stroke-miterlimit="10" stroke-linecap="round" stroke-linejoin="round"/>
<path d="M12.6406 18H22.8406" stroke="#85B73F" stroke-width="2" stroke-miterlimit="10" stroke-linecap="round" stroke-linejoin="round"/>
<path d="M25.4892 4H21.2092C21.0592 4 20.9492 4.12001 20.9492 4.26001V8.74002C20.9492 8.89002 21.0692 9 21.2092 9H28.6992" stroke="#85B73F" stroke-width="2" stroke-miterlimit="10" stroke-linecap="round" stroke-linejoin="round"/>
<path d="M32.55 18C32.55 18 32.55 18 33.52 18C34.06 18 34.49 17.57 34.49 17.03V13.43C34.49 12.27 33.79 11.24 32.72 10.81L29.68 9.59C29.46 9.5 29.27 9.34 29.15 9.13L24.94 1.97C24.59 1.37 23.94 1 23.25 1H17.99C17.45 1 17.02 1.43 17.02 1.97V11.19H1V11.47V17.01C1 17.55 1.42997 17.98 1.96997 17.98C2.93997 17.98 2.94 17.98 2.94 17.98" stroke="#85B73F" stroke-width="2" stroke-miterlimit="10" stroke-linecap="round" stroke-linejoin="round"/>
<path d="M17 5H3V11" stroke="#85B73F" stroke-width="2" stroke-miterlimit="10" stroke-linecap="round" stroke-linejoin="round"/>
</svg>
