<svg width="207" height="107" viewBox="0 0 207 107" fill="none" xmlns="http://www.w3.org/2000/svg">
<g clip-path="url(#clip0_337_2902)">
<path d="M37.5939 56.2119H2.5175C2.10709 56.2119 1.70589 56.0904 1.36464 55.8629C1.02339 55.6353 0.75742 55.3119 0.600361 54.9334C0.443301 54.555 0.40221 54.1386 0.482285 53.7368C0.562359 53.3351 0.760002 52.9661 1.05022 52.6764C1.43952 52.2884 1.96714 52.0699 2.5175 52.0699H37.5939C38.1442 52.0699 38.6719 52.2884 39.0611 52.6764C39.3514 52.9661 39.549 53.3351 39.6291 53.7368C39.7092 54.1386 39.6681 54.555 39.511 54.9334C39.354 55.3119 39.088 55.6353 38.7467 55.8629C38.4055 56.0904 38.0043 56.2119 37.5939 56.2119ZM39.6688 3.55011C39.6722 3.68702 39.6477 3.82318 39.5967 3.95034C39.5458 4.0775 39.4695 4.193 39.3725 4.28984C39.2755 4.38667 39.1597 4.46282 39.0323 4.51366C38.9049 4.56451 38.7685 4.58898 38.6313 4.5856H36.5564C36.2816 4.5843 36.0185 4.47479 35.8242 4.28088C35.63 4.08697 35.5202 3.82434 35.5189 3.55011V1.42984C35.5155 1.29293 35.5401 1.15677 35.591 1.02961C35.6419 0.902447 35.7182 0.786944 35.8153 0.690108C35.9123 0.593272 36.028 0.517123 36.1554 0.466282C36.2828 0.415441 36.4192 0.390969 36.5564 0.394351H38.6807C38.8179 0.390969 38.9543 0.415441 39.0817 0.466282C39.2091 0.517123 39.3249 0.593272 39.4219 0.690108C39.5189 0.786944 39.5952 0.902447 39.6461 1.02961C39.6971 1.15677 39.7216 1.29293 39.7182 1.42984L39.6688 3.55011ZM4.54303 3.55011C4.54174 3.82434 4.43201 4.08697 4.23773 4.28088C4.04345 4.47479 3.78032 4.5843 3.50556 4.5856H1.38122C1.10647 4.5843 0.843336 4.47479 0.649053 4.28088C0.454771 4.08697 0.345049 3.82434 0.34375 3.55011V1.42984C0.345049 1.15561 0.454771 0.892981 0.649053 0.69907C0.843336 0.50516 1.10647 0.395648 1.38122 0.394351H3.50556C3.78032 0.395648 4.04345 0.50516 4.23773 0.69907C4.43201 0.892981 4.54174 1.15561 4.54303 1.42984V3.55011ZM2.46809 33.7764C1.91898 33.7725 1.39347 33.5531 1.00518 33.1655C0.616889 32.778 0.397034 32.2535 0.393153 31.7054V8.23444C0.393153 7.68519 0.611762 7.15843 1.00089 6.77005C1.39002 6.38167 1.91779 6.16348 2.46809 6.16348C3.0184 6.16348 3.54617 6.38167 3.9353 6.77005C4.32443 7.15843 4.54303 7.68519 4.54303 8.23444V31.7054C4.54554 31.9782 4.49365 32.2487 4.39038 32.5013C4.2347 32.8815 3.96824 33.2062 3.62552 33.4336C3.2828 33.6609 2.87959 33.7803 2.46809 33.7764Z" fill="#00A0DE"/>
<path d="M37.5916 33.7766C37.0425 33.7727 36.517 33.5533 36.1287 33.1657C35.7404 32.7782 35.5206 32.2537 35.5167 31.7056V8.23463C35.5167 7.68538 35.7353 7.15862 36.1244 6.77024C36.5136 6.38185 37.0413 6.16366 37.5916 6.16366C38.142 6.16366 38.6697 6.38185 39.0588 6.77024C39.448 7.15862 39.6666 7.68538 39.6666 8.23463V31.7056C39.6692 31.9783 39.6174 32.2488 39.514 32.5012C39.4107 32.7537 39.2579 32.983 39.0647 33.1759C38.8715 33.3687 38.6417 33.5211 38.3888 33.6243C38.1359 33.7274 37.8649 33.7792 37.5916 33.7766ZM31.7621 4.58578H8.24607C7.69576 4.58578 7.16799 4.36759 6.77886 3.97921C6.38973 3.59083 6.17112 3.06407 6.17112 2.51482C6.17112 1.96556 6.38973 1.4388 6.77886 1.05042C7.16799 0.662038 7.69576 0.443848 8.24607 0.443848H31.7621C32.3112 0.447721 32.8367 0.667155 33.225 1.0547C33.6133 1.44225 33.8331 1.96676 33.837 2.51482C33.8438 2.78862 33.7947 3.06095 33.6929 3.31527C33.591 3.56959 33.4384 3.8006 33.2443 3.99427C33.0503 4.18794 32.8189 4.34024 32.564 4.44192C32.3092 4.5436 32.0364 4.59255 31.7621 4.58578ZM39.6666 36.3899C39.6653 36.1157 39.5556 35.8531 39.3613 35.6592C39.167 35.4653 38.9039 35.3557 38.6291 35.3544H36.5542C36.2794 35.3557 36.0163 35.4653 35.822 35.6592C35.6277 35.8531 35.518 36.1157 35.5167 36.3899V38.5102C35.518 38.7844 35.6277 39.0471 35.822 39.241C36.0163 39.4349 36.2794 39.5444 36.5542 39.5457H38.6785C38.9533 39.5444 39.2164 39.4349 39.4107 39.241C39.605 39.0471 39.7147 38.7844 39.716 38.5102L39.6666 36.3899ZM4.59022 36.3899C4.59361 36.253 4.56909 36.1169 4.51815 35.9897C4.46721 35.8625 4.39092 35.747 4.29389 35.6502C4.19687 35.5534 4.08115 35.4772 3.95374 35.4264C3.82634 35.3755 3.68991 35.3511 3.55275 35.3544H1.4284C1.15365 35.3557 0.89052 35.4653 0.696237 35.6592C0.501955 35.8531 0.392233 36.1157 0.390934 36.3899V38.5102C0.387545 38.6471 0.412065 38.7833 0.463003 38.9104C0.513941 39.0376 0.590237 39.1531 0.687258 39.2499C0.78428 39.3468 0.900004 39.4229 1.02741 39.4738C1.15481 39.5246 1.29124 39.5491 1.4284 39.5457H3.55275C3.8275 39.5444 4.09063 39.4349 4.28491 39.241C4.4792 39.0471 4.58892 38.7844 4.59022 38.5102V36.3899ZM31.7621 35.3544H8.24607C7.69576 35.3544 7.16799 35.5726 6.77886 35.961C6.38973 36.3494 6.17112 36.8762 6.17112 37.4254C6.17112 37.9747 6.38973 38.5014 6.77886 38.8898C7.16799 39.2782 7.69576 39.4964 8.24607 39.4964H31.7621C32.3112 39.4925 32.8367 39.2731 33.225 38.8855C33.6133 38.498 33.8331 37.9735 33.837 37.4254C33.8438 37.1516 33.7947 36.8793 33.6929 36.625C33.591 36.3706 33.4384 36.1396 33.2443 35.946C33.0503 35.7523 32.8189 35.6 32.564 35.4983C32.3092 35.3966 32.0364 35.3477 31.7621 35.3544ZM31.9103 33.678C31.3988 33.6693 30.9076 33.4767 30.527 33.1356L6.76397 9.51666C6.38974 9.14734 6.17508 8.64659 6.16585 8.1214C6.15662 7.59622 6.35355 7.08825 6.71456 6.70606C7.07745 6.33801 7.57048 6.12669 8.08777 6.11747C8.60505 6.10825 9.10532 6.30187 9.48115 6.65675L33.2442 30.2756C33.6184 30.645 33.833 31.1457 33.8423 31.6709C33.8515 32.1961 33.6546 32.704 33.2936 33.0862C33.1167 33.2753 32.9024 33.4255 32.6643 33.5273C32.4261 33.6292 32.1693 33.6805 31.9103 33.678Z" fill="#00A0DE"/>
<path d="M8.15107 33.6778C7.89198 33.6803 7.6352 33.629 7.39705 33.5272C7.15891 33.4253 6.9446 33.2751 6.76777 33.0861C6.40676 32.7039 6.20983 32.1959 6.21906 31.6707C6.22829 31.1456 6.44295 30.6448 6.81718 30.2755L30.5802 6.6566C30.762 6.47297 30.9793 6.32809 31.2189 6.23073C31.4585 6.13336 31.7154 6.08554 31.9741 6.09015C32.2327 6.09476 32.4877 6.15171 32.7237 6.25755C32.9596 6.36339 33.1716 6.51592 33.3468 6.70591C33.7078 7.0881 33.9047 7.59606 33.8955 8.12125C33.8863 8.64643 33.6716 9.14718 33.2974 9.5165L9.53436 33.1354C9.15373 33.4765 8.66256 33.6691 8.15107 33.6778ZM72.1778 16.7649H66.447L66.6446 16.8142H71.4861L72.1778 16.7649ZM192.623 39.299L196.822 25.2953L201.022 39.299H206.851L199.589 17.5045H194.056L193.908 17.9483L186.794 39.299H192.623ZM159.869 17.4059H153.347L145.937 24.6543V17.4059H140.453V39.2497H145.937V32.1492L147.419 30.522L154.632 39.2497H161.4L151.124 26.3308L159.869 17.4059Z" fill="#00A0DE"/>
<path d="M103.992 17.4057V19.4767C103.992 19.4273 103.943 19.4273 103.943 19.378C101.868 16.814 98.1129 16.814 98.0635 16.814H97.8659C92.7774 16.7647 88.9239 20.167 87.4912 24.802C87.1311 25.9341 86.9478 27.1151 86.9478 28.3029V28.7467C87.0428 31.6459 88.2392 34.4005 90.2943 36.4517C92.3494 38.5029 95.1093 39.697 98.0141 39.7919C99.5456 39.7919 101.769 39.4467 103.053 38.214C103.387 37.9028 103.685 37.5552 103.943 37.1785V39.2495H109.723V17.455L103.992 17.4057ZM103.992 31.0149C103.943 31.1135 103.893 31.2614 103.844 31.3601C103.314 32.3863 102.515 33.2494 101.531 33.8574C100.548 34.4653 99.4177 34.7952 98.2612 34.8117C96.8531 34.8228 95.4872 34.3334 94.4077 33.431C93.7457 32.8462 93.2077 32.1342 92.8258 31.3384C92.4439 30.5425 92.226 29.6777 92.1845 28.796V28.4015C92.1885 27.3015 92.4597 26.2181 92.975 25.2458C93.5049 24.2196 94.3042 23.3564 95.2874 22.7485C96.2707 22.1405 97.401 21.8107 98.5576 21.7942C99.9656 21.783 101.332 22.2725 102.411 23.1748C103.104 23.7928 103.659 24.5486 104.041 25.3937C104.394 26.1531 104.596 26.9737 104.634 27.8098V28.2043C104.597 29.1727 104.379 30.1259 103.992 31.0149ZM177.504 17.5536V19.6246C177.504 19.5753 177.455 19.5753 177.455 19.526C175.38 17.0112 171.625 16.9619 171.625 16.9619H171.427C166.388 16.9126 162.535 20.3149 161.102 24.9006C160.746 26.017 160.563 27.1807 160.559 28.3522V28.796C160.806 34.861 165.647 39.6932 171.576 39.7919C173.107 39.7919 175.281 39.4467 176.615 38.214C176.949 37.9028 177.247 37.5552 177.504 37.1785V39.2495H183.235V17.5536H177.504ZM177.504 31.1135C177.455 31.2121 177.405 31.3601 177.356 31.4587C176.823 32.4788 176.022 33.3346 175.038 33.9341C174.055 34.5336 172.926 34.854 171.773 34.861C170.367 34.8628 169.004 34.3745 167.92 33.4803C167.263 32.9017 166.728 32.1982 166.346 31.4108C165.964 30.6235 165.743 29.7681 165.697 28.8946V28.5002C165.701 27.3999 165.972 26.3171 166.487 25.3444C167.014 24.3303 167.807 23.4781 168.782 22.8788C169.756 22.2796 170.876 21.9558 172.02 21.9421C173.427 21.9403 174.79 22.4286 175.874 23.3227C176.566 23.9407 177.122 24.6965 177.504 25.5416C177.851 26.2857 178.052 27.0889 178.097 27.9085V28.3029C178.106 29.2718 177.903 30.2309 177.504 31.1135ZM83.5884 27.514C83.5063 25.812 83.0312 24.1519 82.2001 22.6635C81.3688 21.1751 80.2038 19.8987 78.7962 18.9343C75.9802 16.6167 71.781 16.7154 71.781 16.7154H66.0502V9.81214H79.5373V4.33887H60.5664V39.1508H71.9786C72.2429 39.1548 72.5072 39.1383 72.769 39.1015C75.0674 38.9618 77.2733 38.148 79.1102 36.762C80.947 35.3761 82.333 33.4797 83.0943 31.3108C83.4505 30.2117 83.6338 29.0638 83.6378 27.9085C83.6429 27.7752 83.6262 27.6419 83.5884 27.514ZM76.5731 30.7191C76.0945 31.4768 75.4667 32.1297 74.7279 32.6381C73.9892 33.1469 73.1547 33.5005 72.275 33.6776H66.0502V22.1393L70.7435 22.09H72.2256C72.3738 22.1393 72.5714 22.1393 72.7196 22.1886C73.5723 22.3696 74.3791 22.7219 75.091 23.2241C75.7565 23.7158 76.3083 24.3446 76.7089 25.0678C77.1093 25.791 77.3494 26.5915 77.4129 27.4154V27.7605C77.4297 28.8074 77.1378 29.8364 76.5731 30.7191ZM135.907 38.5098C135.91 38.4832 135.907 38.4561 135.899 38.4304C135.89 38.4048 135.876 38.3816 135.857 38.3619C135.861 38.3353 135.858 38.3082 135.849 38.2825C135.841 38.2569 135.826 38.2337 135.808 38.214V38.1154C135.613 36.3141 135.514 34.5035 135.511 32.6914V17.1098H129.731V28.6974C129.682 29.585 129.484 31.2121 128.792 32.2476C128.332 32.8941 127.725 33.4231 127.021 33.7915C126.317 34.1598 125.536 34.3575 124.741 34.3679H124.297C123.451 34.2775 122.639 33.9903 121.925 33.5297C120.959 32.8624 120.245 31.8898 119.9 30.7684V30.7191C119.737 30.1061 119.638 29.4784 119.603 28.8453C119.574 28.666 119.557 28.4847 119.554 28.3029C119.258 23.9144 119.554 17.1591 119.554 17.1591L119.406 17.1098H113.971V28.6481C114 30.4414 114.3 32.2201 114.861 33.9241C115.167 34.7076 115.565 35.4524 116.046 36.143C116.134 36.2961 116.252 36.4302 116.392 36.5375C116.537 36.6728 116.67 36.8214 116.787 36.9813C117.522 37.7317 118.394 38.3343 119.356 38.7564H119.406C120.674 39.2757 122.037 39.5276 123.407 39.496C123.655 39.5078 123.904 39.4911 124.149 39.4467C124.149 39.4467 127.903 39.496 130.077 36.4389C130.126 37.2771 130.275 38.5098 130.67 38.9536H136.005C135.996 38.8014 135.963 38.6516 135.907 38.5098Z" fill="#00A0DE"/>
<path d="M205.123 83.7262C204.618 84.7082 203.854 85.5344 202.914 86.1164C201.974 86.6983 200.893 87.0141 199.787 87.0299C196.527 87.0299 193.859 84.3179 193.661 80.8663V80.4718C193.654 79.3761 193.908 78.2944 194.402 77.3161C194.886 76.3025 195.647 75.4457 196.596 74.8442C197.546 74.2426 198.647 73.9207 199.772 73.9157C200.897 73.9106 202 74.2223 202.956 74.8151C203.911 75.4079 204.679 76.2577 205.172 77.2668L205.271 77.464L210.113 75.4916L210.014 75.2944C209.138 73.2525 207.686 71.5085 205.836 70.2742C203.985 69.04 201.815 68.3687 199.59 68.3419C194.551 68.3419 190.154 71.6949 188.622 76.7244C188.269 77.9089 188.086 79.1374 188.079 80.3732V80.817C188.326 87.2764 193.365 92.3552 199.59 92.3552C201.766 92.337 203.892 91.7014 205.721 90.5229C207.549 89.3444 209.004 87.6709 209.915 85.6986L210.014 85.5013L205.271 83.5783L205.123 83.7262ZM105.872 70.5115C105.666 70.3521 105.451 70.204 105.229 70.0677C105.18 70.0184 105.131 70.0184 105.081 69.9691L104.686 69.7225L104.488 69.6239C104.241 69.476 103.994 69.3774 103.797 69.2787C103.698 69.2294 103.648 69.2294 103.55 69.1801C103.451 69.1308 103.303 69.0815 103.154 69.0322C103.006 68.9829 103.006 68.9829 102.907 68.9336H102.858C102.66 68.8843 102.463 68.7856 102.315 68.7363C102.166 68.687 102.068 68.687 101.969 68.6377C101.87 68.5884 101.722 68.5884 101.623 68.5391C101.524 68.4898 101.327 68.4898 101.129 68.4405C101.03 68.4405 100.882 68.3912 100.783 68.3912C100.605 68.3504 100.422 68.3338 100.24 68.3419H99.9926C99.7456 68.3419 99.548 68.2926 99.301 68.2926H99.2516C98.9542 68.2842 98.6568 68.3009 98.3623 68.3419H98.2141C97.9671 68.3912 97.7201 68.3912 97.4731 68.4405L97.2754 68.4898L96.5838 68.6377L96.4356 68.687C96.1886 68.7363 95.9416 68.835 95.6946 68.8843L95.5958 68.9336L94.8053 69.2787C92.2758 70.4395 90.2316 72.445 89.0251 74.9492L88.9263 75.1465C88.699 75.644 88.501 76.1544 88.3335 76.675C87.9805 77.8596 87.7976 79.0881 87.79 80.3239V80.7677C87.8374 81.7662 87.9866 82.7578 88.2346 83.7262L88.284 83.9727C88.4382 84.4594 88.6195 84.9367 88.8275 85.4027C88.8769 85.5013 88.9263 85.5506 88.9263 85.6492L89.0251 85.8465C89.2593 86.307 89.5231 86.7518 89.8156 87.1778L89.9144 87.2764L90.853 88.4598L90.9518 88.5585C91.0544 88.6855 91.1704 88.8012 91.2977 88.9036L91.347 88.9529C91.5659 89.1788 91.7968 89.3928 92.0387 89.5939C92.0881 89.6432 92.1375 89.6926 92.1869 89.6926C92.2857 89.7912 92.4339 89.8898 92.5327 89.9884L92.6316 90.0377C92.8786 90.1856 93.0762 90.3829 93.3232 90.5308L93.4714 90.6294L93.8666 90.876L94.0148 90.9746C94.2619 91.0732 94.4595 91.2211 94.7065 91.3197C94.8053 91.3691 94.8547 91.3691 94.9535 91.4184C95.0523 91.4677 95.2005 91.517 95.3487 91.5663C95.4969 91.6156 95.5463 91.6156 95.6451 91.6649C95.8428 91.7142 96.0404 91.8128 96.1886 91.8621C96.3368 91.9115 96.4356 91.9115 96.5344 91.9608C96.6332 92.0101 96.7814 92.0101 96.8802 92.0594C96.979 92.1087 97.1766 92.1087 97.3743 92.158C97.4731 92.158 97.6213 92.2073 97.7201 92.2073C97.8982 92.2481 98.081 92.2647 98.2635 92.2566H98.5105C98.7575 92.2566 98.9552 92.3059 99.2516 92.3059C99.549 92.3143 99.8464 92.2975 100.141 92.2566H100.289C100.539 92.2482 100.787 92.2152 101.03 92.158L101.228 92.1087L101.919 91.9608L102.068 91.9115C102.315 91.8621 102.562 91.7635 102.809 91.7142L102.957 91.6649L103.698 91.3691H103.747C106.287 90.2227 108.335 88.213 109.528 85.6986L109.626 85.5013L104.39 83.3317L104.291 83.529C103.778 84.501 103.011 85.3167 102.072 85.8895C101.133 86.4624 100.056 86.7712 98.9552 86.7833C98.1379 86.7963 97.3279 86.6279 96.5838 86.2903C94.7065 85.2548 93.7184 84.0221 93.422 82.3456H109.972V82.1483C110.219 80.3239 110.466 73.9631 105.872 70.5115ZM104.785 78.0064H93.8172C93.916 77.7598 94.0148 77.5626 94.1137 77.3161C94.608 76.3073 95.3731 75.4551 96.3238 74.8545C97.2745 74.2538 98.3735 73.9282 99.4986 73.9138C100.316 73.9008 101.126 74.0692 101.87 74.4068C103.265 75.1923 104.308 76.4798 104.785 78.0064ZM80.2807 80.4225L80.1819 80.6197C78.3046 84.0714 75.1428 86.093 71.6845 86.093C66.1514 86.093 61.6557 80.817 61.6557 74.3082C61.6557 67.7995 66.1514 62.5234 71.6845 62.5234C75.7356 62.5234 79.3915 65.3833 80.923 69.7718L81.0218 69.9691L86.802 67.5036L86.7032 67.3064C84.1342 60.5511 78.2552 56.2119 71.6351 56.2119C62.6437 56.2119 55.332 64.2985 55.332 74.2589C55.332 84.2193 62.6437 92.3059 71.6351 92.3059C77.3659 92.3059 82.7509 88.9036 85.7151 83.381L85.9127 83.0359V82.9866L80.2807 80.4225ZM136.205 76.9709C134.624 71.8921 130.376 68.5884 125.386 68.5884H124.991C124.941 68.5884 121.384 68.6377 119.161 70.9552V69.1801H112.739V104.682H119.161V90.4815C119.327 90.6773 119.508 90.8587 119.705 91.0239H119.754C121.285 92.4538 123.706 92.7004 125.09 92.7004C128.149 92.6225 131.061 91.3779 133.23 89.2231C135.399 87.068 136.658 84.1658 136.749 81.1128V80.6691C136.794 79.4136 136.61 78.1605 136.205 76.9709ZM120.791 75.4916C121.884 74.6123 123.241 74.1259 124.645 74.111C125.802 74.1259 126.933 74.4551 127.916 75.0632C128.9 75.6713 129.699 76.5354 130.227 77.5626C130.737 78.5552 131.008 79.6523 131.018 80.7677V81.1621C130.972 82.0428 130.751 82.9056 130.37 83.7011C129.988 84.4964 129.453 85.2087 128.795 85.7972C127.702 86.6765 126.345 87.1629 124.941 87.1778C123.784 87.1629 122.653 86.8337 121.67 86.2256C120.686 85.6175 119.887 84.7534 119.359 83.7262C119.309 83.6276 119.26 83.4797 119.211 83.381C118.811 82.4807 118.609 81.5058 118.618 80.5211V80.1267C118.668 79.2924 118.869 78.4738 119.211 77.7105C119.57 76.8649 120.109 76.108 120.791 75.4916ZM160.759 84.0221C160.746 83.3285 160.596 82.6444 160.316 82.0096C160.036 81.3747 159.632 80.8017 159.128 80.3239L159.079 80.2746C158.649 79.8609 158.186 79.4817 157.696 79.1405L158.042 78.6474C158.567 78.2057 158.99 77.6548 159.28 77.033C159.57 76.4112 159.721 75.7337 159.721 75.0479C159.721 72.4345 157.103 69.7718 154.089 69.328L152.212 69.2294H151.916L139.713 69.2787V91.517H145.691L148.655 91.4677H153.249C156.51 91.2211 159.375 89.1995 160.364 86.4382C160.614 85.7246 160.748 84.9753 160.759 84.2193V84.0221ZM154.534 84.9096C154.488 85.3566 154.307 85.7793 154.016 86.1224C153.725 86.4655 153.338 86.713 152.904 86.8327C152.805 86.882 152.657 86.882 152.508 86.9313C151.97 87.025 151.425 87.0745 150.878 87.0792H145.987V81.8525H150.68C151.361 81.8433 152.04 81.9095 152.706 82.0497H152.755C152.805 82.0497 152.805 82.0497 152.854 82.099C152.904 82.1483 153.002 82.1483 153.101 82.1976L153.151 82.2469C153.2 82.2962 153.249 82.2962 153.348 82.3456C153.66 82.5239 153.926 82.773 154.123 83.0729C154.321 83.3726 154.444 83.7147 154.485 84.0714V84.5151C154.485 84.5151 154.583 84.8603 154.534 84.9096ZM153.052 77.1188C152.77 77.2468 152.47 77.33 152.163 77.3654H145.938V73.6672H152.212C152.419 73.6992 152.62 73.7658 152.805 73.8644C153.099 74.0093 153.352 74.2248 153.542 74.4916C153.732 74.7585 153.852 75.0682 153.892 75.393C153.941 76.2806 153.694 76.7737 153.052 77.1188ZM186.103 91.3197C186.041 91.1971 186.007 91.0624 186.004 90.9253C186.007 90.8987 186.004 90.8715 185.996 90.8459C185.988 90.8203 185.973 90.7971 185.954 90.7774L185.905 90.5308C185.707 89.2981 185.658 86.9313 185.609 85.1562V69.328H179.384V81.1621C179.334 82.0497 179.137 83.6276 178.495 84.6138C178.047 85.2316 177.461 85.7362 176.784 86.0871C176.106 86.4382 175.355 86.6259 174.592 86.6354H174.196C173.383 86.5758 172.599 86.3037 171.924 85.8465C171.027 85.195 170.353 84.282 169.997 83.2331V83.1838C169.852 82.6007 169.753 82.0072 169.701 81.4087V81.3594C169.701 81.1621 169.651 81.0142 169.651 80.9156V80.817C169.355 76.4778 169.651 69.7718 169.651 69.6732V69.3774H163.575V81.1621C163.616 82.9705 163.915 84.7637 164.464 86.4875C164.795 87.2846 165.209 88.0449 165.699 88.7557C165.798 88.915 165.914 89.0639 166.045 89.1995C166.19 89.3348 166.322 89.4834 166.44 89.6433C167.201 90.4205 168.107 91.0405 169.108 91.4677H169.157C170.424 91.9935 171.788 92.2456 173.159 92.2073H173.258C173.506 92.2191 173.754 92.2024 173.999 92.158C175.091 92.1165 176.163 91.8599 177.155 91.4029C178.147 90.9459 179.039 90.2976 179.779 89.4953C179.878 90.5308 180.075 91.2211 180.421 91.5663L180.471 91.6156H186.201L186.103 91.3197Z" fill="#3D3834"/>
</g>
<defs>
<clipPath id="clip0_337_2902">
<rect width="207" height="107" fill="white"/>
</clipPath>
</defs>
</svg>
