<svg width="199" height="127" viewBox="0 0 199 127" fill="none" xmlns="http://www.w3.org/2000/svg">
<path d="M58.0609 71.0894L103.774 79.8068L107.326 73.7186L66.6918 56.281L58.0609 71.0894ZM79.2383 34.7546L114.796 60.9205L118.348 54.8295L87.8719 19.9435L79.241 34.7546H79.2383ZM68.6165 52.9891L109.251 70.4321L112.871 64.2097L77.3136 38.0465L68.6165 52.9891ZM99.4919 0L89.8959 16.4872L120.374 51.3787L124.891 43.6445L99.4919 0ZM46.474 91H97.2666L101.781 83.2658L56.07 74.5484L46.474 91ZM127.078 70.6293L138.962 91H152.474L127.078 47.3938L101.681 91H115.193L127.078 70.6293Z" fill="#FCAF17"/>
<path d="M23.378 122.803H30.398L32.011 119.955H23.379L23.378 122.803ZM23.378 114.895V117.743H33.288L34.937 114.895H23.378ZM172.162 118.272V109.86H169.055V122.803H171.656L179.132 114.331V122.803H182.238V109.86H179.494L172.162 118.272ZM41.643 109.86L34.203 122.803H37.863L42.763 114.258L47.699 122.803H51.552L44.112 109.86H41.643ZM19.287 119.954L11.847 107H9.307L1.866 119.954H0V126.6H2.961V122.802H18.191V126.6H21.153V119.954H19.287ZM5.574 119.954L10.474 111.398L15.41 119.954H5.574ZM120.825 109.86H106.366V112.708H119.163L120.825 109.86ZM37.826 109.86H23.379V112.708H36.177L37.826 109.86ZM196.203 109.86L188.871 118.272V109.86H185.765V122.803H188.377L195.842 114.331V122.803H198.948V109.86H196.203ZM162.421 114.895H155.619V109.86H152.512V122.803H155.619V117.743H162.421V122.803H165.527V109.86H162.421V114.895ZM124.63 109.86L117.19 122.803H120.862L125.762 114.258L130.698 122.803H134.539L127.098 109.86H124.63ZM93.929 114.5H89.21V109.849H86.104V122.803H93.905C96.012 122.803 98.203 121.638 98.203 118.585C98.191 114.572 95.374 114.5 93.929 114.5ZM93.749 120.064H89.198V117.18H93.749C94.278 117.18 95.085 117.324 95.085 118.622C95.085 119.823 94.423 120.064 93.749 120.064ZM102.851 109.86H99.781V122.815H102.851V109.86ZM59.378 109.547C54.188 109.547 51.733 112.72 51.733 116.265C51.733 119.966 54.128 122.982 59.378 122.982C61.665 122.982 66.962 121.925 66.962 116.265C66.962 112.564 64.591 109.547 59.378 109.547ZM59.342 120.134C56.344 120.134 55.08 118.416 55.08 116.301C55.08 113.981 56.524 112.431 59.342 112.431C62.52 112.431 63.603 113.981 63.603 116.301C63.603 119.077 61.521 120.134 59.342 120.134ZM106.366 122.803H113.385L115.01 119.955H106.366V122.803ZM106.366 114.895V117.743H116.274L117.935 114.895H106.366ZM138.909 118.2V109.86H135.803V122.803H138.416L145.892 114.403V122.803H148.998V109.86H146.386L138.909 118.2ZM80.518 115.172C81.336 114.823 82.035 114.259 82.035 112.852C82.035 110.172 79.783 109.86 78.194 109.86H69.803V122.815H78.339C82.251 122.815 83.058 120.664 83.058 118.693C83.07 116.47 81.806 115.556 80.518 115.172ZM72.873 112.6H77.845C78.591 112.6 78.904 112.985 78.904 113.73C78.904 114.499 78.411 114.895 77.845 114.895H72.873V112.6ZM78.339 120.063H72.873V117.287H78.339C79.217 117.287 79.856 117.503 79.856 118.657C79.856 119.57 79.47 120.063 78.339 120.063Z" fill="#2F3339"/>
</svg>
