<svg width="195" height="117" viewBox="0 0 195 117" fill="none" xmlns="http://www.w3.org/2000/svg">
<path d="M195 58.5C195 90.6 168.9 117 136.5 117C104.4 117 78 90.6 78 58.5C78 26.4 104.1 0 136.2 0C168.9 0 195 26.4 195 58.5Z" fill="#F9B50B"/>
<path d="M116.7 58.8C116.7 54.6 116.1 50.4 115.5 46.5H79.5C79.8 44.4 80.4 42.6 81 40.2H113.1C112.5 38.1 111.6 36 110.7 33.9H83.4C84.3 31.8 85.5 30 86.7 27.6H107.4C106.2 25.5 104.7 23.4 102.9 21.3H91.5C93.3 19.2 95.1 17.4 97.5 15.3C87.3 5.7 73.5 0 58.2 0C26.4 0.9 0 26.4 0 58.5C0 90.6 26.1 117 58.5 117C73.8 117 87.3 111 97.8 101.7C99.9 99.9 101.7 97.8 103.8 95.4H91.8C90.3 93.6 88.8 91.5 87.6 89.4H108C109.2 87.6 110.4 85.5 111.3 83.1H84C83.1 81.3 82.2 79.2 81.6 76.8H113.7C115.5 71.4 116.7 65.4 116.7 58.8Z" fill="#C8191C"/>
<path d="M79.1953 73.4992L80.0953 68.0992C79.7953 68.0992 79.1953 68.3992 78.5953 68.3992C76.4953 68.3992 76.1953 67.1992 76.4953 66.5992L78.2953 55.7992H81.5953L82.4953 49.7992H79.4953L80.0953 46.1992H73.7953C73.7953 46.1992 70.1953 66.5992 70.1953 68.9992C70.1953 72.5992 72.2953 74.3992 75.2953 74.3992C77.0953 74.3992 78.5953 73.7992 79.1953 73.4992Z" fill="white"/>
<path d="M81.3047 63.6008C81.3047 72.3008 87.3047 74.4008 92.1047 74.4008C96.6047 74.4008 98.7047 73.5008 98.7047 73.5008L99.9047 67.5008C99.9047 67.5008 96.6047 69.0008 93.3047 69.0008C86.4047 69.0008 87.6047 63.9008 87.6047 63.9008H100.205C100.205 63.9008 101.105 60.0008 101.105 58.2008C101.105 54.3008 99.0047 49.2008 92.1047 49.2008C86.1047 48.9008 81.3047 55.8008 81.3047 63.6008ZM92.1047 54.6008C95.4047 54.6008 94.8047 58.5008 94.8047 58.8008H87.9047C88.2047 58.5008 88.8047 54.6008 92.1047 54.6008Z" fill="white"/>
<path d="M131.405 73.4992L132.605 66.5992C132.605 66.5992 129.605 68.0992 127.205 68.0992C123.005 68.0992 120.905 64.7992 120.905 60.8992C120.905 53.3992 124.505 49.4992 129.005 49.4992C132.005 49.4992 134.705 51.2992 134.705 51.2992L135.605 44.6992C135.605 44.6992 132.005 43.1992 128.405 43.1992C121.205 43.1992 114.305 49.4992 114.305 61.1992C114.305 68.9992 117.905 74.0992 125.405 74.0992C128.105 74.3992 131.405 73.4992 131.405 73.4992Z" fill="white"/>
<path d="M45.2977 48.8994C41.0977 48.8994 37.7977 50.0994 37.7977 50.0994L36.8977 55.4994C36.8977 55.4994 39.5977 54.2994 43.7977 54.2994C45.8977 54.2994 47.6977 54.5994 47.6977 56.3994C47.6977 57.5994 47.3977 57.8994 47.3977 57.8994H44.6977C39.2977 57.8994 33.5977 59.9994 33.5977 67.1994C33.5977 72.8994 37.1977 74.0994 39.5977 74.0994C43.7977 74.0994 45.8977 71.3994 46.1977 71.3994L45.8977 73.7994H50.9977L53.3977 56.6994C53.3977 49.1994 47.3977 48.8994 45.2977 48.8994ZM46.4977 62.6994C46.4977 63.5994 45.8977 68.6994 42.2977 68.6994C40.4977 68.6994 39.8977 67.1994 39.8977 66.2994C39.8977 64.7994 40.7977 62.6994 45.5977 62.6994C46.1977 62.6994 46.4977 62.6994 46.4977 62.6994Z" fill="white"/>
<path d="M59.4023 74.1006C60.9023 74.1006 68.7023 74.4006 68.7023 66.0006C68.7023 58.2006 61.2023 59.7006 61.2023 56.7006C61.2023 55.2006 62.4023 54.6006 64.5023 54.6006C65.4023 54.6006 68.7023 54.9006 68.7023 54.9006L69.6023 49.2006C69.6023 49.2006 67.5023 48.6006 63.6023 48.6006C59.1023 48.6006 54.3023 50.4006 54.3023 56.7006C54.3023 63.9006 62.1023 63.3006 62.1023 66.0006C62.1023 67.8006 60.0023 68.1006 58.5023 68.1006C55.8023 68.1006 52.8023 67.2006 52.8023 67.2006L51.9023 72.9006C52.5023 73.5006 54.3023 74.1006 59.4023 74.1006Z" fill="white"/>
<path d="M183.005 44.1006L181.805 52.5006C181.805 52.5006 179.405 49.5006 175.805 49.5006C170.105 49.5006 165.305 56.4006 165.305 64.5006C165.305 69.6006 167.705 74.7006 173.105 74.7006C176.705 74.7006 179.105 72.3006 179.105 72.3006L178.805 74.4006H185.105L189.605 44.7006L183.005 44.1006ZM180.005 60.3006C180.005 63.6006 178.505 68.1006 174.905 68.1006C172.805 68.1006 171.605 66.3006 171.605 63.0006C171.605 57.9006 173.705 54.9006 176.705 54.9006C178.805 55.2006 180.005 56.7006 180.005 60.3006Z" fill="white"/>
<path d="M11.4023 73.8006L15.0023 51.6006L15.6023 73.8006H19.8023L27.9023 51.6006L24.6023 73.8006H31.2023L36.3023 44.1006H26.1023L19.8023 62.4006L19.5023 44.1006H10.5023L5.40234 73.8006H11.4023Z" fill="white"/>
<path d="M107.4 73.8C109.2 63.6 109.5 55.2 114 56.7C114.6 52.8 115.5 51 116.1 49.5H114.9C112.2 49.5 109.8 53.1 109.8 53.1L110.4 49.8H104.4L100.5 73.8H107.4Z" fill="white"/>
<path d="M145.798 48.8994C141.598 48.8994 138.298 50.0994 138.298 50.0994L137.398 55.4994C137.398 55.4994 140.098 54.2994 144.298 54.2994C146.398 54.2994 148.198 54.5994 148.198 56.3994C148.198 57.5994 147.898 57.8994 147.898 57.8994H145.198C139.798 57.8994 134.098 59.9994 134.098 67.1994C134.098 72.8994 137.698 74.0994 140.098 74.0994C144.298 74.0994 146.398 71.3994 146.698 71.3994L146.398 73.7994H152.098L154.498 56.6994C154.498 49.1994 147.898 48.8994 145.798 48.8994ZM147.298 62.6994C147.298 63.5994 146.698 68.6994 143.098 68.6994C141.298 68.6994 140.698 67.1994 140.698 66.2994C140.698 64.7994 141.598 62.6994 146.398 62.6994C146.998 62.6994 146.998 62.6994 147.298 62.6994Z" fill="white"/>
<path d="M159.302 73.8C161.102 63.6 161.402 55.2 165.902 56.7C166.502 52.8 167.402 51 168.002 49.5H166.802C164.102 49.5 161.702 53.1 161.702 53.1L162.302 49.8H156.302L152.402 73.8H159.302Z" fill="white"/>
</svg>
