<svg width="231" height="67" viewBox="0 0 231 67" fill="none" xmlns="http://www.w3.org/2000/svg">
<path d="M206.916 0.5H162.727C165.301 15.0869 179.459 28.8157 194.904 28.8157H230.084C230.513 27.5287 230.513 25.3835 230.513 24.0964C230.513 11.2256 219.787 0.5 206.916 0.5Z" fill="url(#paint0_linear_346_2074)"/>
<path d="M166.598 31.3906V66.9997H188.049V48.1226H206.926C217.223 48.1226 226.232 40.8292 229.235 31.3906H166.598Z" fill="#4FAD50"/>
<path d="M91.082 0.5V66.57H109.959C109.959 66.57 114.678 66.57 117.253 61.8507C130.123 36.5382 133.985 28.8157 133.985 28.8157H136.559V66.57H158.01V0.5H139.133C139.133 0.5 134.414 0.929052 131.84 5.21931C121.114 27.0996 115.108 38.2543 115.108 38.2543H112.533V0.5H91.082Z" fill="#4FAD50"/>
<path d="M0.988281 66.9997V0.929688H22.4396C22.4396 0.929688 28.446 0.929674 31.8782 10.3682C40.4587 35.2518 41.3168 38.684 41.3168 38.684C41.3168 38.684 43.0329 32.6776 50.7553 10.3682C54.1875 0.929674 60.1939 0.929688 60.1939 0.929688H81.6452V66.9997H60.1939V31.3906H57.6198L45.6071 66.9997H36.1685L24.1558 31.3906H21.5816V66.9997H0.988281Z" fill="#4FAD50"/>
<defs>
<linearGradient id="paint0_linear_346_2074" x1="162.65" y1="14.8608" x2="230.361" y2="14.8608" gradientUnits="userSpaceOnUse">
<stop stop-color="#27B1E6"/>
<stop offset="1" stop-color="#148ACA"/>
</linearGradient>
</defs>
</svg>
