<svg width="208" height="53" viewBox="0 0 208 53" fill="none" xmlns="http://www.w3.org/2000/svg">
<g clip-path="url(#clip0_337_2890)">
<path fill-rule="evenodd" clip-rule="evenodd" d="M207.999 1.86594C207.999 1.86594 204.132 1.40039 199.563 1.40039C195.11 1.40039 191.359 1.86594 191.359 1.86594V16.4144H207.999V1.86594Z" fill="#E4003E"/>
<path fill-rule="evenodd" clip-rule="evenodd" d="M207.999 36.2007H191.359V50.9819C191.359 50.9819 196.047 51.4473 199.796 51.4473C203.547 51.4473 207.999 50.8655 207.999 50.8655V36.2007Z" fill="#E4003E"/>
<path fill-rule="evenodd" clip-rule="evenodd" d="M181.4 1.8667H160.893L146.597 19.674H139.917V1.8667H122.223V51.0985H139.917V32.593H146.362L160.776 51.0985H182.689L161.245 24.9113L181.4 1.8667Z" fill="#242265"/>
<path fill-rule="evenodd" clip-rule="evenodd" d="M55.896 1.8667H0V51.0985H17.929V15.8332H37.967V51.0985H55.896V1.8667Z" fill="#242265"/>
<path fill-rule="evenodd" clip-rule="evenodd" d="M64.5662 14.9021L61.9883 1.86669C61.9883 1.86669 78.7452 0.586426 89.1745 0.586426C99.6038 0.586426 112.142 1.86669 112.142 1.86669C112.142 1.86669 116.009 11.876 116.009 25.9589C116.009 40.0417 112.025 51.0986 112.025 51.0986C112.025 51.0986 100.073 52.3788 89.0574 52.3788C78.0422 52.3788 61.9883 51.0986 61.9883 51.0986L64.5662 38.0632C64.5662 38.0632 75.8158 38.8779 85.4248 38.8779C95.0337 38.8779 98.7835 38.0632 98.7835 38.0632C98.7835 38.0632 99.2523 35.619 99.4867 32.8256H76.5188V20.256H99.6038C99.3694 16.9971 98.9008 15.0184 98.9008 15.0184C98.9008 15.0184 91.0494 14.2037 84.37 14.2037C77.5736 14.0873 64.5662 14.9021 64.5662 14.9021Z" fill="#242265"/>
</g>
<defs>
<clipPath id="clip0_337_2890">
<rect width="208" height="53" fill="white"/>
</clipPath>
</defs>
</svg>
