<svg width="239" height="120" viewBox="0 0 239 120" fill="none" xmlns="http://www.w3.org/2000/svg">
<g clip-path="url(#clip0_346_2143)">
<path d="M211.437 33.6915V63.0295H200.961V42.4495H190.874V63.0295H180.398V33.6895H211.437V33.6915Z" fill="black"/>
<path fill-rule="evenodd" clip-rule="evenodd" d="M158.883 64.079C168.261 64.079 175.225 58.329 175.225 49.612C175.225 41.175 170.087 35.697 161.5 35.697C157.537 35.697 154.267 37.092 151.804 39.499C152.392 34.524 156.599 30.892 161.231 30.892C162.3 30.892 170.348 30.875 170.348 30.875L174.899 22.166C174.899 22.166 164.795 22.396 160.098 22.396C149.366 22.583 142.117 32.338 142.117 44.186C142.117 57.989 149.187 64.079 158.883 64.079ZM158.94 43.411C162.422 43.411 164.836 45.699 164.836 49.611C164.836 53.132 162.691 56.033 158.94 56.041C155.352 56.041 152.938 53.353 152.938 49.671C152.938 45.758 155.352 43.411 158.94 43.411Z" fill="black"/>
<path d="M133.594 53.2084C133.594 53.2084 131.12 54.6344 127.425 54.9044C123.177 55.0304 119.392 52.3474 119.392 47.5804C119.392 42.9304 122.732 40.2654 127.318 40.2654C130.13 40.2654 133.85 42.2144 133.85 42.2144C133.85 42.2144 136.572 37.2194 137.982 34.7214C135.4 32.7644 131.961 31.6914 127.961 31.6914C117.866 31.6914 110.047 38.2734 110.047 47.5214C110.047 56.8874 117.396 63.3164 127.961 63.1224C130.914 63.0124 134.988 61.9754 137.471 60.3804L133.594 53.2084Z" fill="black"/>
<path d="M0 26.1201L14.532 52.0951V67.9391L0.017 93.8631L0 26.1201Z" fill="#5B57A2"/>
<path d="M55.7969 42.6435L69.4139 34.2975L97.2819 34.2715L55.7969 59.6855V42.6435Z" fill="#D90751"/>
<path d="M55.7195 25.967L55.7965 60.357L41.2305 51.407V0L55.7195 25.967Z" fill="#FAB718"/>
<path d="M97.2815 34.271L69.4125 34.297L55.7195 25.967L41.2305 0L97.2815 34.271Z" fill="#ED6F26"/>
<path d="M55.7965 94.007V77.322L41.2305 68.542L41.2385 120L55.7965 94.007Z" fill="#63B22F"/>
<path d="M69.38 85.7371L14.531 52.0951L0 26.1201L97.223 85.7031L69.38 85.7371Z" fill="#1487C9"/>
<path d="M41.2383 120L55.7943 94.0071L69.3773 85.7371L97.2203 85.7031L41.2383 120Z" fill="#017F36"/>
<path d="M0.015625 93.8636L41.3486 68.5436L27.4526 60.0176L14.5306 67.9396L0.015625 93.8636Z" fill="#984995"/>
<path d="M119.392 82.7748C119.072 83.1828 118.651 83.4908 118.146 83.6988C117.628 83.9097 117.074 84.0171 116.514 84.0148C115.958 84.0224 115.405 83.9295 114.881 83.7408C114.411 83.5701 113.981 83.3038 113.619 82.9588C113.262 82.6132 112.981 82.1962 112.795 81.7348C112.594 81.2294 112.494 80.6897 112.5 80.1458C112.5 79.6058 112.593 79.1058 112.786 78.6318C112.971 78.1568 113.24 77.7498 113.577 77.4078C113.914 77.0588 114.318 76.7928 114.772 76.5848C115.235 76.3848 115.74 76.2768 116.295 76.2768C116.893 76.2768 117.448 76.3518 117.953 76.5008C118.458 76.6508 118.887 76.9008 119.24 77.2508L118.626 78.2908C118.329 78.0217 117.98 77.8173 117.599 77.6908C117.238 77.5743 116.86 77.5156 116.48 77.5168C116.144 77.5168 115.824 77.5828 115.513 77.7078C115.207 77.8313 114.927 78.0122 114.688 78.2408C114.445 78.476 114.252 78.7593 114.124 79.0728C113.981 79.3968 113.914 79.7548 113.914 80.1538C113.914 80.5618 113.989 80.9278 114.132 81.2438C114.276 81.5688 114.469 81.8438 114.713 82.0758C114.957 82.3098 115.243 82.4838 115.571 82.6008C115.9 82.7258 116.245 82.7838 116.615 82.7838C117.069 82.7838 117.482 82.6918 117.835 82.5168C118.185 82.3479 118.499 82.1137 118.761 81.8268L119.392 82.7748ZM121.125 83.8398V76.4348H122.455V81.9518L126.78 76.4348H128.11V83.8408H126.78V78.3238L122.455 83.8408H121.125V83.8398ZM136.92 82.7748C136.593 83.1862 136.164 83.5048 135.675 83.6988C135.157 83.9096 134.602 84.017 134.042 84.0148C133.486 84.0223 132.933 83.9295 132.41 83.7408C131.94 83.5701 131.51 83.3038 131.147 82.9588C130.79 82.6132 130.509 82.1962 130.323 81.7348C130.122 81.2294 130.022 80.6897 130.028 80.1458C130.028 79.6058 130.121 79.1058 130.314 78.6318C130.5 78.1568 130.769 77.7498 131.105 77.4078C131.442 77.0588 131.846 76.7928 132.3 76.5848C132.78 76.3736 133.299 76.2686 133.823 76.2768C134.421 76.2768 134.976 76.3518 135.481 76.5008C135.986 76.6508 136.415 76.9008 136.769 77.2508L136.154 78.2908C135.858 78.0215 135.508 77.8171 135.128 77.6908C134.767 77.5744 134.389 77.5157 134.009 77.5168C133.341 77.519 132.699 77.7782 132.216 78.2408C131.975 78.4777 131.783 78.7606 131.652 79.0728C131.509 79.3968 131.442 79.7548 131.442 80.1538C131.442 80.5618 131.518 80.9278 131.661 81.2438C131.804 81.5688 131.997 81.8438 132.241 82.0758C132.485 82.3098 132.772 82.4838 133.1 82.6008C133.428 82.7168 133.773 82.7838 134.143 82.7838C134.598 82.7838 135.002 82.6918 135.363 82.5168C135.713 82.3479 136.027 82.1137 136.289 81.8268L136.92 82.7748ZM137.602 76.4348H144.426V77.7498H141.683V83.8398H140.353V77.7498H137.61V76.4348H137.602Z" fill="black"/>
<path fill-rule="evenodd" clip-rule="evenodd" d="M150.637 83.7666C151.142 83.6086 151.571 83.3666 151.941 83.0346L151.537 82.0026C151.293 82.2196 150.965 82.4026 150.57 82.5526C150.174 82.7026 149.728 82.7766 149.24 82.7766C148.508 82.7766 147.902 82.5856 147.422 82.1946C146.943 81.8026 146.682 81.2546 146.623 80.5546H152.379C152.438 80.2966 152.463 80.0056 152.463 79.6646C152.463 79.1566 152.37 78.6996 152.185 78.2836C152.013 77.8796 151.762 77.5144 151.445 77.2096C151.125 76.9077 150.747 76.673 150.334 76.5196C149.902 76.352 149.443 76.2671 148.979 76.2696C148.356 76.2696 147.809 76.3776 147.33 76.5776C146.878 76.7681 146.468 77.0484 146.126 77.4016C145.795 77.7529 145.54 78.1694 145.378 78.6246C145.201 79.1093 145.112 79.6223 145.117 80.1386C145.117 80.7216 145.218 81.2536 145.403 81.7286C145.583 82.1887 145.859 82.6055 146.211 82.9516C146.556 83.2916 146.976 83.5506 147.473 83.7336C148.006 83.9223 148.567 84.0151 149.131 84.0076C149.643 84.0044 150.15 83.9225 150.637 83.7666ZM147.271 78.0666C147.683 77.6926 148.23 77.5096 148.92 77.5096C149.568 77.5096 150.09 77.6846 150.469 78.0346C150.848 78.3836 151.049 78.8666 151.083 79.4816H146.539C146.604 78.9371 146.864 78.4335 147.271 78.0666Z" fill="black"/>
<path d="M154.273 76.4355H155.485L158.363 80.1056L161.089 76.4355H162.267V83.8416H160.938V78.4416L158.346 81.8775H158.295L155.603 78.4406V83.8405H154.273V76.4355Z" fill="black"/>
<path fill-rule="evenodd" clip-rule="evenodd" d="M165.885 76.4604C165.482 76.5658 165.096 76.731 164.741 76.9504L165.094 78.0004C165.397 77.8504 165.7 77.7254 166.003 77.6174C166.306 77.5084 166.693 77.4584 167.156 77.4584C167.526 77.4584 167.821 77.5174 168.048 77.6334C168.275 77.7414 168.443 77.9084 168.561 78.1084C168.679 78.3084 168.755 78.5574 168.797 78.8484C168.839 79.1394 168.856 79.4554 168.856 79.7974C168.584 79.6078 168.274 79.4798 167.947 79.4224C167.631 79.3596 167.31 79.3261 166.988 79.3224C166.592 79.3224 166.222 79.3814 165.868 79.4804C165.515 79.5804 165.212 79.7304 164.968 79.9304C164.719 80.13 164.518 80.3829 164.379 80.6704C164.231 80.9852 164.156 81.3295 164.16 81.6774C164.16 82.4014 164.371 82.9674 164.791 83.3674C165.212 83.7664 165.767 83.9654 166.457 83.9654C167.08 83.9654 167.577 83.8574 167.955 83.6414C168.334 83.4244 168.637 83.1754 168.856 82.8924V83.8494H170.101V79.3064C170.101 78.3404 169.891 77.5924 169.462 77.0674C169.041 76.5434 168.292 76.2774 167.232 76.2774C166.76 76.2774 166.314 76.3434 165.885 76.4604ZM168.108 82.4604C167.805 82.6764 167.409 82.7754 166.921 82.7754C166.492 82.7754 166.155 82.6674 165.92 82.4594C165.684 82.2434 165.566 81.9604 165.566 81.6104C165.566 81.4034 165.608 81.2284 165.701 81.0704C165.794 80.9124 165.92 80.7874 166.063 80.6874C166.22 80.5828 166.393 80.5066 166.576 80.4624C166.77 80.4124 166.963 80.3874 167.165 80.3874C167.822 80.3874 168.385 80.5454 168.848 80.8784V81.8184C168.63 82.0629 168.381 82.2793 168.108 82.4604ZM181.841 73.8304C182.11 73.7064 182.362 73.4984 182.598 73.1904L181.874 72.1504C181.689 72.4004 181.479 72.5744 181.243 72.6664C180.993 72.7641 180.734 72.8365 180.469 72.8824L180.217 72.9274C179.998 72.9654 179.763 73.0074 179.51 73.0494C179.105 73.1244 178.709 73.2473 178.332 73.4154C177.734 73.6734 177.255 74.0224 176.893 74.4634C176.531 74.9044 176.245 75.4034 176.051 75.9534C175.855 76.5106 175.722 77.0883 175.656 77.6754C175.588 78.2754 175.555 78.8484 175.555 79.3974C175.555 80.1054 175.647 80.7454 175.832 81.3194C176.018 81.8944 176.278 82.3764 176.623 82.7674C176.968 83.1674 177.381 83.4674 177.869 83.6834C178.357 83.8994 178.904 84.0074 179.518 84.0074C180.082 84.0074 180.604 83.8994 181.075 83.6994C181.529 83.5072 181.941 83.2276 182.287 82.8764C182.623 82.5344 182.893 82.1264 183.078 81.6694C183.271 81.2114 183.364 80.7204 183.364 80.2044C183.364 79.6474 183.28 79.1404 183.12 78.6904C182.973 78.2614 182.738 77.8677 182.43 77.5344C182.122 77.2066 181.745 76.9506 181.327 76.7844C180.867 76.603 180.375 76.5126 179.88 76.5184C179.56 76.5184 179.249 76.5604 178.946 76.6434C178.652 76.7265 178.369 76.8468 178.104 77.0014C177.848 77.1483 177.613 77.33 177.406 77.5414C177.204 77.7504 177.036 77.9834 176.918 78.2494H176.884C176.91 77.9084 176.952 77.5594 177.027 77.2014C177.103 76.8434 177.212 76.5014 177.356 76.1774C177.499 75.8534 177.684 75.5614 177.911 75.2954C178.155 75.0269 178.453 74.814 178.786 74.6714C179.153 74.4969 179.54 74.3712 179.939 74.2974L180.203 74.2494C180.466 74.2014 180.717 74.1554 180.957 74.1054C181.277 74.0394 181.571 73.9544 181.841 73.8304ZM177.162 80.9454C177.032 80.5253 176.97 80.0871 176.977 79.6474C177.034 79.395 177.136 79.1553 177.28 78.9404C177.423 78.7154 177.608 78.5164 177.827 78.3404C178.322 77.9532 178.933 77.7452 179.56 77.7504C180.343 77.7504 180.932 77.9914 181.344 78.4664C181.757 78.9484 181.959 79.5474 181.959 80.2714C181.959 80.6294 181.891 80.9544 181.774 81.2534C181.661 81.5483 181.489 81.8174 181.269 82.0447C181.049 82.272 180.786 82.4528 180.495 82.5764C180.192 82.7094 179.863 82.7764 179.493 82.7764C179.123 82.7764 178.786 82.7014 178.475 82.5514C178.166 82.4044 177.893 82.1914 177.675 81.9274C177.447 81.6332 177.274 81.3006 177.162 80.9454ZM193.563 76.4354H192.233V83.8414H193.563V76.4354ZM185.282 76.4354H186.612V78.6574H187.841C188.421 78.6574 188.892 78.7324 189.271 78.8734C189.65 79.0154 189.953 79.2064 190.18 79.4394C190.407 79.6724 190.567 79.9474 190.66 80.2544C190.752 80.5624 190.803 80.8784 190.803 81.2114C190.803 81.5444 190.752 81.8614 190.643 82.1774C190.542 82.4934 190.365 82.7674 190.129 83.0174C189.894 83.2674 189.574 83.4674 189.17 83.6174C188.766 83.7664 188.278 83.8494 187.689 83.8494H185.274V76.4354H185.282ZM186.612 79.8964V82.6094H187.58C188.245 82.6094 188.716 82.4934 188.985 82.2594C189.255 82.0264 189.389 81.6944 189.389 81.2534C189.389 80.8034 189.246 80.4634 188.977 80.2294C188.699 79.9964 188.236 79.8794 187.597 79.8794H186.612V79.8964Z" fill="black"/>
<path d="M202.357 82.7748C202.037 83.1828 201.616 83.4908 201.111 83.6988C200.593 83.9097 200.039 84.017 199.479 84.0148C198.923 84.0224 198.37 83.9295 197.846 83.7408C197.376 83.5703 196.946 83.304 196.584 82.9588C196.226 82.613 195.945 82.1961 195.759 81.7348C195.559 81.2292 195.459 80.6896 195.465 80.1458C195.465 79.6058 195.557 79.1058 195.751 78.6318C195.936 78.1568 196.205 77.7498 196.542 77.4078C196.879 77.0588 197.282 76.7928 197.737 76.5848C198.217 76.3736 198.736 76.2685 199.26 76.2768C199.857 76.2768 200.413 76.3518 200.918 76.5008C201.423 76.6508 201.852 76.9008 202.205 77.2508L201.591 78.2908C201.294 78.0217 200.944 77.8174 200.564 77.6908C200.203 77.5744 199.825 77.5156 199.445 77.5168C199.109 77.5168 198.789 77.5828 198.477 77.7078C198.171 77.8313 197.891 78.0122 197.653 78.2408C197.411 78.4775 197.219 78.7604 197.089 79.0728C196.946 79.3968 196.879 79.7548 196.879 80.1538C196.879 80.5618 196.954 80.9278 197.097 81.2438C197.24 81.5688 197.434 81.8438 197.678 82.0758C197.922 82.3098 198.208 82.4838 198.536 82.6008C198.865 82.7168 199.21 82.7838 199.58 82.7838C200.034 82.7838 200.438 82.6918 200.8 82.5168C201.15 82.3479 201.464 82.1137 201.726 81.8268L202.357 82.7748ZM203.038 76.4348H209.863V77.7498H207.119V83.8398H205.79V77.7498H203.047V76.4348H203.038Z" fill="black"/>
<path fill-rule="evenodd" clip-rule="evenodd" d="M212.639 76.4361H211.309V87.1361H212.639V83.5001C212.908 83.6751 213.228 83.8001 213.598 83.8831C213.968 83.9661 214.355 84.0071 214.751 84.0071C215.34 84.0071 215.87 83.8991 216.35 83.7001C216.81 83.5032 217.227 83.2178 217.578 82.8601C217.923 82.5011 218.184 82.0851 218.369 81.5941C218.554 81.1041 218.647 80.5791 218.647 80.0221C218.647 79.4721 218.563 78.9651 218.403 78.5071C218.252 78.0721 218.018 77.6709 217.713 77.3261C217.413 76.9898 217.042 76.7252 216.627 76.5521C216.172 76.3569 215.682 76.2604 215.188 76.2691C214.667 76.2691 214.179 76.3691 213.716 76.5691C213.253 76.7691 212.891 77.0091 212.639 77.3091V76.4361ZM213.565 77.8091C213.944 77.6091 214.356 77.5091 214.802 77.5091C215.189 77.5091 215.534 77.5671 215.846 77.6921C216.149 77.8171 216.401 77.9921 216.612 78.2251C216.822 78.4581 216.982 78.7251 217.083 79.0401C217.192 79.3561 217.243 79.6981 217.243 80.0721C217.243 80.4721 217.175 80.8291 217.058 81.1621C216.947 81.4778 216.772 81.767 216.544 82.0111C216.314 82.2523 216.036 82.4421 215.728 82.5681C215.384 82.712 215.014 82.7829 214.642 82.7761C214.281 82.7761 213.944 82.7351 213.624 82.6521C213.273 82.5568 212.941 82.4048 212.64 82.2021V78.5321C212.875 78.2501 213.187 78.0091 213.565 77.8091ZM228.846 76.4351H227.516V83.8411H228.846V76.4351ZM220.557 76.4351H221.887V78.6571H223.115C223.696 78.6571 224.167 78.7321 224.546 78.8731C224.925 79.0151 225.228 79.2061 225.455 79.4391C225.682 79.6721 225.842 79.9471 225.934 80.2541C226.027 80.5621 226.077 80.8781 226.077 81.2111C226.077 81.5441 226.027 81.8611 225.918 82.1771C225.817 82.4931 225.64 82.7671 225.404 83.0171C225.169 83.2671 224.849 83.4671 224.445 83.6171C224.041 83.7661 223.553 83.8491 222.964 83.8491H220.549V76.4351H220.557ZM221.896 79.8961V82.6091H222.864C223.528 82.6091 224 82.4931 224.269 82.2591C224.538 82.0261 224.673 81.6941 224.673 81.2531C224.673 80.8031 224.53 80.4631 224.261 80.2291C223.983 79.9961 223.52 79.8791 222.881 79.8791H221.896V79.8961Z" fill="black"/>
<path d="M235.224 80.0055L238.068 83.8416H236.436L234.239 80.8456L232.009 83.8416H230.461L233.288 80.0715L230.629 76.4355H232.262L234.29 79.2316L236.351 76.4355H237.9L235.224 80.0055ZM118.407 92.9946H114.326V99.1685H112.996V91.7635H119.736V99.1685H118.407V92.9946ZM127.284 93.0776H124.659L124.574 94.3255C124.482 95.3825 124.356 96.2315 124.179 96.8795C124.002 97.5295 123.783 98.0285 123.531 98.3775C123.279 98.7275 122.984 98.9685 122.647 99.0855C122.299 99.2116 121.932 99.2736 121.562 99.2685L121.461 97.9865C121.604 97.9945 121.772 97.9615 121.957 97.8785C122.143 97.7955 122.328 97.6125 122.504 97.3385C122.681 97.0545 122.841 96.6556 122.984 96.1395C123.127 95.6155 123.22 94.9335 123.27 94.0755L123.405 91.7705H128.614V99.1766H127.284V93.0765V93.0776Z" fill="black"/>
<path fill-rule="evenodd" clip-rule="evenodd" d="M132.202 91.7807C131.772 91.8967 131.385 92.0627 131.057 92.2707L131.411 93.3197C131.714 93.1697 132.017 93.0447 132.319 92.9367C132.622 92.8287 133.01 92.7787 133.472 92.7787C133.843 92.7787 134.137 92.8367 134.364 92.9527C134.592 93.0617 134.76 93.2277 134.878 93.4277C134.995 93.6277 135.071 93.8777 135.113 94.1677C135.155 94.4597 135.172 94.7757 135.172 95.1167C134.9 94.9273 134.589 94.7997 134.263 94.7427C133.947 94.6798 133.626 94.6463 133.304 94.6427C132.909 94.6427 132.538 94.7007 132.185 94.8007C131.831 94.9007 131.528 95.0507 131.284 95.2507C131.035 95.4503 130.833 95.7031 130.695 95.9907C130.547 96.3055 130.472 96.6498 130.477 96.9977C130.477 97.7207 130.687 98.2877 131.108 98.6867C131.528 99.0857 132.084 99.2857 132.774 99.2857C133.397 99.2857 133.893 99.1777 134.272 98.9607C134.65 98.7447 134.953 98.4947 135.172 98.2117V99.1687H136.418V94.6257C136.418 93.6607 136.207 92.9117 135.778 92.3877C135.357 91.8627 134.608 91.5977 133.548 91.5977C133.093 91.598 132.64 91.6602 132.202 91.7807ZM134.432 97.7787C134.13 97.9957 133.734 98.0957 133.246 98.0957C132.808 98.0957 132.48 97.9877 132.245 97.7787C132.009 97.5627 131.891 97.2797 131.891 96.9307C131.891 96.7227 131.933 96.5477 132.026 96.3897C132.118 96.2317 132.245 96.1067 132.388 96.0067C132.531 95.9067 132.707 95.8317 132.901 95.7817C133.093 95.732 133.291 95.7071 133.49 95.7077C134.146 95.7077 134.71 95.8657 135.173 96.1977V97.1377C134.954 97.3822 134.705 97.5976 134.432 97.7787Z" fill="black"/>
<path d="M137.719 91.7637H144.544V93.0777H141.8V99.1687H140.471V93.0787H137.728V91.7637H137.719Z" fill="black"/>
<path fill-rule="evenodd" clip-rule="evenodd" d="M150.756 99.0926C151.261 98.9346 151.69 98.6926 152.06 98.3606L151.656 97.3286C151.412 97.5456 151.084 97.7286 150.688 97.8786C150.293 98.0286 149.847 98.1026 149.359 98.1026C148.627 98.1026 148.021 97.9116 147.541 97.5206C147.061 97.1296 146.801 96.5806 146.742 95.8806H152.498C152.556 95.6236 152.582 95.3316 152.582 94.9906C152.582 94.4836 152.489 94.0256 152.304 93.6096C152.131 93.2057 151.879 92.8408 151.563 92.5366C151.243 92.2341 150.865 91.9991 150.453 91.8456C150.021 91.678 149.561 91.5932 149.098 91.5956C148.475 91.5956 147.928 91.7036 147.449 91.9036C146.995 92.0936 146.586 92.374 146.245 92.7276C145.913 93.0791 145.658 93.4955 145.496 93.9506C145.318 94.4354 145.23 94.9483 145.235 95.4646C145.235 96.0476 145.336 96.5796 145.521 97.0546C145.707 97.5286 145.984 97.9366 146.329 98.2776C146.674 98.6186 147.095 98.8766 147.592 99.0596C148.123 99.2486 148.684 99.3417 149.249 99.3346C149.746 99.3346 150.251 99.2506 150.756 99.0926ZM147.382 93.3846C147.794 93.0106 148.341 92.8276 149.031 92.8276C149.688 92.8276 150.201 93.0106 150.58 93.3516C150.958 93.7016 151.16 94.1836 151.194 94.7996H146.65C146.714 94.2547 146.974 93.7517 147.382 93.3846ZM153.23 91.7626H154.913L157.479 95.3326L154.736 99.1676H153.104L155.981 95.3316L153.23 91.7626ZM157.807 91.7626H159.137V99.1676H157.807V91.7626ZM163.891 99.1676L160.963 95.3316L163.698 91.7616H162.048L159.465 95.3316L162.242 99.1676H163.891ZM169.967 99.0926C170.472 98.9346 170.901 98.6926 171.271 98.3606L170.867 97.3286C170.623 97.5456 170.295 97.7286 169.9 97.8786C169.504 98.0286 169.058 98.1026 168.57 98.1026C167.838 98.1026 167.232 97.9116 166.752 97.5206C166.273 97.1296 166.012 96.5806 165.953 95.8806H171.709C171.768 95.6236 171.793 95.3316 171.793 94.9906C171.793 94.4836 171.701 94.0256 171.515 93.6096C171.342 93.2059 171.091 92.8411 170.775 92.5366C170.454 92.234 170.076 91.999 169.664 91.8456C169.232 91.6779 168.772 91.5931 168.309 91.5956C167.687 91.5956 167.14 91.7036 166.66 91.9036C166.207 92.0939 165.798 92.3742 165.457 92.7276C165.124 93.0785 164.869 93.4951 164.708 93.9506C164.53 94.4353 164.441 94.9483 164.447 95.4646C164.447 96.0476 164.548 96.5796 164.733 97.0546C164.918 97.5286 165.196 97.9366 165.541 98.2776C165.886 98.6186 166.306 98.8766 166.803 99.0596C167.335 99.2486 167.896 99.3417 168.461 99.3346C168.972 99.3308 169.48 99.2492 169.967 99.0926ZM166.593 93.3846C167.006 93.0106 167.553 92.8276 168.243 92.8276C168.891 92.8276 169.412 93.0106 169.791 93.3516C170.17 93.7016 170.372 94.1836 170.405 94.7996H165.861C165.925 94.2547 166.185 93.7517 166.593 93.3846ZM177.188 89.2746C176.405 89.2746 175.976 88.8416 175.909 87.9766H174.655C174.655 88.3086 174.714 88.6086 174.823 88.8916C174.933 89.1746 175.093 89.4156 175.303 89.6156C175.513 89.8156 175.783 89.9736 176.094 90.0976C176.405 90.2226 176.767 90.2806 177.179 90.2806C177.558 90.2806 177.895 90.2226 178.198 90.0976C178.501 89.9816 178.753 89.8156 178.972 89.6156C179.182 89.4156 179.351 89.1746 179.468 88.8916C179.586 88.6086 179.645 88.3086 179.645 87.9766H178.4C178.341 88.8416 177.928 89.2746 177.188 89.2746ZM173.594 91.7616V99.1676H174.924L179.249 93.6506V99.1676H180.579V91.7616H179.249L174.924 97.2786V91.7616H173.594Z" fill="black"/>
</g>
<defs>
<clipPath id="clip0_346_2143">
<rect width="239" height="120" fill="white"/>
</clipPath>
</defs>
</svg>
