<svg xmlns="http://www.w3.org/2000/svg" width="73" height="29" viewBox="0 0 73 29" fill="none">
<g clip-path="url(#clip0_906_1535)">
<path d="M32.1263 10.9886C30.4557 10.9886 28.7141 12.2181 28.7141 12.2181V11.4276C28.7141 11.2545 28.6453 11.185 28.4736 11.185H26.3415C26.1696 11.185 26.0664 11.2892 26.0664 11.4276V28.2792C26.0664 28.4529 26.1353 28.5571 26.3073 28.5571H28.4738C28.6109 28.5571 28.7143 28.4529 28.7143 28.2792V13.8547C28.7143 13.8547 29.7197 13.2122 30.9409 13.2122C32.1036 13.2122 33.0217 13.794 33.0217 14.9877C33.0217 15.8191 33.0217 28.2792 33.0217 28.2792C33.0217 28.4529 33.1247 28.5571 33.2967 28.5571H35.4282C35.6002 28.5571 35.6688 28.4183 35.6688 28.2792V14.2323C35.6689 12.1168 34.3789 10.9886 32.1263 10.9886Z" fill="#010202"/>
<path d="M48.7101 2.53572H46.578C46.406 2.53572 46.3027 2.63979 46.3027 2.77847V11.2798C45.4844 10.963 44.7391 10.7958 44.1368 10.7958C40.6742 10.7958 38.2969 14.1337 38.2969 20.5522C38.2969 26.051 40.6095 29 43.6273 29C44.8994 29 45.9493 28.2651 46.7181 27.5755L47.1836 28.3711C47.262 28.5087 47.3263 28.5558 47.484 28.5558L48.71 28.5573C48.8474 28.5573 48.9507 28.453 48.9507 28.2793V2.77873C48.9509 2.60516 48.8819 2.53572 48.7101 2.53572ZM41.1167 19.9847C41.1167 16.448 42.1432 12.9458 44.2395 12.9458C44.9495 12.9458 45.6316 13.1813 46.303 13.7191V26.1792C45.778 26.4672 45.1172 26.7331 44.4033 26.7331C42.124 26.733 41.1167 24.0067 41.1167 19.9847Z" fill="#010202"/>
<path d="M56.8775 10.8306C53.3269 10.8306 51.5742 15.5143 51.5742 20.6115C51.5742 25.9464 54.0737 28.9368 57.2875 28.9368C58.7003 28.9368 60.1063 28.376 61.0283 27.8596C61.1696 27.7804 61.1951 27.6685 61.1611 27.5308L60.8915 26.4037C60.8578 26.2659 60.7893 26.1971 60.6183 26.1971C60.5431 26.1971 59.3785 26.5407 58.2451 26.5407C55.615 26.5407 54.4089 24.1833 54.4089 21.0522C54.4089 20.6393 54.4089 20.2913 54.4089 20.2913C54.4089 20.2913 55.7162 20.4737 56.5016 20.4737H61.4632V19.0277C61.4632 13.6892 59.6094 10.8306 56.8775 10.8306ZM56.7067 18.3039C55.9214 18.3039 54.492 18.4996 54.492 18.4996C54.492 18.4996 54.5111 17.9251 54.5796 17.3739C54.887 14.4466 55.5794 12.966 56.7747 12.966C57.8141 12.966 58.5258 14.4811 58.6971 17.1331C58.7309 17.6843 58.7309 18.3041 58.7309 18.3041L56.7067 18.3039Z" fill="#010202"/>
<path d="M22.0156 13.0194C21.2272 11.4532 19.8228 10.7685 18.2142 10.7685C17.1807 10.7685 15.568 11.167 14.4908 11.655C14.2801 11.7506 14.1468 11.8346 14.1468 12.0019C14.1468 12.1012 14.1958 12.2155 14.25 12.3141L14.9756 13.8808C15.0507 14.0578 15.1703 14.0981 15.2692 14.0981C15.3766 14.0981 15.4639 14.0469 15.5602 13.9846C16.6108 13.3076 17.3805 12.9354 17.9898 12.9354C18.7959 12.9354 19.3432 13.4747 19.6808 14.2854C19.9951 15.0409 20.117 16.0849 20.117 17.291C20.117 17.4449 20.1176 17.6456 20.1176 17.6456C19.4555 17.2278 18.3085 16.9975 17.7361 16.9975C14.6555 16.9975 12.9941 19.9488 12.9941 23.1049C12.9941 26.5054 14.9358 28.9998 17.269 28.9998C18.5685 28.9998 19.7449 28.2307 20.5327 27.2609C20.5327 27.2609 20.9521 28.2693 21.0069 28.3903C21.062 28.511 21.1203 28.5556 21.278 28.5556L22.5248 28.557C22.6621 28.557 22.7654 28.4528 22.7654 28.2791V18.5038C22.765 16.1019 22.6447 14.2692 22.0156 13.0194ZM20.1174 25.8263C19.5067 26.4211 18.775 26.7329 18.1167 26.7329C17.4585 26.7329 16.9498 26.4262 16.5419 25.8585C16.0454 25.1676 15.8138 24.1037 15.8138 22.9249C15.8138 21.0605 16.4964 19.1475 17.9434 19.1475C18.6594 19.1475 19.446 19.3825 20.1176 19.9208L20.1174 25.8263Z" fill="#010202"/>
<path d="M72.7233 11.1828C72.4316 11.1828 71.0351 11.1828 70.823 11.1828C70.6107 11.1828 70.5025 11.295 70.4477 11.4403C70.3273 11.7589 69.5241 13.8919 69.1948 14.7755C68.96 15.4068 68.3277 17.2145 68.3277 17.2145L68.2541 17.2139C68.252 17.2076 67.7887 15.899 67.538 15.2437C67.335 14.7125 66.2764 11.9005 66.1424 11.5536C66.071 11.3674 65.991 11.1828 65.7188 11.1828C65.3513 11.1828 63.8671 11.1828 63.6382 11.1828C63.4096 11.1828 63.2801 11.4357 63.3539 11.5926C63.428 11.75 66.743 19.3638 66.743 19.3638C66.743 19.3638 63.183 27.8894 63.0789 28.0808C62.9748 28.2724 63.1058 28.5558 63.359 28.5558C63.6118 28.5558 64.8726 28.5558 65.1824 28.5558C65.4927 28.5558 65.615 28.3918 65.7082 28.1276C65.9702 27.3874 66.3605 26.3579 66.9131 24.7669C67.2791 23.7125 67.858 21.862 67.858 21.862H67.9217C67.9217 21.862 68.5559 23.748 68.7917 24.3647C69.3874 25.9241 70.1495 27.961 70.2304 28.1761C70.3145 28.401 70.4323 28.5559 70.6456 28.5559C70.8592 28.5559 72.5079 28.5559 72.7132 28.5559C72.9178 28.5559 73.0125 28.3204 72.9163 28.1154C72.6861 27.6267 70.7225 22.8154 69.3592 19.6525C69.3592 19.6525 72.8978 11.7781 72.9668 11.5833C73.0359 11.3886 73.015 11.1828 72.7233 11.1828Z" fill="#010202"/>
<path d="M15.1481 2.47955e-05H12.7512C12.5389 2.47955e-05 12.4063 0.105125 12.3757 0.257498C12.3453 0.410465 8.78119 11.3686 8.52218 12.2814C8.33851 12.9286 7.73963 15.2099 7.59596 15.7577L6.35643 12.3452C6.05524 11.4059 3.16839 3.27345 3.0837 2.94853C3.03702 2.76995 2.95567 2.54796 2.64527 2.54796H0.305207C0.0764296 2.54796 -0.0530835 2.80103 0.0208009 2.95796C0.079622 3.08369 4.3066 14.4229 6.01421 18.7547V28.2789C6.01421 28.4527 6.08313 28.5569 6.25495 28.5569H8.47123C8.60862 28.5569 8.71168 28.4527 8.71168 28.2789V19.2504V18.8297C10.1352 14.8209 15.3348 0.560186 15.3913 0.400599C15.4604 0.205538 15.4401 2.47955e-05 15.1481 2.47955e-05Z" fill="#E52620"/>
</g>
<defs>
<clipPath id="clip0_906_1535">
<rect width="73" height="29" fill="white"/>
</clipPath>
</defs>
</svg>