<svg xmlns="http://www.w3.org/2000/svg" width="81" height="20" viewBox="0 0 81 20" fill="none">
<path d="M0.711271 0.642661H17.5786C17.9714 0.642661 18.2898 0.958115 18.2898 1.34725V4.63301C18.2898 5.07068 18.0981 5.48508 17.7643 5.77185L8.33203 13.5884H17.5786C17.9714 13.5884 18.2898 13.8981 18.2898 14.2873V18.0594C18.2898 18.4486 17.9714 18.764 17.5786 18.764H0.711271C0.318447 18.764 0 18.4486 0 18.0594V14.7791C0 14.3414 0.191723 13.927 0.525491 13.6402L9.95779 5.82362H0.711271C0.318447 5.82362 0 5.50097 0 5.11184V1.34725C0 0.958115 0.318447 0.642661 0.711271 0.642661ZM30.0476 0C31.9979 0 33.7367 0.434455 35.1882 1.22839C36.6398 2.02233 37.8042 3.17575 38.6056 4.61368C39.4071 6.05161 39.8457 7.77405 39.8457 9.70603C39.8457 11.638 39.4071 13.3604 38.6056 14.7984C37.8042 16.2363 36.6398 17.3897 35.1882 18.1837C33.7367 18.9776 31.9979 19.4121 30.0476 19.4121C28.0973 19.4121 26.3585 18.9776 24.9069 18.1837C23.4553 17.3897 22.291 16.2363 21.4895 14.7984C20.688 13.3604 20.2494 11.638 20.2494 9.70603C20.2494 7.77405 20.688 6.05161 21.4895 4.61368C22.291 3.17575 23.4553 2.02233 24.9069 1.22839C26.3585 0.434455 28.0973 0 30.0476 0ZM30.0476 5.17655C29.1146 5.17655 28.2956 5.37177 27.6182 5.73475C26.9408 6.09773 26.405 6.62846 26.0386 7.2995C25.6722 7.97053 25.4751 8.78186 25.4751 9.70603C25.4751 10.6302 25.6722 11.4415 26.0386 12.1126C26.405 12.7836 26.9408 13.3143 27.6182 13.6773C28.2956 14.0403 29.1146 14.2355 30.0476 14.2355C30.9805 14.2355 31.7995 14.0403 32.4769 13.6773C33.1543 13.3143 33.6901 12.7836 34.0565 12.1126C34.4229 11.4415 34.62 10.6302 34.62 9.70603C34.62 8.78186 34.4229 7.97053 34.0565 7.2995C33.6901 6.62846 33.1543 6.09773 32.4769 5.73475C31.7995 5.37177 30.9805 5.17655 30.0476 5.17655ZM50.9502 0C52.9005 0 54.6393 0.434455 56.0909 1.22839C57.5425 2.02233 58.7068 3.17575 59.5083 4.61368C60.3098 6.05161 60.7483 7.77405 60.7483 9.70603C60.7483 11.638 60.3098 13.3604 59.5083 14.7984C58.7068 16.2363 57.5425 17.3897 56.0909 18.1837C54.6393 18.9776 52.9005 19.4121 50.9502 19.4121C48.9999 19.4121 47.2611 18.9776 45.8096 18.1837C44.358 17.3897 43.1936 16.2363 42.3921 14.7984C41.5907 13.3604 41.1521 11.638 41.1521 9.70603C41.1521 7.77405 41.5907 6.05161 42.3921 4.61368C43.1936 3.17575 44.358 2.02233 45.8096 1.22839C47.2611 0.434455 48.9999 0 50.9502 0ZM50.9502 5.17655C50.0173 5.17655 49.1983 5.37177 48.5209 5.73475C47.8434 6.09773 47.3077 6.62846 46.9413 7.2995C46.5748 7.97053 46.3778 8.78186 46.3778 9.70603C46.3778 10.6302 46.5748 11.4415 46.9413 12.1126C47.3077 12.7836 47.8434 13.3143 48.5209 13.6773C49.1983 14.0403 50.0173 14.2355 50.9502 14.2355C51.8832 14.2355 52.7022 14.0403 53.3796 13.6773C54.057 13.3143 54.5928 12.7836 54.9592 12.1126C55.3256 11.4415 55.5227 10.6302 55.5227 9.70603C55.5227 8.78186 55.3256 7.97053 54.9592 7.2995C54.5928 6.62846 54.057 6.09773 53.3796 5.73475C52.7022 5.37177 51.8832 5.17655 50.9502 5.17655ZM81 1.34949V18.0591C81 18.4483 80.6815 18.7638 80.2887 18.7638H76.974C76.5322 18.7638 76.1139 18.5739 75.8244 18.2433L67.9336 8.90075V18.0591C67.9336 18.4483 67.6079 18.7638 67.2151 18.7638H63.417C63.0242 18.7638 62.7057 18.4483 62.7057 18.0591V1.34949C62.7057 0.960336 63.0242 0.644865 63.417 0.644865H66.7317C67.1736 0.644865 67.5919 0.834835 67.8814 1.16554L75.7721 10.5113V1.34949C75.7721 0.960336 76.0847 0.644865 76.4776 0.644865H80.2887C80.6815 0.644865 81 0.960336 81 1.34949Z" fill="url(#paint0_linear_914_1543)"/>
<defs>
<linearGradient id="paint0_linear_914_1543" x1="80.9978" y1="9.74411" x2="-5.9219e-07" y2="9.7441" gradientUnits="userSpaceOnUse">
<stop stop-color="#6339F5"/>
<stop offset="0.657331" stop-color="#3D3F55"/>
</linearGradient>
</defs>
</svg>