<svg width="164" height="30" viewBox="0 0 164 30" fill="none" xmlns="http://www.w3.org/2000/svg">
<g clip-path="url(#clip0_2_1267)">
<path d="M96.1074 29.9519L96.1216 0.118896L116.069 0.127387L116.066 3.83493L114.572 7.62739L105.407 7.62456V10.95L114.572 10.9529L114.569 18.4104L105.405 18.4076L105.402 22.5L116.057 22.5057L116.055 29.9632L96.1074 29.9519Z" fill="white"/>
<path d="M138.568 0.135787L138.565 3.84333L137.113 7.63579L127.949 7.63296L127.943 22.5084L138.557 22.5141L138.554 29.9716L122.359 29.966C120.143 29.966 118.609 28.4292 118.609 26.2556L118.618 3.83767C118.618 1.66409 120.155 0.130127 122.371 0.130127L138.568 0.135787Z" fill="white"/>
<path d="M144.863 29.9718C142.647 29.9718 141.113 28.435 141.113 26.2615L141.122 3.84353C141.122 1.66995 142.659 0.135986 144.875 0.135986L159.75 0.141647C161.966 0.141647 163.5 1.67844 163.5 3.85202L163.492 26.2699C163.492 28.4435 161.955 29.9775 159.739 29.9775L144.863 29.9718ZM150.456 7.64165L150.45 22.5171L154.158 22.5199L154.163 7.64448L150.456 7.64165Z" fill="white"/>
<path d="M58.0621 0.164062L60.3602 14.5131H61.1272V0.164062H70.1951V3.86878L67.1725 29.9688H56.7404L54.4848 18.2603H53.8451L51.5895 29.9688H41.1999L38.1348 3.86878V0.164062H47.2451V14.5131H47.9697L50.2678 0.164062H58.0621Z" fill="white"/>
<path d="M72.75 29.9659V0.164062H92.6745V3.86878L91.1859 7.6584H82.033V10.9782H91.1859V18.4301H82.033V22.5169H92.6774V29.9688H72.75V29.9659Z" fill="white"/>
<path d="M0 29.9717V14.5273C5.0717 19.6839 10.1462 24.8434 15.2208 30C10.1462 29.9915 5.0717 29.983 0 29.9717Z" fill="white"/>
<path d="M29.6797 0.0934874V15.5378C24.6052 10.3812 19.5335 5.22462 14.459 0.0651855C19.5335 0.0765063 24.6052 0.0849969 29.6797 0.0934874Z" fill="white"/>
<path d="M0.240234 8.76226L20.9317 29.6943C21.7157 29.7509 22.3893 29.6689 22.9553 29.5358C27.5657 28.4321 29.3459 22.5708 29.561 21.8264C22.3978 14.55 15.2317 7.27358 8.06854 0C7.59023 0.0933962 6.86571 0.274528 6.04495 0.639623C5.56382 0.851887 2.24118 2.38868 0.826084 6.12453C0.605329 6.70755 0.3308 7.60472 0.240234 8.76226Z" fill="white"/>
</g>
<defs>
<clipPath id="clip0_2_1267">
<rect width="163.497" height="30" fill="white"/>
</clipPath>
</defs>
</svg>
