<svg width="164" height="31" viewBox="0 0 164 31" fill="none" xmlns="http://www.w3.org/2000/svg">
<g clip-path="url(#clip0_2_1198)">
<path d="M96.1074 30.4519L96.1216 0.618896L116.069 0.627387L116.066 4.33493L114.572 8.12739L105.407 8.12456V11.45L114.572 11.4529L114.569 18.9104L105.405 18.9076L105.402 23L116.057 23.0057L116.055 30.4632L96.1074 30.4519Z" fill="#85B73F"/>
<path d="M138.568 0.635787L138.565 4.34333L137.113 8.13579L127.949 8.13296L127.943 23.0084L138.557 23.0141L138.554 30.4716L122.359 30.466C120.143 30.466 118.609 28.9292 118.609 26.7556L118.618 4.33767C118.618 2.16409 120.155 0.630127 122.371 0.630127L138.568 0.635787Z" fill="#85B73F"/>
<path d="M144.863 30.4718C142.647 30.4718 141.113 28.935 141.113 26.7615L141.122 4.34353C141.122 2.16995 142.659 0.635986 144.875 0.635986L159.75 0.641647C161.966 0.641647 163.5 2.17844 163.5 4.35202L163.492 26.7699C163.492 28.9435 161.955 30.4775 159.739 30.4775L144.863 30.4718ZM150.456 8.14165L150.45 23.0171L154.158 23.0199L154.163 8.14448L150.456 8.14165Z" fill="#85B73F"/>
<path d="M58.0621 0.664062L60.3602 15.0131H61.1272V0.664062H70.1951V4.36878L67.1725 30.4688H56.7404L54.4848 18.7603H53.8451L51.5895 30.4688H41.1999L38.1348 4.36878V0.664062H47.2451V15.0131H47.9697L50.2678 0.664062H58.0621Z" fill="#2F3339"/>
<path d="M72.75 30.4659V0.664062H92.6745V4.36878L91.1859 8.1584H82.033V11.4782H91.1859V18.9301H82.033V23.0169H92.6774V30.4688H72.75V30.4659Z" fill="#2F3339"/>
<path d="M0 30.4717V15.0273C5.0717 20.1839 10.1462 25.3434 15.2208 30.5C10.1462 30.4915 5.0717 30.483 0 30.4717Z" fill="#85B73F"/>
<path d="M29.6797 0.593487V16.0378C24.6052 10.8812 19.5335 5.72462 14.459 0.565186C19.5335 0.576506 24.6052 0.584997 29.6797 0.593487Z" fill="#85B73F"/>
<path d="M0.240234 9.26226L20.9317 30.1943C21.7157 30.2509 22.3893 30.1689 22.9553 30.0358C27.5657 28.9321 29.3459 23.0708 29.561 22.3264C22.3978 15.05 15.2317 7.77358 8.06854 0.5C7.59023 0.593396 6.86571 0.774528 6.04495 1.13962C5.56382 1.35189 2.24118 2.88868 0.826084 6.62453C0.605329 7.20755 0.3308 8.10472 0.240234 9.26226Z" fill="#85B73F"/>
</g>
<defs>
<clipPath id="clip0_2_1198">
<rect width="163.497" height="30" fill="white" transform="translate(0 0.5)"/>
</clipPath>
</defs>
</svg>
