<svg xmlns="http://www.w3.org/2000/svg" width="50" height="66" viewBox="0 0 50 66" fill="none">
<path fill-rule="evenodd" clip-rule="evenodd" d="M7.32233 7.23165C-2.44077 16.8739 -2.44078 32.5069 7.32233 42.1491L25 59.6079L42.6777 42.1492C52.4408 32.507 52.4408 16.8739 42.6777 7.23165C32.9146 -2.41055 17.0854 -2.41055 7.32233 7.23165ZM13.8881 13.7161C7.75119 19.777 7.7512 29.6036 13.8881 35.6645L24.9999 46.6387L36.1117 35.6645C42.2486 29.6036 42.2486 19.777 36.1117 13.7161C29.9748 7.6552 20.025 7.6552 13.8881 13.7161Z" fill="#85B73F"/>
<ellipse cx="25.2681" cy="64.0454" rx="1.97905" ry="1.95454" fill="#2F3339"/>
<path d="M17.5342 32.0646C13.4105 27.992 13.4105 21.3889 17.5342 17.3162C21.6579 13.2436 28.3438 13.2436 32.4675 17.3162C36.5912 21.3889 36.5912 27.992 32.4675 32.0646L25.0008 39.4388L17.5342 32.0646Z" stroke="#2F3339" stroke-width="2"/>
</svg>