<svg width="1840" height="11" viewBox="0 0 1840 11" fill="none" xmlns="http://www.w3.org/2000/svg">
<path d="M152.731 10.5664L80.0035 10.5664L87.2763 0.566416L160.004 0.56641L152.731 10.5664Z" fill="black"/>
<path d="M312.731 10.5664L240.004 10.5664L247.276 0.566416L320.004 0.56641L312.731 10.5664Z" fill="black"/>
<path d="M472.731 10.5664L400.004 10.5664L407.276 0.566416L480.004 0.56641L472.731 10.5664Z" fill="black"/>
<path d="M632.731 10.5664L560.004 10.5664L567.276 0.566416L640.004 0.56641L632.731 10.5664Z" fill="black"/>
<path d="M792.731 10.5664L720.004 10.5664L727.276 0.566416L800.004 0.56641L792.731 10.5664Z" fill="black"/>
<path d="M952.731 10.5664L880.004 10.5664L887.276 0.566416L960.004 0.56641L952.731 10.5664Z" fill="black"/>
<path d="M1112.73 10.5664L1040 10.5664L1047.28 0.566416L1120 0.56641L1112.73 10.5664Z" fill="black"/>
<path d="M1272.73 10.5664L1200 10.5664L1207.28 0.566416L1280 0.56641L1272.73 10.5664Z" fill="black"/>
<path d="M1432.73 10.5664L1360 10.5664L1367.28 0.566416L1440 0.56641L1432.73 10.5664Z" fill="black"/>
<path d="M1592.73 10.5664L1520 10.5664L1527.28 0.566416L1600 0.56641L1592.73 10.5664Z" fill="black"/>
<path d="M1752.73 10.5664L1680 10.5664L1687.28 0.566416L1760 0.56641L1752.73 10.5664Z" fill="black"/>
</svg>
